<?xml version="1.0" encoding="utf-8"?>
<!-- Generator: Adobe Illustrator 18.0.0, SVG Export Plug-In . SVG Version: 6.00 Build 0)  -->
<!DOCTYPE svg PUBLIC "-//W3C//DTD SVG 1.1//EN" "http://www.w3.org/Graphics/SVG/1.1/DTD/svg11.dtd">
<svg version="1.1" id="Layer_1" xmlns="http://www.w3.org/2000/svg" xmlns:xlink="http://www.w3.org/1999/xlink" x="0px" y="0px"
	 viewBox="-39.5 36 1039 488" enable-background="new -39.5 36 1039 488" xml:space="preserve">
<g>
	<polygon fill="#FFC9A2" points="620.1,162.5 -17.7,524 71.3,524 75.8,524 82.4,524 999.5,524 999.5,378.8 	"/>
	<polygon fill="#722D3B" points="-37.2,523.3 -36.9,524 -17.7,524 620.1,162.5 620.1,151.3 	"/>
	<polygon fill="#913F4C" points="999.5,378.8 620.1,162.5 619.9,151.3 999.5,366.9 	"/>
</g>
<g>
	<g>
		<g opacity="0.5">
			<polygon fill="#FFA177" points="791.1,345.9 913.2,414.1 987.5,371.9 865.7,303.9 			"/>
		</g>
		<g opacity="0.5">
			<polygon fill="#FFA177" points="527.7,475.5 463.2,511.2 411.7,481.8 476.2,446.3 			"/>
		</g>
		<g opacity="0.5">
			<path fill="#FFA177" d="M644.3,264.6l-84.7-48.1c-8.2-4.6-7.1-13,2.3-18.3l33.6-19.1c9.5-5.5,23.9-6.1,32.1-1.3l84.7,48.1
				c8.2,4.6,7.1,13-2.3,18.3l-33.6,19.1C667,268.6,652.5,269.2,644.3,264.6z"/>
		</g>
		<g opacity="0.5">
			<path fill="#FFA177" d="M780.6,318.1l-59.2-33.6c-5.7-3.4-5-9,1.7-12.8l23.5-13.4c6.7-3.8,16.8-4.2,22.5-0.8l59.2,33.6
				c5.7,3.4,5,9-1.7,12.8l-23.5,13.4C796.6,321.1,786.5,321.5,780.6,318.1z"/>
		</g>
		<g opacity="0.5">
			<path fill="#FFA177" d="M548.3,438.7c0-11.6,16.8-21,37.6-21c19.1,0,35.1,8,37.4,18.3l129.2-73.7l67.9,38L619.1,515.2l-67.9-38
				l30.7-17.6C563.2,458.7,548.3,449.6,548.3,438.7z"/>
		</g>
		<g opacity="0.5">
			<path fill="#FFA177" d="M373.5,343.1c-7.1-4.4-11.8-10.3-11.8-16.6c0-13.7,20-24.8,44.5-24.8c11.1,0,21.2,2.3,29,6.1l92.2-52.5
				l67.9,38L394.1,408.3l-67.9-38L373.5,343.1z"/>
		</g>
	</g>
	<g>
		<g>
			<g>
				<polygon fill="#9480A0" points="659.6,217.3 709,189.4 709,192.7 659.6,220.9 				"/>
				<polygon fill="#9480A0" points="659.6,231.6 709,203.4 709,207 659.6,235.2 				"/>
				<g>
					<g>
						<polygon fill="#9480A0" points="661.3,191.3 661.3,261.6 657.7,261.8 657.7,191.3 						"/>
					</g>
					<ellipse fill="#9480A0" cx="659.6" cy="261.6" rx="1.7" ry="0.8"/>
				</g>
				<g>
					<g>
						<polygon fill="#9480A0" points="710.7,167.7 710.7,233.5 707.3,233.7 707.3,167.7 						"/>
					</g>
					<ellipse fill="#9480A0" cx="709" cy="233.5" rx="1.7" ry="0.8"/>
				</g>
			</g>
			<g>
				<polygon fill="#9480A0" points="561.9,161.8 611.3,133.9 611.3,137.3 561.9,165.4 				"/>
				<polygon fill="#9480A0" points="561.9,176.1 611.3,148.2 611.3,151.6 561.9,179.7 				"/>
				<g>
					<g>
						<polygon fill="#9480A0" points="563.6,142.5 563.6,206.2 560,206.4 560,142.5 						"/>
					</g>
					<ellipse fill="#9480A0" cx="561.9" cy="206.2" rx="1.7" ry="0.8"/>
				</g>
				<g>
					<g>
						<polygon fill="#9480A0" points="613,122.6 613,178 609.4,178.2 609.4,122.6 						"/>
					</g>
					<ellipse fill="#9480A0" cx="611.3" cy="178" rx="1.7" ry="0.8"/>
				</g>
			</g>
			<g>
				<path fill="#C4B5CA" d="M642.4,206.4l-84.7-48.1c-8.2-4.6-7.1-13,2.3-18.3l33.6-19.1c9.5-5.5,23.9-6.1,32.1-1.3l84.7,48.1
					c8.2,4.6,7.1,13-2.3,18.3l-33.6,19.1C665.1,210.6,650.6,211,642.4,206.4z"/>
				<rect x="709.8" y="170.9" fill="#C4B5CA" width="6.1" height="6.1"/>
				<rect x="552.3" y="144.8" fill="#C4B5CA" width="6.1" height="6.1"/>
				<path fill="#F2EDF4" d="M642.4,201.8l-84.7-48.1c-8.2-4.6-7.1-13,2.3-18.3l33.6-19.1c9.5-5.5,23.9-6.1,32.1-1.3l84.7,48.1
					c8.2,4.6,7.1,13-2.3,18.3l-33.6,19.1C665.1,205.8,650.6,206.4,642.4,201.8z"/>
			</g>
		</g>
		<g>
			<g>
				<path fill="#722D3B" d="M570.1,153.7l66.8,38c3.6,2.1,10.1,1.9,14.3-0.6l40.3-22.9c4.2-2.3,4.6-6.1,1.1-8.2l-66.8-38
					c-3.6-2.1-10.1-1.9-14.3,0.6l-40.3,22.9C566.8,147.8,566.3,151.6,570.1,153.7z"/>
				<rect x="687.3" y="160" fill="#722D3B" width="7.6" height="4"/>
				<rect x="567.6" y="146.1" fill="#722D3B" width="7.6" height="4"/>
				<path fill="#843845" d="M570.1,149.9l66.6,38c3.6,2.1,10.1,1.9,14.3-0.6l40.3-22.9c4.2-2.3,4.6-6.1,1.1-8.2l-66.8-38
					c-3.6-2.1-10.1-1.9-14.3,0.6L571,141.7C566.8,144.2,566.3,147.8,570.1,149.9z"/>
			</g>
			<g>
				<g>
					<path fill="#DED3E2" d="M665.1,106.6L680,98c1.7-1.1,3.4-1.1,4.8-0.4c1.7,0.8,2.5,2.9,2.5,5.7v52.9c-0.4,0.2-0.8-0.2-1.5,0
						v-52.9c0-2.1-0.6-3.8-1.9-4.4c-0.4-0.2-0.8-0.4-1.3-0.4c-0.6,0-1.5,0.2-2.1,0.6l-14.9,8.6C665.5,107.2,665.3,107,665.1,106.6z"
						/>
					<ellipse fill="#DED3E2" cx="686.7" cy="156.2" rx="0.6" ry="0.4"/>
				</g>
				<g>
					<path fill="#DED3E2" d="M648.1,96.9l14.9-8.6c1.7-1.1,3.4-1.1,4.8-0.4c1.7,0.8,2.5,2.9,2.5,5.7v52.9c-0.4,0.2-0.8-0.2-1.5,0
						V93.6c0-2.1-0.6-3.8-1.9-4.4c-0.4-0.2-0.8-0.4-1.3-0.4c-0.6,0-1.5,0.2-2.1,0.6L648.7,98C648.5,97.6,648.3,97.4,648.1,96.9z"/>
					<ellipse fill="#DED3E2" cx="669.7" cy="146.5" rx="0.6" ry="0.4"/>
				</g>
				<g>
					<path fill="#DED3E2" d="M631.9,87.7l14.9-8.6c1.7-1.1,3.4-1.1,4.8-0.4c1.7,0.8,2.5,2.9,2.5,5.7v52.9c-0.4,0.2-0.8-0.2-1.5,0
						V84.3c0-2.1-0.6-3.8-1.9-4.4c-0.4-0.2-0.8-0.4-1.3-0.4c-0.6,0-1.5,0.2-2.1,0.6l-14.9,8.6C632.3,88.3,632.1,87.9,631.9,87.7z"/>
					<ellipse fill="#DED3E2" cx="653.3" cy="137.3" rx="0.6" ry="0.4"/>
				</g>
				<g>
					<path fill="#DED3E2" d="M615.3,78.2l14.9-8.6c1.7-1.1,3.4-1.1,4.8-0.4c1.7,0.8,2.5,2.9,2.5,5.7v52.9c-0.4,0.2-0.8-0.2-1.5,0
						V75.1c0-2.1-0.6-3.8-1.9-4.4c-0.4-0.2-0.8-0.4-1.3-0.4c-0.6,0-1.5,0.2-2.1,0.6l-14.9,8.6C615.7,79.1,615.5,78.7,615.3,78.2z"/>
					<ellipse fill="#DED3E2" cx="636.9" cy="128" rx="0.6" ry="0.4"/>
				</g>
			</g>
			<g>
				<g>
					<path fill="#FFC9A2" d="M613.6,121.5c-1.1-1.5-2.9-5.7-3.6-6.9c-1.5-2.7-2.5-1.7-2.7-1.1c0,0.2-0.2,0.4-0.2,0.6
						c0.6-0.8,1.3-0.6,1.9,0.4c0.8,1.7,2.1,5.9,3.2,7.6c1.1,1.7,1.5,2.1,0,3.8c-1.5,1.7-2.5,3.6-3.4,4.2c0.6,0,1.3,0,1.3,0l5.3-4.2
						C615.3,125.9,615.3,123.8,613.6,121.5z"/>
					<path fill="#FFA177" d="M612.1,125.9c1.5-1.7,1.1-2.1,0-3.8c-1.1-1.7-2.3-5.9-3.2-7.6c-0.6-1.3-1.3-1.3-1.9-0.4
						c-0.2,1.5-0.2,3.8-0.8,5.5c-0.4,1.1-0.6,3.8-0.6,5.9c0,1.7,0.8,1.7,1.9,4c0.2,0.4,0.6,0.6,1.3,0.6
						C609.6,129.7,610.5,127.6,612.1,125.9z"/>
				</g>
				<g>
					<path fill="#FFC9A2" d="M606.3,158.5c2.9-0.2,7.8-3.2,10.5-5.5c0.6-0.4,1.1-0.8,1.3-1.1v-4c0,0-4.4,3.2-7.6,5.5
						c-1.7,1.3-5.9,1.1-6.9,2.7c-0.2,0.4-0.4,1.1-0.4,1.7C603.7,158.3,604.8,158.7,606.3,158.5z"/>
					<path fill="#FFA177" d="M608.6,160.2c2.1-0.6,4.4-2.5,5.7-3.4c3.2-2.1,3.8-3.2,3.8-3.2v-1.5c-0.4,0.2-0.8,0.6-1.3,1.1
						c-2.7,2.3-7.6,5.3-10.5,5.5c-1.5,0.2-2.5-0.2-3.2-0.6C603.1,159.5,604.4,161.2,608.6,160.2z"/>
					<path fill="#FFA177" d="M613.8,152c0,0,0.8,0.8,0.8,2.3c0.2,1.1-0.2,1.5-0.2,1.5l0.8-0.8C615.5,154.7,616.1,152.8,613.8,152z"
						/>
				</g>
				<g>
					<g>
						<path fill="#FFC9A2" d="M651.2,128.2c-6.5-4.8-16-5.5-19.3-3.4c-0.8,0.4-1.9,1.3-2.9,2.3c0.8,0,1.9,0.2,2.5,0.4
							c2.7,1.3,5.7,3.6,5.7,3.6s-2.5-0.6-3.6-1.1c-1.1-0.2-2.7-1.1-2.7-1.1s3.2,3.2,3.6,3.6s1.5,1.5,1.5,1.5s-3.2-1.5-3.8-1.9
							c-1.5-1.1-2.7-1.9-2.7-1.9s1.7,2.3,2.5,4.6c0.4,1.1,0.2,3.6,0.2,3.6s-0.2-1.9-1.3-3.6c-1.1-1.9-1.9-2.7-1.9-2.7
							s1.3,4.2,0.2,8.4c-0.8,3.4-3.4,5.5-3.4,5.5s0.2-4.6,0-6.1c-0.2-1.1-0.6-6.1-1.1-9.2c-2.5,2.1-4.6,3.8-5.7,3.4
							c-2.1-0.8-7.1,1.3-7.1,1.3s0,0.2,0.2,0.6l10.9,1.1c0,0-1.7,5.3-2.3,6.9c-0.6,1.5-0.6,6.5,0,9.2c0.6,2.7,3.4,4.4,5.7,4.2
							s4.8-2.1,8.4-1.5c1.3,0.2,2.1,0.8,2.3,1.9c1.5-0.6,3.2-1.5,4.6-2.5c1.7-1.1,6.1,0,7.6-0.6c7.1-2.9,9.2-7.8,10.1-10.1
							C660,142.1,657.7,133.1,651.2,128.2z"/>
						<path fill="#FFA177" d="M625.8,146.1c0,0,2.5-2.1,3.4-5.5c0.8-4.2-0.2-8.4-0.2-8.4s0.8,0.8,1.9,2.7c0.8,1.7,1.3,3.6,1.3,3.6
							s0.2-2.5-0.2-3.6c-0.8-2.3-2.5-4.6-2.5-4.6s1.3,0.8,2.7,1.9c0.6,0.4,3.8,1.9,3.8,1.9s-1.1-1.1-1.5-1.5
							c-0.4-0.4-3.6-3.6-3.6-3.6s1.7,0.8,2.7,1.1c1.1,0.2,3.6,1.1,3.6,1.1s-2.7-2.3-5.7-3.6c-0.8-0.4-1.7-0.4-2.5-0.4
							c-1.3,1.1-2.7,2.3-4,3.6c0.4,3.4,0.8,8.2,1.1,9.2C626,141.7,625.8,146.1,625.8,146.1z"/>
					</g>
					<path fill="#FFA177" d="M634.6,155.8c-3.8-0.6-6.3,1.3-8.4,1.5c-2.3,0.2-5-1.5-5.7-4.2c-0.6-2.7-0.6-7.8,0-9.2s2.3-6.9,2.3-6.9
						l-10.9-1.1c0.6,2.7,3.4,13.7,3.4,16.4c0,2.9,2.3,5,4.2,5.9c1.9,0.8,3.8,2.9,7.4,2.7c0.8,0,5-0.8,10.1-3.2
						C636.7,156.6,635.9,156,634.6,155.8z"/>
				</g>
				<g>
					<path fill="#FFC9A2" d="M640.5,145.5c-4.8-1.3-9-1.9-9-1.9c-4.6,0.6-5.7,9-2.5,11.8s5.7,1.9,5.7,1.9s-3.6,4.4-6.3,5.5
						c-1.5,0.6-1.7,1.9-1.1,3.2c2.1,0.4,4.8-0.8,5.5-1.5c1.1-0.6,4-2.9,4-2.9s-1.9-0.2-3.4-1.1c1.5,0.2,2.5,0.2,3.8-0.4
						c1.5-0.6,2.1-2.3,2.1-2.3s-1.1-0.4-1.9-0.8c0.8-0.2,2.5-0.2,2.5-0.2s-1.5-1.7-1.7-2.7c0.8,0.2,2.9,1.7,2.9,1.7l-1.5-3.8
						c0,0,1.3,0.6,2.3,2.3c0.2,0.4,0.6,1.3,0.8,1.9c0.4-0.6,0.8-1.3,1.3-1.9C647,149.7,644.1,146.5,640.5,145.5z"/>
					<path fill="#FFA177" d="M639.7,152l1.5,3.8c0,0-2.1-1.5-2.9-1.7c0.2,1.1,1.7,2.7,1.7,2.7s-1.7,0-2.5,0.2
						c1.1,0.4,1.9,0.8,1.9,0.8s-0.6,1.7-2.1,2.3c-1.3,0.4-2.3,0.4-3.8,0.4c1.5,1.1,3.4,1.1,3.4,1.1s-2.9,2.3-4,2.9
						c-0.8,0.6-3.4,1.7-5.5,1.5c0.4,1.1,1.5,1.7,2.7,1.7c1.5,0,4.4-2.1,5.3-2.9c0.6-0.8,4.2-4.4,7.1-8.4c-0.2-0.6-0.4-1.5-0.8-1.9
						C640.9,152.6,639.7,152,639.7,152z"/>
				</g>
				<path fill="#FFC9A2" d="M649.5,148c0,0,0.2,4.8-1.5,5.9c-1.7,1.1-6.5,3.8-3.4,6.3c1.3,1.1,5.3-1.9,6.5-2.7
					c2.7-1.7,4.8-3.4,4.4-5.9c2.9-2.9,3.8-6.1,3.8-7.8C659.4,139.8,649.5,148,649.5,148z"/>
				<path fill="#FFA177" d="M625.8,137.5c0,0-0.2,2.9-0.8,5.3c-0.6,2.1-0.6,4.6-0.6,4.6s-1.5-1.3-0.8-3.6c0.6-2.3,0-4.6,0-4.6
					L625.8,137.5z"/>
				<path fill="#FFA177" d="M622.6,140.6c0,0-0.2,1.7-0.4,3.4c-0.2,1.3,0.4,2.5,0.4,3.4c-0.8-0.4-2.7-1.9-2.7-4
					C619.9,140.8,622.6,140.6,622.6,140.6z"/>
				<path fill="#FFC9A2" d="M619.5,124.2c-6.7-2.5-9,3.2-10.7,3.4c-1.7,0.2-1.9,4.8-1.9,6.9c0,1.5-0.4,3.2-1.1,4.8
					c-0.2,0.8,1.1,2.1,2.3,3.2c3.4,2.7,9.9,1.3,13.9,0c3.4-1.3,6.7-2.7,6.3-5.7c-0.2-1.7,0.2-3.8-2.1-6.3
					C624.5,128.7,622.6,125.5,619.5,124.2z"/>
				<path fill="#FFC9A2" d="M620.5,128.2c0,0,3.4-3.6,4.6-4.4c1.5-1.1,3.2-1.1,2.9,1.5c0,1.7,0.6,5.9,0,7.6c-1.3,4-4,4-4,4
					L620.5,128.2z"/>
				<path fill="#FFA177" d="M633.6,142.5c0,0,2.1,1.3,5,1.1c2.9-0.2,5,0.6,5.9,1.7c0.8,1.1,0.8,2.9,0.8,4.6c0,1.9-1.5,4.6-1.5,4.6
					s2.3,0.4,3.4-0.2c1.1-0.6,2.1-1.1,2.3-2.9c0.2-1.9,0.4-5.7,1.3-7.4c0.8-1.9,1.5-3.4,1.5-3.4s-1.9,0.4-2.7,1.9
					c-0.8,1.7-1.3,3.4-1.3,3.4s-0.6-2.9,0.2-5.3c1.1-2.3,1.5-3.4,1.5-3.4s-2.3,0.8-2.9,3.4c-0.6,2.1-0.8,4.2-0.8,4.2
					s-0.8-3.8-2.3-4.8c-1.5-1.1-5.7-2.5-5.7-2.5s1.3,1.5,2.3,2.3c1.1,0.6,2.3,2.7,2.3,2.7s-3.6-1.7-5.3-2.5
					c-1.5-0.8-4.2-2.3-4.2-2.3s2.1,2.3,3.6,3.4c0.6,0.4,2.5,1.7,2.5,1.7S635.7,142.9,633.6,142.5z"/>
				<path fill="#FFDFCA" d="M659.4,143.6c0,0,0,4.4-0.6,6.3c-0.8,2.1-2.7,6.7-7.1,7.1c-1.9,0.2-5.3-0.4-7.1-2.3
					c-2.9-2.7-4-5.3-1.5-10.1c3.6-6.7,10.7-2.5,11.1,1.5c0.2,3.4-2.3,6.7-6.3,5.3c4-1.1,5.3-4.8,3.2-6.9c-2.3-2.3-6.3,0-6.3,5.3
					c0,3.4,3.8,4.4,6.1,4c3.2-0.4,4.8-2.5,6.3-4.6C658.1,147.4,659.4,143.6,659.4,143.6z"/>
				<path fill="#FFA177" d="M612.6,153c0,0,0.6,0.8,0.6,1.9s-0.2,1.9-0.2,1.9l0.8-0.8c0,0,0.4-1.5-0.2-2.1
					C613.4,153,612.6,153,612.6,153z"/>
				<path fill="#FFA177" d="M627.1,124.2c-1.3-1.5-2.7,1.1-3.8,2.7c-0.6,1.3-2.1,2.9-1.9,3.2c0.2,0.4,0.8,2.1,1.5,3.4
					c0.4,1.3,1.5,5,1.5,5s3.2-3.2,3.2-6.9C627.3,128,628.5,126.1,627.1,124.2z"/>
				<path fill="#FFA177" d="M611.9,137.3c0,0,1.1-4,3.8-3.2c2.1,0.6,2.3,3.4,2.3,3.4s-0.6,1.1-2.3,1.7c-0.4,0.2-1.5,0.2-2.1-0.2
					C612.6,138.3,611.9,137.3,611.9,137.3z"/>
				<path fill="#FFA177" d="M606.9,134.7c0,0,0.4,0.6,1.5,0.6c0.2-0.8,0.6-2.3,0.2-4.2c-0.2-0.8-0.6-1.5-1.3-1.3
					c-0.4,0.2-0.4,1.1-0.4,1.1V134.7z"/>
				<path fill="#ED7854" d="M612.6,137.1c0,0,0.8-2.9,3.2-2.3c1.9,0.6,1.7,2.5,1.7,2.5s-1.1,1.1-2.5,1.1
					C613.2,138.5,612.6,137.1,612.6,137.1z"/>
				<path fill="#ED7854" d="M608.1,134.7c0,0,0.2-1.5,0-2.7c-0.2-0.8-0.8-1.5-0.8-1.5s-1.5,1.9-0.8,3.4
					C606.9,135,608.1,134.7,608.1,134.7z"/>
				<path fill="#FFA177" d="M613.6,137.5c0,0,1.1,0.6,2.1-0.2c0.6-0.4,0.4-1.5,0.4-1.5s1.1,1.3,0,2.1
					C614.7,139.2,613.6,137.5,613.6,137.5z"/>
				<path fill="#843845" d="M614.7,135.6c-0.8,0.6-0.8,1.7,0,2.3C614.9,137.5,615.3,136,614.7,135.6z"/>
				<path fill="#FFFFFF" d="M614.4,135.8c0.2,0.4-0.2,0.8-0.6,0.6c-0.2,0-0.2-0.2-0.2-0.2c-0.2-0.4,0.2-0.8,0.6-0.6
					C614.2,135.4,614.4,135.6,614.4,135.8z"/>
				<path fill="#FFA177" d="M607.7,132.2c0,0-0.2,1.1-0.4,1.5c-0.2,0.2-0.6,0.2-0.6,0.2s0.4,0.8,1.1,0.2
					C608.1,133.3,607.7,132.2,607.7,132.2z"/>
				<path fill="#843845" d="M607.3,131.4c-0.8,0.6-0.8,1.7,0,2.3C607.5,133.5,607.9,132,607.3,131.4z"/>
				<path fill="#FFFFFF" d="M607.5,131.6c0,0.4-0.2,0.6-0.6,0.6c-0.2,0-0.2-0.2-0.2-0.2c0-0.4,0.2-0.6,0.6-0.6
					C607.3,131.4,607.3,131.6,607.5,131.6z"/>
				<path fill="#FFA177" d="M607.9,140.2c0,0,0,1.3,0.8,2.1c1.1,1.1,3.6,1.7,3.6,1.7s-4.4,0.4-5.3-1.9c-2.5-0.6-1.3-2.9-1.3-2.9
					L607.9,140.2z"/>
				<path fill="#843845" d="M607.3,138.9c-0.8-0.2-1.3-0.2-1.3-0.2s-0.2,1.1,0,1.5c0.4,0.6,0.4,0.8,0.8,0.6c0.6-0.2,1.3-0.4,1.3-0.4
					S607.9,139.2,607.3,138.9z"/>
				<path fill="#FFA177" d="M613.2,133.1c0,0,0.8-0.2,1.7-0.4c0.4,0,1.9-0.2,1.9-0.2S614.4,130.3,613.2,133.1z"/>
				<path fill="#FFA177" d="M608.8,129.1c0,0,0.2,0.4,0.4,0.8s0.2,1.7,0.2,1.7s0.6-0.4,0.4-1.5C609.6,128.9,608.8,129.1,608.8,129.1
					z"/>
			</g>
			<g>
				<g>
					<path fill="#DED3E2" d="M589.2,76.6c1.5-0.8,3.2-0.6,4.8,0.4l62.8,35.7c3.6,2.1,6.7,7.8,6.7,12.4v52.5c-0.4-0.2-0.8,0.2-1.5,0
						v-52.5c0-4.2-2.7-9.5-5.9-11.3L593.4,78c-0.8-0.4-1.5-0.6-2.1-0.6c-0.4,0-0.8,0.2-1.3,0.4c-1.3,0.6-1.9,2.3-1.9,4.4v52.9
						c-0.4-0.2-0.8,0.2-1.5,0V82.2C586.7,79.5,587.8,77.6,589.2,76.6z"/>
				</g>
				<ellipse fill="#DED3E2" cx="662.8" cy="177.6" rx="0.6" ry="0.4"/>
				<ellipse fill="#DED3E2" cx="587.4" cy="135.2" rx="0.6" ry="0.4"/>
			</g>
			<g>
				<g>
					<path fill="#DED3E2" d="M574.5,85c1.5-0.8,3.2-0.6,4.8,0.4l62.8,35.7c3.6,2.1,6.7,7.8,6.7,12.4V186c-0.4-0.2-0.8,0.2-1.5,0
						v-52.3c0-4.2-2.7-9.5-5.9-11.3l-62.8-35.7c-0.8-0.4-1.5-0.6-2.1-0.6c-0.4,0-0.8,0.2-1.3,0.4c-1.3,0.6-1.9,2.3-1.9,4.4v52.9
						c-0.4-0.2-0.8,0.2-1.5,0V90.6C572,87.9,572.9,86,574.5,85z"/>
				</g>
				<ellipse fill="#DED3E2" cx="648.1" cy="186" rx="0.6" ry="0.4"/>
				<ellipse fill="#DED3E2" cx="572.6" cy="143.6" rx="0.6" ry="0.4"/>
			</g>
			<g>
				<path fill="#DED3E2" d="M642.2,119.4L680,97.8c0.4,0.2,0.8,0.6,1.1,0.8l-38,22.1c-3.2,1.9-5.9,6.9-5.9,11.3v52.3
					c-0.4,0.2-0.8-0.2-1.5,0v-52.5C635.7,127.2,638.6,121.5,642.2,119.4z"/>
				<ellipse fill="#DED3E2" cx="636.3" cy="184.3" rx="0.6" ry="0.4"/>
			</g>
			<g>
				<path fill="#DED3E2" d="M625.2,109.8L663,88.1c0.4,0.2,0.8,0.6,1.1,0.8L626,111c-3.2,1.9-5.9,6.9-5.9,11.3v52.3
					c-0.4,0.2-0.8-0.2-1.5,0v-52.5C618.7,117.5,621.6,111.9,625.2,109.8z"/>
				<ellipse fill="#DED3E2" cx="619.3" cy="174.7" rx="0.6" ry="0.4"/>
			</g>
			<g>
				<path fill="#DED3E2" d="M609,100.5l37.8-21.6c0.4,0.2,0.8,0.6,1.1,0.8l-38.2,22.1c-3.2,1.9-5.9,6.9-5.9,11.3v52.3
					c-0.4,0.2-0.8-0.2-1.5,0v-52.5C602.5,108.3,605.4,102.6,609,100.5z"/>
				<ellipse fill="#DED3E2" cx="603.1" cy="165.4" rx="0.6" ry="0.4"/>
			</g>
			<g>
				<path fill="#DED3E2" d="M592.6,91.3l37.8-21.6c0.4,0.2,0.8,0.6,1.1,0.8l-38.2,21.8c-3.2,1.9-5.9,6.9-5.9,11.3V156
					c-0.4,0.2-0.8-0.2-1.5,0v-52.5C585.9,98.8,588.8,93.4,592.6,91.3z"/>
				<ellipse fill="#DED3E2" cx="586.5" cy="156.2" rx="0.6" ry="0.4"/>
			</g>
			<g>
				<g>
					<path fill="#DED3E2" d="M603.5,68.6c1.5-0.8,3.2-0.6,4.8,0.4l62.8,35.7c3.6,2.1,6.7,7.8,6.7,12.4v52.5c-0.4-0.2-0.8,0.2-1.5,0
						v-52.5c0-4.2-2.7-9.5-5.9-11.3L607.7,70c-0.8-0.4-1.5-0.6-2.1-0.6c-0.4,0-0.8,0.2-1.3,0.4c-1.3,0.6-1.9,2.3-1.9,4.4V127
						c-0.4-0.2-0.8,0.2-1.5,0V74C601,71.5,601.8,69.4,603.5,68.6z"/>
				</g>
				<ellipse fill="#DED3E2" cx="677" cy="169.6" rx="0.6" ry="0.4"/>
				<ellipse fill="#DED3E2" cx="601.6" cy="127" rx="0.6" ry="0.4"/>
			</g>
			<g>
				<g>
					<path fill="#DED3E2" d="M615.7,61c1.5-0.8,3.2-0.6,4.8,0.4l62.8,35.7c3.6,2.1,6.7,7.8,6.7,12.4v52.5c-0.4-0.2-0.8,0.2-1.5,0
						v-52.5c0-4.2-2.7-9.5-5.9-11.3l-62.8-35.7c-0.8-0.4-1.5-0.6-2.1-0.6c-0.4,0-0.8,0.2-1.3,0.4c-1.3,0.6-1.9,2.3-1.9,4.4v52.9
						c-0.4-0.2-0.8,0.2-1.5,0V66.7C613,64,614,61.9,615.7,61z"/>
				</g>
				<ellipse fill="#DED3E2" cx="689" cy="162.1" rx="0.6" ry="0.4"/>
				<ellipse fill="#DED3E2" cx="613.8" cy="119.6" rx="0.6" ry="0.4"/>
			</g>
		</g>
	</g>
	<g>
		<polygon fill="#9480A0" points="823.5,231.8 759.2,195 759.2,198.6 823.5,235.2 		"/>
		<polygon fill="#9480A0" points="823.5,246.1 759.2,209.3 759.2,212.9 823.5,249.4 		"/>
		<g>
			<g>
				<polygon fill="#9480A0" points="723.1,190.6 723.1,280.3 726.6,280.1 726.6,190.6 				"/>
			</g>
			<ellipse fill="#9480A0" cx="724.9" cy="280.1" rx="1.7" ry="0.8"/>
		</g>
		<g>
			<g>
				<polygon fill="#9480A0" points="786.1,220.2 786.1,315.4 789.6,315.2 789.6,220.2 				"/>
			</g>
			<ellipse fill="#9480A0" cx="788" cy="315.2" rx="1.7" ry="0.8"/>
		</g>
		<g>
			<g>
				<polygon fill="#9480A0" points="757.5,183.5 757.5,261.2 760.9,261 760.9,183.5 				"/>
			</g>
			<ellipse fill="#9480A0" cx="759.2" cy="261" rx="1.7" ry="0.8"/>
		</g>
		<g>
			<g>
				<polygon fill="#9480A0" points="820.3,204.9 820.3,296.5 823.9,296.3 823.9,204.9 				"/>
			</g>
			<ellipse fill="#9480A0" cx="822.2" cy="296.3" rx="1.7" ry="0.8"/>
		</g>
		<g>
			<path fill="#C4B5CA" d="M778.5,229.7l-59.2-33.6c-5.7-3.4-5-9,1.7-12.8l23.5-13.4c6.7-3.8,16.8-4.2,22.5-0.8l59.2,33.6
				c5.7,3.4,5,9-1.7,12.8L801,228.9C794.3,232.6,784.2,233.1,778.5,229.7z"/>
			<rect x="715.3" y="187.1" fill="#C4B5CA" width="11.8" height="3.6"/>
			<rect x="816.1" y="203.9" fill="#F2EDF4" width="13.9" height="4.8"/>
			<path fill="#F2EDF4" d="M778.5,226.1l-59.2-33.6c-5.7-3.4-5-9,1.7-12.8l23.5-13.4c6.7-3.8,16.8-4.2,22.5-0.8l59.2,33.6
				c5.7,3.4,5,9-1.7,12.8L801,225.3C794.3,228.9,784.2,229.3,778.5,226.1z"/>
		</g>
		<g>
			<polygon fill="#AE9CB7" points="752.7,175.1 739.4,182.6 730.6,177.4 743.6,170 			"/>
			<polygon fill="#9480A0" points="730.6,177.4 730.6,178.9 739.4,184.1 739.4,182.6 			"/>
			<polygon fill="#7D678C" points="752.7,175.1 752.7,176.6 739.4,184.1 739.4,182.6 			"/>
		</g>
		<g>
			<g>
				<path fill="#9480A0" d="M776.8,96.5l-26-14.7C744.3,78,739,82,739,90.6v85.9l3.4-0.2V92.5c0-6.1,3.8-9,8.4-6.3l24.4,13.9
					L776.8,96.5z"/>
			</g>
			<ellipse fill="#9480A0" cx="740.7" cy="176.3" rx="1.7" ry="0.8"/>
		</g>
		<polygon fill="#9480A0" points="789,250.7 724.7,214.2 724.7,217.5 789,254.3 		"/>
		<polygon fill="#9480A0" points="822.8,282 787.5,302.2 787.5,305.5 822.8,285.6 		"/>
		<polygon fill="#9480A0" points="760.2,245.9 724.9,266 724.9,269.4 760.2,249.4 		"/>
		<polygon fill="#9480A0" points="789,265 724.7,228.4 724.7,231.8 789,268.6 		"/>
		<path fill="#AE9CB7" d="M777.5,97.8c0,1.1-0.6,2.1-1.5,2.3s-1.3-0.2-1.3-1.3c0-1.1,0.6-2.1,1.5-2.3
			C776.8,96.3,777.5,96.9,777.5,97.8z"/>
	</g>
	<g>
		<g>
			<polygon fill="#722D3B" points="813.4,346.7 813.4,114 878.5,77 878.5,309.9 			"/>
			<polygon fill="#843845" points="813.4,114 809.4,111.9 809.4,344.6 813.4,346.7 			"/>
		</g>
		<polygon fill="#F2EDF4" points="813.4,269.8 878.5,232.6 973.7,286.6 909.2,324.4 		"/>
		<g>
			<path fill="#EA4458" d="M837.5,260.4c-1.3,0-2.1-0.4-2.3-1.1v8.6c0,1.3,1.1,2.1,2.3,2.1c1.3,0,2.3-1.1,2.3-2.1v-8.6
				C839.6,259.9,838.6,260.4,837.5,260.4z"/>
			<path fill="#EA4458" d="M844.1,256.8c-1.3,0-2.1-0.4-2.3-1.1v8.6c0,1.3,1.1,2.1,2.3,2.1c1.3,0,2.3-1.1,2.3-2.1v-8.6
				C846.2,256.2,845.3,256.8,844.1,256.8z"/>
			<path fill="#EA4458" d="M850.4,253.2c-1.3,0-2.1-0.4-2.3-1.1v8.6c0,1.3,1.1,2.1,2.3,2.1c1.3,0,2.3-1.1,2.3-2.1v-8.6
				C852.5,252.8,851.6,253.2,850.4,253.2z"/>
			<g>
				<path fill="#5974BB" d="M863.8,258.3l-8.4-4.8c0,0-1.1-3.2,1.9-3.6c2.9-0.4,5.3,0.2,5.9,0.6c0.6,0.4,1.1,0.6,1.1,2.5
					C864.2,254.9,863.8,258.3,863.8,258.3z"/>
				<path fill="#7490D1" d="M824.7,270.9l8.4,4.6c0,0,0-6.1,0.4-7.1s0.4-2.1,3.8-4c3.4-1.9,25.8-14.3,25.8-14.3l-8.4-4.6
					c0,0-2.3,0.4-4.8,2.3c-2.5,1.7-19.5,11.1-21.2,11.8c-1.5,0.6-3.4,2.5-3.6,4C824.9,265,824.7,270.9,824.7,270.9z"/>
				<g>
					<path fill="#464D8E" d="M862.7,250.7c0.2,0,0.4,0,0.4,0.2c0.4,0.2,0.6,0.8,0.6,1.5v5.9l0.6-0.2v-5.7c0-1.1-0.4-1.7-0.8-2.1
						c-0.4-0.2-1.1-0.2-1.7,0.2l-26.3,14.7c-1.3,0.8-2.5,2.7-2.5,4.4v5.9l0.6-0.2v-5.7c0-1.5,1.1-3.4,2.1-4l26.3-14.7
						C862.3,250.7,862.5,250.7,862.7,250.7z"/>
				</g>
			</g>
			<g>
				<path fill="#F2EDF4" d="M837.5,253.6c1.3,0,2.1,0.4,2.3,1.1v-6.9c0-1.3-1.1-2.1-2.3-2.1c-1.3,0-2.3,1.1-2.3,2.1v6.9
					C835.4,254.1,836.3,253.6,837.5,253.6z"/>
				<g>
					<path fill="#F7515E" d="M837.5,256c1.3,0,2.1-0.4,2.3-1.1v-0.2c0-0.6-1.1-1.1-2.3-1.1c-1.3,0-2.1,0.4-2.3,1.1v0.2
						C835.4,255.5,836.3,256,837.5,256z"/>
					<path fill="#EA4458" d="M837.5,256c1.3,0,2.1-0.4,2.3-1.1v4.2v0.2c0,0.6-1.1,1.1-2.3,1.1c-1.3,0-2.1-0.4-2.3-1.1v-0.2v-4.2
						C835.4,255.5,836.3,256,837.5,256z"/>
				</g>
				<g>
					<ellipse fill="#DED3E2" cx="837.5" cy="246.9" rx="3.4" ry="1.9"/>
					<rect x="834.2" y="246.1" fill="#DED3E2" width="6.7" height="0.8"/>
					<ellipse fill="#F4F4F4" cx="837.5" cy="245.9" rx="3.4" ry="1.9"/>
					<ellipse fill="#AE9CB7" cx="837.5" cy="245.9" rx="2.3" ry="1.3"/>
				</g>
			</g>
			<g>
				<path fill="#F2EDF4" d="M844.1,249.9c1.3,0,2.1,0.4,2.3,1.1V244c0-1.3-1.1-2.1-2.3-2.1c-1.3,0-2.3,1.1-2.3,2.1v6.9
					C842,250.3,843,249.9,844.1,249.9z"/>
				<g>
					<path fill="#F7515E" d="M844.1,252.2c1.3,0,2.1-0.4,2.3-1.1v-0.2c0-0.6-1.1-1.1-2.3-1.1c-1.3,0-2.1,0.4-2.3,1.1v0.2
						C842,251.8,843,252.2,844.1,252.2z"/>
					<path fill="#EA4458" d="M844.1,252.2c1.3,0,2.1-0.4,2.3-1.1v4.2v0.2c0,0.6-1.1,1.1-2.3,1.1c-1.3,0-2.1-0.4-2.3-1.1v-0.2v-4.2
						C842,251.8,843,252.2,844.1,252.2z"/>
				</g>
				<g>
					<ellipse fill="#DED3E2" cx="844.1" cy="243.4" rx="3.4" ry="1.9"/>
					<rect x="840.9" y="242.3" fill="#DED3E2" width="6.7" height="0.8"/>
					<ellipse fill="#F4F4F4" cx="844.1" cy="242.3" rx="3.4" ry="1.9"/>
					<ellipse fill="#AE9CB7" cx="844.1" cy="242.1" rx="2.3" ry="1.3"/>
				</g>
			</g>
			<g>
				<path fill="#F2EDF4" d="M850.4,246.3c1.3,0,2.1,0.4,2.3,1.1v-6.9c0-1.3-1.1-2.1-2.3-2.1c-1.3,0-2.3,1.1-2.3,2.1v6.9
					C848.3,246.9,849.1,246.3,850.4,246.3z"/>
				<g>
					<path fill="#F7515E" d="M850.4,248.8c1.3,0,2.1-0.4,2.3-1.1v-0.2c0-0.6-1.1-1.1-2.3-1.1c-1.3,0-2.1,0.4-2.3,1.1v0.2
						C848.3,248.2,849.1,248.8,850.4,248.8z"/>
					<path fill="#EA4458" d="M850.4,248.8c1.3,0,2.1-0.4,2.3-1.1v4.2v0.2c0,0.6-1.1,1.1-2.3,1.1c-1.3,0-2.1-0.4-2.3-1.1V252v-4.2
						C848.3,248.2,849.1,248.8,850.4,248.8z"/>
				</g>
				<g>
					<ellipse fill="#DED3E2" cx="850.4" cy="239.8" rx="3.4" ry="1.9"/>
					<rect x="847" y="238.9" fill="#DED3E2" width="6.7" height="0.8"/>
					<ellipse fill="#F4F4F4" cx="850.4" cy="238.7" rx="3.4" ry="1.9"/>
					<ellipse fill="#AE9CB7" cx="850.4" cy="238.5" rx="2.3" ry="1.3"/>
				</g>
			</g>
		</g>
		<g>
			<path fill="#EA4458" d="M853.5,269c-1.3,0-2.1-0.4-2.3-1.1v8.6c0,1.3,1.1,2.1,2.3,2.1c1.3,0,2.3-1.1,2.3-2.1v-8.6
				C855.6,268.6,854.6,269,853.5,269z"/>
			<path fill="#EA4458" d="M860,265.4c-1.3,0-2.1-0.4-2.3-1.1v8.6c0,1.3,1.1,2.1,2.3,2.1c1.3,0,2.3-1.1,2.3-2.1v-8.6
				C862.1,264.8,861.3,265.4,860,265.4z"/>
			<path fill="#EA4458" d="M866.3,261.8c-1.3,0-2.1-0.4-2.3-1.1v8.6c0,1.3,1.1,2.1,2.3,2.1c1.3,0,2.3-1.1,2.3-2.1v-8.6
				C868.4,261.4,867.6,261.8,866.3,261.8z"/>
			<g>
				<path fill="#5974BB" d="M879.8,266.9l-8.4-4.8c0,0-1.1-3.2,1.9-3.6c2.9-0.4,5.3,0.2,5.9,0.6c0.6,0.4,1.1,0.6,1.1,2.5
					C880,263.5,879.8,266.9,879.8,266.9z"/>
				<path fill="#7490D1" d="M840.7,279.5l8.4,4.6c0,0,0-6.1,0.4-7.1c0.4-1.1,0.4-2.1,3.8-4s25.8-14.3,25.8-14.3l-8.4-4.6
					c0,0-2.3,0.4-4.8,2.3c-2.5,1.7-19.5,11.1-21.2,11.8c-1.5,0.6-3.4,2.5-3.6,4C840.9,273.6,840.7,279.5,840.7,279.5z"/>
				<g>
					<path fill="#464D8E" d="M878.7,259.3c0.2,0,0.4,0,0.4,0.2c0.4,0.2,0.6,0.8,0.6,1.5v5.9l0.6-0.2V261c0-1.1-0.4-1.7-0.8-2.1
						c-0.4-0.2-1.1-0.2-1.7,0.2l-26.3,14.7c-1.3,0.8-2.5,2.7-2.5,4.4v5.9l0.6-0.2v-5.7c0-1.5,1.1-3.4,2.1-4l26.3-14.7
						C878.1,259.3,878.5,259.3,878.7,259.3z"/>
				</g>
			</g>
			<g>
				<path fill="#F2EDF4" d="M853.5,262.3c1.3,0,2.1,0.4,2.3,1.1v-6.9c0-1.3-1.1-2.1-2.3-2.1c-1.3,0-2.3,1.1-2.3,2.1v6.9
					C851.2,262.7,852.2,262.3,853.5,262.3z"/>
				<g>
					<path fill="#F7515E" d="M853.5,264.6c1.3,0,2.1-0.4,2.3-1.1v-0.2c0-0.6-1.1-1.1-2.3-1.1c-1.3,0-2.1,0.4-2.3,1.1v0.2
						C851.2,264.1,852.2,264.6,853.5,264.6z"/>
					<path fill="#EA4458" d="M853.5,264.6c1.3,0,2.1-0.4,2.3-1.1v4.2v0.2c0,0.6-1.1,1.1-2.3,1.1c-1.3,0-2.1-0.4-2.3-1.1v-0.2v-4.2
						C851.2,264.1,852.2,264.6,853.5,264.6z"/>
				</g>
				<g>
					<ellipse fill="#DED3E2" cx="853.5" cy="255.5" rx="3.4" ry="1.9"/>
					<rect x="850.1" y="254.7" fill="#DED3E2" width="6.7" height="0.8"/>
					<ellipse fill="#F4F4F4" cx="853.5" cy="254.5" rx="3.4" ry="1.9"/>
					<ellipse fill="#AE9CB7" cx="853.5" cy="254.5" rx="2.3" ry="1.3"/>
				</g>
			</g>
			<g>
				<path fill="#F2EDF4" d="M860,258.5c1.3,0,2.1,0.4,2.3,1.1v-6.9c0-1.3-1.1-2.1-2.3-2.1c-1.3,0-2.3,1.1-2.3,2.1v6.9
					C857.9,258.9,858.8,258.5,860,258.5z"/>
				<g>
					<path fill="#F7515E" d="M860,260.8c1.3,0,2.1-0.4,2.3-1.1v-0.2c0-0.6-1.1-1.1-2.3-1.1c-1.3,0-2.1,0.4-2.3,1.1v0.2
						C857.9,260.4,858.8,260.8,860,260.8z"/>
					<path fill="#EA4458" d="M860,260.8c1.3,0,2.1-0.4,2.3-1.1v4.2v0.2c0,0.6-1.1,1.1-2.3,1.1c-1.3,0-2.1-0.4-2.3-1.1v-0.2v-4.2
						C857.9,260.4,858.8,260.8,860,260.8z"/>
				</g>
				<g>
					<ellipse fill="#DED3E2" cx="860" cy="252" rx="3.4" ry="1.9"/>
					<rect x="856.9" y="250.9" fill="#DED3E2" width="6.7" height="0.8"/>
					<ellipse fill="#F4F4F4" cx="860" cy="250.9" rx="3.4" ry="1.9"/>
					<ellipse fill="#AE9CB7" cx="860" cy="250.7" rx="2.3" ry="1.3"/>
				</g>
			</g>
			<g>
				<path fill="#F2EDF4" d="M866.3,254.9c1.3,0,2.1,0.4,2.3,1.1V249c0-1.3-1.1-2.1-2.3-2.1c-1.3,0-2.3,1.1-2.3,2.1v6.9
					C864.2,255.5,865.1,254.9,866.3,254.9z"/>
				<g>
					<path fill="#F7515E" d="M866.3,257.4c1.3,0,2.1-0.4,2.3-1.1v-0.2c0-0.6-1.1-1.1-2.3-1.1c-1.3,0-2.1,0.4-2.3,1.1v0.2
						C864.2,256.8,865.1,257.4,866.3,257.4z"/>
					<path fill="#EA4458" d="M866.3,257.4c1.3,0,2.1-0.4,2.3-1.1v4.2v0.2c0,0.6-1.1,1.1-2.3,1.1c-1.3,0-2.1-0.4-2.3-1.1v-0.2v-4.2
						C864.2,256.8,865.1,257.4,866.3,257.4z"/>
				</g>
				<g>
					<ellipse fill="#DED3E2" cx="866.3" cy="248.4" rx="3.4" ry="1.9"/>
					<rect x="863" y="247.6" fill="#DED3E2" width="6.7" height="0.8"/>
					<ellipse fill="#F4F4F4" cx="866.3" cy="247.3" rx="3.4" ry="1.9"/>
					<ellipse fill="#AE9CB7" cx="866.3" cy="247.1" rx="2.3" ry="1.3"/>
				</g>
			</g>
		</g>
		<polygon fill="#F2EDF4" points="813.4,218.6 878.5,181.4 973.7,235.4 909.2,273.2 		"/>
		<polygon fill="#843845" points="811.3,345.7 911.9,403 911.3,325.5 811.3,268.8 		"/>
		<polygon fill="#F2EDF4" points="861.7,302 814.9,275.3 814.9,342.1 861.7,368.8 		"/>
		<polygon fill="#F2EDF4" points="908.1,328.4 861.3,301.8 861.3,368.3 908.1,395 		"/>
		<polygon fill="#843845" points="860.4,301.3 860.4,367.9 861.9,368.8 861.9,302.2 		"/>
		<path fill="#843845" d="M867.8,349.4L867.8,349.4c-0.6-0.4-1.3-1.5-1.3-2.3v-18.7c0-0.8,0.6-1.3,1.3-1.1l0,0
			c0.6,0.4,1.3,1.5,1.3,2.3v18.7C869,349.4,868.4,349.9,867.8,349.4z"/>
		<path fill="#843845" d="M854.8,341.9L854.8,341.9c-0.6-0.4-1.3-1.5-1.3-2.3v-18.7c0-0.8,0.6-1.3,1.3-1.1l0,0
			c0.6,0.4,1.3,1.5,1.3,2.3v18.7C856,341.9,855.4,342.3,854.8,341.9z"/>
		<polygon fill="#843845" points="811.9,217.7 811.3,222.3 910,278.4 910.4,274 		"/>
		<g>
			<polygon fill="#5974BB" points="899.5,222.3 889.6,216.9 889.6,258.5 899.5,264.1 			"/>
			<polygon fill="#FFFFFF" points="896.6,229.3 892.6,227.2 892.6,249.4 896.6,251.8 			"/>
			<polygon fill="#FFFFFF" points="899.5,224.4 889.6,219 889.6,221.9 899.5,227.6 			"/>
			<path fill="#843845" d="M896.6,256.8c0,1.5-0.8,2.1-1.9,1.5c-1.1-0.6-1.9-2.3-1.9-3.6s0.8-2.1,1.9-1.5
				C895.7,253.9,896.6,255.3,896.6,256.8z"/>
			<polygon fill="#464D8E" points="899.5,222.3 899.5,264.1 931.4,246.1 931.4,204.3 			"/>
			<g>
				<polygon fill="#7490D1" points="929.8,203.4 899.3,220.7 892.4,216.9 922.6,199.4 921.6,198.8 889.6,216.9 899.5,222.3 
					931.4,204.3 				"/>
				<polygon fill="#FFFFFF" points="899.3,220.7 929.8,203.4 922.6,199.4 892.4,216.9 				"/>
			</g>
		</g>
		<g>
			<polygon fill="#5974BB" points="827.5,182.2 817.4,176.8 817.4,218.4 827.5,224 			"/>
			<polygon fill="#FFFFFF" points="824.3,189.2 820.5,187.1 820.5,209.3 824.3,211.4 			"/>
			<polygon fill="#FFFFFF" points="827.5,184.3 817.4,178.9 817.4,181.8 827.5,187.5 			"/>
			<path fill="#843845" d="M824.3,216.7c0,1.5-0.8,2.1-1.9,1.5c-1.1-0.6-1.9-2.3-1.9-3.6s0.8-2.1,1.9-1.5
				C823.5,213.5,824.3,215.2,824.3,216.7z"/>
			<polygon fill="#464D8E" points="827.5,182.2 827.5,224 859.2,206 859.2,164.2 			"/>
			<g>
				<polygon fill="#7490D1" points="857.7,163.3 827.2,180.5 820.1,176.6 850.6,159.1 849.5,158.7 817.4,176.8 827.5,182.2 
					859.2,164.2 				"/>
				<polygon fill="#FFFFFF" points="827.2,180.5 857.7,163.3 850.6,159.1 820.1,176.6 				"/>
			</g>
		</g>
		<g>
			<polygon fill="#5974BB" points="840.5,189.6 830.4,184.1 830.4,225.9 840.5,231.6 			"/>
			<polygon fill="#FFFFFF" points="837.3,196.5 833.5,194.4 833.5,216.7 837.3,219 			"/>
			<polygon fill="#FFFFFF" points="840.5,191.9 830.4,186.2 830.4,189.4 840.5,194.8 			"/>
			<path fill="#843845" d="M837.3,224.2c0,1.5-0.8,2.1-1.9,1.5s-1.9-2.3-1.9-3.6c0-1.5,0.8-2.1,1.9-1.5
				C836.5,221.1,837.3,222.8,837.3,224.2z"/>
			<polygon fill="#464D8E" points="840.5,189.6 840.5,231.6 872.2,213.5 872.2,171.5 			"/>
			<g>
				<polygon fill="#7490D1" points="870.7,170.7 840.3,188.1 833.1,184.1 863.6,166.7 862.5,166 830.4,184.1 840.5,189.6 
					872.2,171.5 				"/>
				<polygon fill="#FFFFFF" points="840.3,188.1 870.7,170.7 863.6,166.7 833.1,184.1 				"/>
			</g>
		</g>
		<g>
			<polygon fill="#F7515E" points="853.7,196.7 843.6,191.3 843.6,233.1 853.7,238.7 			"/>
			<polygon fill="#FFFFFF" points="850.6,203.9 846.8,201.5 846.8,224 850.6,226.1 			"/>
			<polygon fill="#FFFFFF" points="853.7,199 843.6,193.6 843.6,196.5 853.7,202 			"/>
			<path fill="#843845" d="M850.6,231.4c0,1.5-0.8,2.1-1.9,1.5c-1.1-0.6-1.9-2.3-1.9-3.6c0-1.3,0.8-2.1,1.9-1.5
				C849.7,228.2,850.6,229.9,850.6,231.4z"/>
			<polygon fill="#EA4458" points="853.7,196.7 853.7,238.7 885.4,220.7 885.4,178.7 			"/>
			<g>
				<polygon fill="#FF7687" points="884,177.8 853.5,195.2 846.4,191.3 876.8,173.8 875.8,173.2 843.6,191.3 853.7,196.7 
					885.4,178.7 				"/>
				<polygon fill="#FFFFFF" points="853.5,195.2 884,177.8 876.8,173.8 846.4,191.3 				"/>
			</g>
		</g>
		<polygon fill="#F2EDF4" points="813.4,165 878.5,127.6 973.7,181.8 909.2,219.4 		"/>
		<g>
			<polygon fill="#7490D1" points="844.5,173.2 878.3,154.1 856,141.5 822.2,160.6 			"/>
			<polygon fill="#464D8E" points="844.7,170.7 873.9,154.1 868.8,151.3 839.6,167.9 			"/>
			<polygon fill="#FFFFFF" points="844.9,169 871.1,154.1 869.3,152.8 842.8,167.9 			"/>
			<polygon fill="#464D8E" points="853.5,157.2 866.3,149.9 856.4,144.6 843.6,151.8 			"/>
			<polygon fill="#464D8E" points="844.5,175.3 878.3,156.2 878.3,154.1 844.5,173.2 			"/>
			<polygon fill="#5974BB" points="822.2,160.6 844.5,173.2 844.5,175.3 822.2,162.7 			"/>
		</g>
		<g>
			<polygon fill="#7490D1" points="844.5,170.2 878.3,151.1 856,138.3 822.2,157.6 			"/>
			<polygon fill="#464D8E" points="844.7,167.7 873.9,151.1 868.8,148.2 839.6,165 			"/>
			<polygon fill="#FFFFFF" points="844.9,166 871.1,150.9 869.3,149.9 842.8,165 			"/>
			<polygon fill="#464D8E" points="853.5,154.1 866.3,146.9 856.4,141.5 843.6,148.8 			"/>
			<polygon fill="#464D8E" points="844.5,172.4 878.3,153 878.3,151.1 844.5,170.2 			"/>
			<polygon fill="#5974BB" points="822.2,157.6 844.5,170.2 844.5,172.4 822.2,159.5 			"/>
		</g>
		<g>
			<polygon fill="#7490D1" points="844.5,167.1 878.3,148 856,135.2 822.2,154.5 			"/>
			<polygon fill="#464D8E" points="844.7,164.6 873.9,148 868.8,145 839.6,161.6 			"/>
			<polygon fill="#FFFFFF" points="844.9,162.9 871.1,147.8 869.3,146.7 842.8,161.8 			"/>
			<polygon fill="#464D8E" points="853.5,150.9 866.3,143.8 856.4,138.3 843.6,145.7 			"/>
			<polygon fill="#464D8E" points="844.5,169 878.3,149.9 878.3,148 844.5,167.1 			"/>
			<polygon fill="#5974BB" points="822.2,154.5 844.5,167.1 844.5,169 822.2,156.4 			"/>
		</g>
		<g>
			<polygon fill="#7490D1" points="844.5,163.7 878.3,144.4 856,131.8 822.2,150.9 			"/>
			<polygon fill="#464D8E" points="844.7,161 873.9,144.4 868.8,141.7 839.6,158.3 			"/>
			<polygon fill="#FFFFFF" points="844.9,159.5 871.1,144.4 869.3,143.4 842.8,158.3 			"/>
			<polygon fill="#464D8E" points="853.5,147.6 866.3,140.2 856.4,135 843.6,142.1 			"/>
			<polygon fill="#464D8E" points="844.5,165.6 878.3,146.5 878.3,144.4 844.5,163.7 			"/>
			<polygon fill="#5974BB" points="822.2,150.9 844.5,163.7 844.5,165.6 822.2,153 			"/>
		</g>
		<g>
			<polygon fill="#7490D1" points="844.5,160.6 878.3,141.5 856,128.9 822.2,148 			"/>
			<polygon fill="#464D8E" points="844.7,158.1 873.9,141.5 868.8,138.7 839.6,155.3 			"/>
			<polygon fill="#FFFFFF" points="844.9,156.4 871.1,141.3 869.3,140.2 842.8,155.3 			"/>
			<polygon fill="#464D8E" points="853.5,144.6 866.3,137.3 856.4,131.8 843.6,139.2 			"/>
			<polygon fill="#464D8E" points="844.5,162.7 878.3,143.4 878.3,141.5 844.5,160.6 			"/>
			<polygon fill="#5974BB" points="822.2,148 844.5,160.6 844.5,162.7 822.2,150.1 			"/>
		</g>
		<g>
			<polygon fill="#7490D1" points="844.5,157.4 878.3,138.3 856,125.5 822.2,144.8 			"/>
			<polygon fill="#464D8E" points="844.7,154.9 873.9,138.3 868.8,135.4 839.6,152.2 			"/>
			<polygon fill="#FFFFFF" points="844.9,153.2 871.1,138.1 869.3,137.1 842.8,152.2 			"/>
			<polygon fill="#464D8E" points="853.5,141.3 866.3,134.1 856.4,128.7 843.6,136 			"/>
			<polygon fill="#464D8E" points="844.5,159.5 878.3,140.2 878.3,138.3 844.5,157.4 			"/>
			<polygon fill="#5974BB" points="822.2,144.8 844.5,157.4 844.5,159.5 822.2,146.7 			"/>
		</g>
		<polygon fill="#843845" points="811.9,163.9 811.3,168.6 910,224.9 910.4,220.2 		"/>
		<polygon fill="#F2EDF4" points="809.4,111.9 873.9,74.5 978.3,133.5 913.2,170.9 		"/>
		<polygon fill="#843845" points="811.9,113.3 811.3,117.9 910,174 910.4,169.6 		"/>
		<g>
			<polygon fill="#722D3B" points="913.2,403.6 913.2,170.9 978.3,133.5 978.3,366.9 			"/>
			<polygon fill="#843845" points="913.2,170.9 909.2,168.8 909.2,401.5 913.2,403.6 			"/>
		</g>
	</g>
	<g>
		<g>
			<g>
				<g>
					<path fill="#FFC5B3" d="M432.1,304.9c0,0-2.1-1.9-3.2-6.7c-0.4-2.5,0-5.7,0-5.7l-10.9-2.1c0,0-0.4,6.3-1.3,9
						c-0.8,2.7,2.1,9.2,5.7,9.2C426.2,308.7,432.1,304.9,432.1,304.9z"/>
					<path fill="#AE9CB7" d="M430.4,302.2c0,0,3.8,5.5,7.1,9c3.8,4.2,5.5,5.3,6.3,7.6c0.8,2.3-3.4,7.8-10.7,3.6s-8.8-5.5-11.1-7.8
						c-3.2-2.9-6.7-4.8-7.1-9.2c-0.4-3.6,2.5-5.9,2.5-5.9s0.6,2.5,5,5C425.6,306.4,430.4,302.2,430.4,302.2z"/>
					<path fill="#9480A0" d="M443.9,318.8c0,0-4.8,2.9-5.5,3.4c-4.2,1.9-8.4-2.5-12.4-5.3c-4-2.7-6.5-5.5-8.2-8.4s-3.2-4.2-3.2-4.2
						s-2.5,5.7,1.1,7.8c4.2,2.5,10.9,7.4,13,8.6c1.7,1.1,9.9,7.1,14.5,2.5C444.3,321.7,444.3,320.7,443.9,318.8z"/>
					<path fill="#9480A0" d="M433.2,306c0,0-1.9,0.6-3.8,2.7c-1.5,1.7-2.3,2.9-2.3,2.9l1.5,1.1c0,0,2.5-2.5,3.8-3.8
						c0.4-0.4,2.1-1.5,2.1-1.5L433.2,306z"/>
					<path fill="#9480A0" d="M435.9,309.5c0,0-1.9,0.8-3.8,2.7c-1.5,1.7-1.9,2.3-1.9,2.3l1.3,1.5c0,0,2.1-2.3,3.4-3.6
						c0.4-0.4,2.3-1.5,2.3-1.5L435.9,309.5z"/>
				</g>
				<g>
					<path fill="#FFC5B3" d="M390.7,328.6c0,0-2.1-1.9-3.2-6.7c-0.4-2.5,0-5.7,0-5.7l-10.9-2.1c0,0-0.4,6.3-1.3,9
						c-0.8,2.7,2.1,9.2,5.7,9.2C384.6,332.4,390.7,328.6,390.7,328.6z"/>
					<path fill="#AE9CB7" d="M389,326.3c0,0,3.6,5,6.7,8.6c3.8,4.2,5.5,5.3,6.3,7.6s-3.4,7.8-10.7,3.6c-7.4-4.2-8.8-5.5-11.1-7.8
						c-3.2-2.9-6.7-4.8-7.1-9.2c-0.4-3.6,2.5-5.9,2.5-5.9s0.6,2.5,5,5C383.8,330.1,389,326.3,389,326.3z"/>
					<path fill="#9480A0" d="M402.1,342.5c0,0-4.8,2.9-5.5,3.4c-4.2,1.9-8.4-2.5-12.4-5.3c-4-2.7-6.5-5.5-8.2-8.4
						c-1.7-2.9-3.2-4.2-3.2-4.2s-2.5,5.7,1.1,7.8c4.2,2.5,10.9,7.4,13,8.6c1.7,1.1,9.9,7.1,14.5,2.5
						C402.5,345.4,402.7,344.4,402.1,342.5z"/>
					<path fill="#9480A0" d="M391.6,329.7c0,0-1.9,0.6-3.8,2.7c-1.5,1.7-2.3,2.9-2.3,2.9l1.5,1.1c0,0,2.5-2.5,3.8-3.8
						c0.4-0.4,2.1-1.5,2.1-1.5L391.6,329.7z"/>
					<path fill="#9480A0" d="M394.3,333.1c0,0-1.9,0.8-3.8,2.7c-1.5,1.7-1.9,2.3-1.9,2.3l1.3,1.5c0,0,2.1-2.3,3.4-3.6
						c0.4-0.4,2.3-1.5,2.3-1.5L394.3,333.1z"/>
				</g>
				<path fill="#EA4458" d="M377.1,214.8c-1.3-18.9,18.5-33.8,18.5-33.8c-0.8-6.3,28.8,13.7,28.8,13.7s2.1,24.4,4.8,42.4
					c3.2,20.4,3.6,61.3,3.6,61.3s-2.7,5.3-10.5,5.3c-5.9,0-10.3-5-10.3-5l-0.6-47.5l-6.9-33.6c0,0-3.4,36.1-5.3,49.8
					c-1.5,10.5-6.3,56.1-6.3,56.1s-7.1,4.2-14.7,2.9c-6.1-1.1-8-7.8-8-7.8s-0.8-29.8,8-49.4C379,254.1,377.5,223.4,377.1,214.8z"/>
			</g>
			<g>
				<path fill="#FFAB95" d="M444.1,151.6c0,0,5,6.7,15.3,16.8c-2.7,3.6-4.2,10.5-4.4,10.3c-10.5-4-21-16-21-16L444.1,151.6z"/>
				<path fill="#EA4458" d="M432.7,165c0.2,0,0.2,0,0.4,0c5.3,1.1,14.5-4.8,18.7-9c-2.9-6.1-6.7-11.1-9-15.1
					c-5-8.6-10.3-7.6-10.3-7.6C424.6,135.6,425.6,154.5,432.7,165L432.7,165z"/>
				<path fill="#F7515E" d="M435.9,137.3c0,0,7.6,5.5,4.2,22.7c-0.6,3.8-2.7,20-5.3,27.3c-2.1,6.5-4.4,12.2-4.6,16.6
					c-0.8,9.9-0.8,17.2-0.8,17.2s-22.9,9-37.4,4.2c-8.6-2.9-19.1-13.2-19.1-13.2c7.8-21.8,9-14.5,14.3-32.4
					c5-17,11.3-34.2,12.4-36.8c2.1-5,16.6-9.9,16.6-9.9S427.7,131.6,435.9,137.3z"/>
				<g>
					<path fill="#FFAB95" d="M430.4,134.1l0.8,10.7c0,0,1.1,8.8-1.1,11.1c-5.9-4.2-15.1-21.8-13.9-22.7l4.4-11.8L430.4,134.1z"/>
					<path fill="#EA4458" d="M433,137.1c0,0,1.1,7.4,0.8,13.4c0,5.3-2.5,10.5-2.5,10.5s-7.6-9.7-10.3-12.8c-3.6-4.4-9.2-13-9.2-13
						l4.6-1.9c0,0,4.6,7.6,7.8,11.8c1.5,1.9,6.1,8.2,6.1,8.2s0-4-0.2-8.8c0-4.2-1.1-10.3-1.1-10.3L433,137.1z"/>
					<path fill="#FFC5B3" d="M424.3,107.4c4.4-3.2,14.9-4.2,18.5,6.5c3.8,11.1-6.5,25-12,22.5c-2.9-1.3-9.5-6.1-11.1-12
						C417.8,117.7,420.8,110,424.3,107.4z"/>
					<path fill="#722D3B" d="M443.9,118.4c-2.9,0.6-11.6,1.1-16.4-1.9c1.1,2.1,0,4.2-0.8,6.3c0,0-1.3-2.9-3.8-2.3
						c-1.7,0.2-1.7,2.7-1.7,2.7s-1.3,4.4-3.2,6.1c-1.1-1.7-2.3-12.4-2.1-15.5c0.2-4.2,1.1-10.5,8.8-11.1c4-5.3,9.2-2.5,12.4-0.6
						c3.4,1.7,7.6,5,9.9,8.4C446.4,112.7,445.8,115.4,443.9,118.4z"/>
				</g>
				<path fill="#FFC5B3" d="M440.5,196.1c-6.1-2.1-15.5-5.7-17.2-8.2c-3.2-5.3-6.3-23.5-6.3-23.5l-16.8,1.9c0,0,2.5,8.6,5.5,14.9
					c4.4,9.2,6.1,14.9,13.4,19.1c2.9,1.7,16.8,4,22.9,6.1C444.3,204.1,444.3,197.6,440.5,196.1z"/>
				<path fill="#EA4458" d="M415.9,169.8c1.1-0.4,1.9-1.1,2.7-1.5c-0.8-5-1.9-10.5-3.8-14.7c-3.2-6.9-8.8-17-15.3-10.3
					c-5.3,5.5-4.6,14.5-1.1,27.9C404,172.8,410.9,171.9,415.9,169.8z"/>
				<polygon fill="#FFFFFF" points="435.1,158.7 440.5,157.6 440.7,154.9 434.6,156 				"/>
			</g>
		</g>
		<g>
			<g>
				<g>
					<polygon fill="#F2EDF4" points="518,266.9 530.8,259.7 579.6,287.5 566.8,294.8 					"/>
				</g>
				<polygon fill="#DED3E2" points="566.8,294.8 579.6,287.5 579.6,291 566.8,298.6 				"/>
				<polygon fill="#C4B5CA" points="567,294.8 518,266.9 518,270.5 567,298.6 				"/>
			</g>
			<g>
				<g>
					<polygon fill="#F2EDF4" points="549.7,281.8 541.6,277.2 371.8,374.2 380,378.8 					"/>
				</g>
				<polygon fill="#DED3E2" points="384,376.3 546.8,283.5 546.8,286.6 384,379.7 				"/>
			</g>
			<g>
				<g>
					<polygon fill="#F2EDF4" points="344.7,365.8 357.5,358.7 406.3,386.4 393.7,393.8 					"/>
				</g>
				<polygon fill="#DED3E2" points="393.7,393.8 406.3,386.4 406.3,390 393.7,397.5 				"/>
				<polygon fill="#C4B5CA" points="393.7,393.8 344.7,365.8 344.7,369.4 393.7,397.5 				"/>
			</g>
			<g>
				<polygon fill="#C4B5CA" points="380,309.7 380,381.8 367.2,374.4 367.2,301.3 				"/>
				<polygon fill="#DED3E2" points="384.8,309.7 384.8,379.1 380,381.8 380,309.7 				"/>
			</g>
			<g>
				<polygon fill="#C4B5CA" points="552.9,201.5 552.9,282 539.9,274.7 539.9,193.4 				"/>
				<polygon fill="#DED3E2" points="557.5,201.5 557.5,279.3 552.9,282 552.9,201.5 				"/>
			</g>
			<g>
				<polygon fill="#DED3E2" points="593.4,216.5 593.4,219.8 403.1,328.2 403.1,324.9 				"/>
				<polygon fill="#C4B5CA" points="323.9,279.7 323.9,283.1 403.1,328.2 403.1,324.9 				"/>
			</g>
			<g>
				<g>
					<path fill="#F2EDF4" d="M513.8,171.3l79.4,45.2L403.1,324.9l-79.2-45.2L513.8,171.3z M395.6,313.1c1.1,1.3,3.6,2.1,6.3,2.1
						c2.9,0,5.3-0.8,6.3-2.1c0.4-0.4,0.4-0.8,0.4-1.3c0-1.9-3.2-3.4-6.9-3.4s-6.9,1.5-6.9,3.4C394.9,312.3,395.1,312.7,395.6,313.1z
						 M377.1,302.8c1.1,1.3,3.6,2.1,6.3,2.1c2.9,0,5.3-0.8,6.3-2.1c0.4-0.4,0.4-0.8,0.4-1.3c0-1.9-3.2-3.4-6.9-3.4s-6.9,1.5-6.9,3.4
						C376.4,302,376.7,302.4,377.1,302.8z M357.5,291.2c1.1,1.3,3.6,2.1,6.3,2.1c2.9,0,5.3-0.8,6.3-2.1c0.4-0.4,0.4-0.8,0.4-1.3
						c0-1.9-3.2-3.4-6.9-3.4s-6.9,1.5-6.9,3.4C356.9,290.4,357.1,291,357.5,291.2z M345.4,283.1c2.9,0,5.3-0.8,6.3-2.1
						c0.4-0.4,0.4-0.8,0.4-1.3c0-1.9-3.2-3.4-6.9-3.4s-6.9,1.5-6.9,3.4c0,0.4,0.2,0.8,0.4,1.3C340.1,282.2,342.4,283.1,345.4,283.1z
						"/>
				</g>
				<path fill="#C4B5CA" d="M401.9,308.3c3.8,0,6.9,1.5,6.9,3.4c0,0.4-0.2,0.8-0.4,1.3c-1.1-1.3-3.6-2.1-6.3-2.1
					c-2.9,0-5.3,0.8-6.3,2.1c-0.4-0.4-0.4-0.8-0.4-1.3C394.9,309.9,398.1,308.3,401.9,308.3z"/>
				<path fill="#C4B5CA" d="M383.4,298c3.8,0,6.9,1.5,6.9,3.4c0,0.4-0.2,0.8-0.4,1.3c-1.1-1.3-3.6-2.1-6.3-2.1
					c-2.9,0-5.3,0.8-6.3,2.1c-0.4-0.4-0.4-0.8-0.4-1.3C376.4,299.4,379.6,298,383.4,298z"/>
				<path fill="#C4B5CA" d="M363.8,286.6c3.8,0,6.9,1.5,6.9,3.4c0,0.4-0.2,0.8-0.4,1.3c-1.1-1.3-3.6-2.1-6.3-2.1
					c-2.9,0-5.3,0.8-6.3,2.1c-0.4-0.4-0.4-0.8-0.4-1.3C356.9,288.1,360.1,286.6,363.8,286.6z"/>
				<path fill="#C4B5CA" d="M345.4,276.1c3.8,0,6.9,1.5,6.9,3.4c0,0.4-0.2,0.8-0.4,1.3c-1.1-1.3-3.6-2.1-6.3-2.1
					c-2.9,0-5.3,0.8-6.3,2.1c-0.4-0.4-0.4-0.8-0.4-1.3C338.4,277.8,341.6,276.1,345.4,276.1z"/>
			</g>
			<polygon fill="#DED3E2" points="422,302.2 568,219.2 564.5,217.1 418.5,300.3 			"/>
			<polygon fill="#DED3E2" points="367,271.3 513.2,188.1 509.6,186 363.4,269.2 			"/>
		</g>
		<g>
			<g>
				<path fill="#FF9A75" d="M483.6,179.7c0,0,13.9,1.7,24.6,8.4c7.1,4.4,13.7,16.4,10.9,27.3c-0.4,1.7-1.1,2.7-1.9,3.4
					c-1.1-0.2-2.9-1.1-2.9-3.6c0-3.6,2.5-9-2.3-16.4c-4.8-7.4-9-10.1-12.8-11.1c-3.8-1.1-5.3-1.1-5.3-1.1s0,0.4,0,1.1
					c-1.5-0.4-2.3-0.4-2.3-0.4L483.6,179.7z"/>
				<path fill="#ED7854" d="M499.1,187.9c3.8,1.1,9,3.2,13.2,10.7c4.4,7.6,2.3,13.2,2.3,16.6c0,2.5,1.5,3.4,2.5,3.6
					c-1.9,1.7-4.4,0.2-4-4.4c0.6-6.5-0.4-12.4-4.6-18.1c-4-5.3-10.9-7.6-14.5-8.4c0-0.6,0-1.1,0-1.1S495.3,186.8,499.1,187.9z"/>
			</g>
			<path fill="#FF9A75" d="M456.3,209.5c0,0-2.5,8.2-2.5,11.8c0,3.8-5.7,8.6-11.1,11.8c-4,2.1-7.1,2.3-7.4-1.1
				c-0.2-1.5,3.6-2.7,6.3-4.4c4.2-2.5,3.2-6.5,3.2-6.5l-3.2-10.1L456.3,209.5z"/>
			<path fill="#FF9A75" d="M467.8,215.2c0,0-2.5,8.2-2.5,11.8c0,3.8-5.7,8.6-11.1,11.8c-4,2.1-7.1,2.3-7.4-1.1
				c-0.2-1.5,3.6-2.7,6.3-4.4c4.2-2.5,3.2-6.5,3.2-6.5l-3.2-10.1L467.8,215.2z"/>
			<path fill="#FF9A75" d="M443.7,211.4c2.1-9,5.5-8.4,8-10.5c7.6-5.9,13.2-25,31.1-21.6c13,2.5,12.4,9.9,13.9,16
				c0.6,2.1-0.6,5.3-1.1,8.2c-0.4,4.8,1.3,8.2-0.8,10.7c-1.1,1.3-5,4.8-9.9,8c-4.2,2.7-4.6-3.4-2.3-4.4c4.6-2.3,7.1-6.9,7.1-6.9
				s-3.2-0.2-6.3-1.5c-2.5,1.5-5,3.4-9.9,7.4c-3.2,2.7-7.1,8.2-15.1,10.3C450.6,228.9,441.6,220.5,443.7,211.4z"/>
			<path fill="#ED7854" d="M449.3,219.4c0,0,5.5,1.1,6.5,2.5c1.1,1.5,0.8,5.3,0.8,5.3s-2.7,0.2-6.1-1.9c-3.4-2.1-4.8-4.2-4.8-4.2
				L449.3,219.4z"/>
			<path fill="#ED7854" d="M454.6,223.4c0,0,2.1-3.4,1.7-8.6c-0.4-5.5-5.9-7.1-5.9-7.1l-2.5,13.2L454.6,223.4z"/>
			<path fill="#FFC5B3" d="M440.5,196.1c0,0,4.4,0.8,5.9,1.1c6.3,0.6,10.1,1.1,11.3,1.1c1.1,0,0.6,1.1-0.4,1.5
				c-0.4,0.2-3.2,0.6-3.2,0.6s5.3,1.7,7.4,4.8c1.3,2.1,1.1,6.1-2.1,6.7c-3.2,0.6-8.8-4.4-11.6-5s-8.8-2.7-8.8-2.7L440.5,196.1z"/>
			<path fill="#FF9A75" d="M444.9,204.5c6.1,2.1,10.9,6.5,8.4,12.2c-3.2,6.9-9.7,6.9-13.4,7.4c-1.7,0.2-2.5-0.2-3.4-1.7
				c-2.1,0.6-1.5-2.5-1.9-4c-1.3-3.8-0.2-5.7,0.4-7.1C436.5,207.2,440.7,203,444.9,204.5z"/>
			<path fill="#FF9A75" d="M443.5,205.8c0,0-1.5-3.2-2.7-4.8s-3.2-1.5-3.2-1.5s-0.4,6.3,0,8C438,209.3,443.5,205.8,443.5,205.8z"/>
			<path fill="#FF9A75" d="M452.7,210.8c0,0,1.3-4,0.2-6.5c-0.6-1.5-2.1-2.3-2.1-2.3l-2.7,5.9L452.7,210.8z"/>
			<path fill="#ED7854" d="M450.6,203c0.8,0.8,1.3,2.5,1.1,4c-0.4,1.5-1.1,2.7-1.1,2.7l-2.1-1.7C448.5,208.1,450.6,203.9,450.6,203z
				"/>
			<path fill="#ED7854" d="M440.9,205.5c0,0-0.6-2.3-1.1-3.6c-0.6-1.3-1.7-1.7-1.7-1.7l0.2,5.9C438.4,206.4,439.9,205.8,440.9,205.5
				z"/>
			<path fill="#ED7854" d="M450.8,202c0,0,3.2,0.8,3.2,4.4c0,3.6,0,4.4,0,4.4l-1.3-0.8c0,0,0.4-3.6,0.2-4.8
				C452.9,204.1,450.8,202,450.8,202z"/>
			<path fill="#ED7854" d="M465.9,218.8c0,0,10.3-9.5,12.6-10.1c2.3-0.6,5,0.2,5,0.2s-3.2,2.1-4.8,3.4c-1.7,1.3-7.8,6.9-9.9,8.6
				c-2.1,1.7-3.2,2.7-3.2,2.7L465.9,218.8z"/>
			<g>
				<path fill="#ED7854" d="M440.3,217.5c0,0,0.2-3.4,2.5-3.2c1.7,0.2,2.5,2.3,2.5,2.3s-0.4,0.8-1.7,1.7c-0.2,0.2-1.3,0.4-1.7,0.2
					C440.9,218.4,440.3,217.5,440.3,217.5z"/>
				<path fill="#ED7854" d="M435.1,215.4c0,0,0.2,1.7,2.1,1.1c0-0.8,0.2-2.1-0.6-3.4c-0.4-0.6-0.8-1.3-1.3-0.8
					c-0.2,0.2-0.2,1.5-0.2,1.5L435.1,215.4z"/>
				<path fill="#FFAF73" d="M440.7,217.3c0,0,0.2-2.5,2.1-2.3c1.7,0.2,1.9,1.7,1.9,1.7s-0.6,1.1-1.9,1.3
					C441.6,218.4,440.7,217.3,440.7,217.3z"/>
				<path fill="#FFAF73" d="M436.7,216c0,0-0.2-1.3-0.4-2.3c-0.2-0.6-1.1-1.1-1.1-1.1s-0.8,1.7,0,2.9
					C435.7,216.7,436.7,216,436.7,216z"/>
				<path fill="#FF9A75" d="M441.8,217.5c0,0,0.8,0.2,1.7-0.4c0.4-0.4,0-1.3,0-1.3s1.1,0.8,0.4,1.7
					C442.8,218.8,441.8,217.5,441.8,217.5z"/>
				<path fill="#722D3B" d="M442.4,215.6c-0.6,0.4-0.6,1.5,0,2.1C442.6,217.3,443,216.3,442.4,215.6z"/>
				<path fill="#FFFFFF" d="M442.4,215.8c0.2,0.2,0,0.6-0.4,0.6c-0.2,0-0.2,0-0.4-0.2c-0.2-0.2,0-0.6,0.4-0.6
					C442.2,215.6,442.2,215.8,442.4,215.8z"/>
				<path fill="#FF9A75" d="M435.9,213.9c0,0,0,0.8-0.2,1.3c-0.2,0.2-0.4,0.2-0.4,0.2s0.4,0.6,0.8,0
					C436.5,215,435.9,213.9,435.9,213.9z"/>
				<path fill="#722D3B" d="M435.9,213.5c-0.6,0.4-0.8,1.5-0.2,2.1C435.9,215.2,436.3,214.2,435.9,213.5z"/>
				<path fill="#FFFFFF" d="M435.7,213.7c0.2,0.2,0,0.6-0.4,0.6c-0.2,0-0.2,0-0.2-0.2c-0.2-0.2,0-0.6,0.4-0.6
					C435.5,213.5,435.7,213.5,435.7,213.7z"/>
				<path fill="#ED7854" d="M437.2,220.2c0,0-0.2,1.7,1.1,2.7c0.8,0.8,4.4,0.6,4.4,0.6s-3.4,0.8-4.6,0.4c-1.1-0.4-1.7-1.5-1.7-1.5
					s-0.8,0.2-1.3-0.4c-0.4-0.4-0.4-1.5-0.4-1.5S435.5,220,437.2,220.2z"/>
			</g>
			<path fill="#722D3B" d="M436.1,219c0.4,0,1.7,0.6,2.1,0.8c0.2,0.2-0.2,0.6-0.6,0.8c-0.4,0.2-0.8,0.4-0.8,0.4s-0.6-0.4-0.8-1.1
				C435.7,219.4,435.9,219,436.1,219z"/>
			<path fill="#ED7854" d="M442.8,212.7c0,0-1.1,0.2-1.5,0.6c-0.6,0.2-0.8,0.6-0.8,0.6s0-1.3,0.8-1.7
				C442,211.8,442.8,212.7,442.8,212.7z"/>
			<path fill="#ED7854" d="M437.6,212.7c0,0-0.4-0.8-0.8-1.3c-0.4-0.4-0.6-0.6-0.6-0.6s0.8-0.6,1.5,0.2
				C437.8,211.6,437.6,212.7,437.6,212.7z"/>
			<path fill="#ED7854" d="M493.5,190c0,0,0.8,3.2,0.4,4.8c-0.4,1.7-1.3,3.2-1.3,3.2s-0.4-2.3,0-4C493.2,192.3,493.5,190,493.5,190z
				"/>
			<path fill="#ED7854" d="M493.2,187.5c0,0-0.2,2.5-0.8,4.6c-0.6,2.1-2.1,4-2.1,4s0-1.9,0.8-4C492,189.8,493.2,187.5,493.2,187.5z"
				/>
			<path fill="#ED7854" d="M464.3,224.4c0,0,0.4,2.9-0.4,4c-0.8,1.1-2.3,2.1-2.3,2.1s0.8-1.7,1.5-2.9
				C463.6,226.5,464.3,224.4,464.3,224.4z"/>
			<path fill="#ED7854" d="M495.1,210.8c0,0,0,2.1-1.1,2.9c-1.1,1.1-2.3,1.1-2.3,1.1s0.4-1.1,1.5-1.9
				C494.3,212.1,495.1,210.8,495.1,210.8z"/>
		</g>
		<g>
			<path fill="#FFAB95" d="M457.5,168.4c0,0,14.9-0.8,17.2-2.1c2.3-1.1,6.9-1.3,8.2-1.7c1.5-0.4,1.7,0.4,1.5,1.1
				c-0.2,0.6,1.1,1.1,1.3,1.9c0.2,0.8-0.2,1.7-0.2,1.7s0.8,0.8,0.6,1.5c0,1.1-1.3,1.5-1.9,1.7c-1.9,0.8-4.8,2.5-7.6,2.7
				c-2.5,0.2-5,0.2-5,0.2s-11.8,4.8-17,3.4C449.8,177.2,457.5,168.4,457.5,168.4z"/>
			<g>
				<rect x="479.8" y="174.5" fill="#9480A0" width="0.4" height="9"/>
				<ellipse fill="#EA4458" cx="480" cy="175.1" rx="1.5" ry="0.8"/>
				<rect x="478.5" y="165" fill="#AE9CB7" width="2.9" height="10.1"/>
				<rect x="478.5" y="170" fill="#EA4458" width="2.9" height="5"/>
				<ellipse fill="#F7515E" cx="480" cy="170" rx="1.5" ry="0.8"/>
				<ellipse fill="#FFFFFF" cx="480" cy="165" rx="1.5" ry="0.8"/>
				<ellipse fill="#AE9CB7" cx="480" cy="165" rx="0.8" ry="0.4"/>
				<rect x="479.2" y="161.8" fill="#AE9CB7" width="1.5" height="3.2"/>
				<rect x="478.5" y="161.4" fill="#9480A0" width="2.9" height="0.4"/>
				<ellipse fill="#9480A0" cx="480" cy="161.8" rx="1.5" ry="0.8"/>
				<ellipse fill="#FFFFFF" cx="480" cy="161.4" rx="1.5" ry="0.8"/>
			</g>
			<path fill="#FFAB95" d="M481.9,165c0,0-1.9,1.9-1.9,2.7c0,0.8,1.1,0.6,1.1,0.6s-1.7,0.8-1.3,1.7c0.4,0.6,1.7,0.4,1.7,0.4
				s-1.7,1.3-1.1,2.1c0.8,1.1,2.5-0.6,2.5-0.6L481.9,165z"/>
			<path fill="#FFAB95" d="M479.2,162.5c0,0,0.6,0.8,0.4,1.7s-1.1,1.1-1.3,2.1c0,0.4-2.3,2.7-2.3,2.7L475,166c0,0,2.3-1.7,2.9-2.3
				C478.7,163.3,479.2,162.5,479.2,162.5z"/>
		</g>
	</g>
	<g>
		<g>
			<path fill="#FFA08D" d="M599.7,253.2c0,0,6.9,6.5,8.2,8.6c1.3,2.1,5,6.5,5,6.5s5.3-5.5,6.9-7.6c1.7-2.1,5.5,8.8,2.7,11.8
				c-2.9,2.9-7.8,6.9-9.7,8s-3.6,0.4-7.4-2.7c-3.8-3.2-9.2-11.6-9.2-11.6L599.7,253.2z"/>
			<path fill="#722D3B" d="M599.1,217.1c0,0,3.6,6.3,3.6,20c0,10.9-1.1,12.8-3.4,18.1s-3.4,8-3.4,8s-1.1-5.3-4.4-10.9
				S585,240,585,240L599.1,217.1z"/>
			<path fill="#FFA08D" d="M589.2,405.5c3.2-0.2,6.5-0.4,9.9-0.6c0,1.9-0.2,3.8-0.2,4.8c0,7.4,4.6,14.3,6.3,16.8
				c1.7,2.7-3.8,6.7-7.8,2.9c-4.2-3.8-6.9-5.9-9.2-7.1c-2.3-1.3-2.1-2.7,0.2-10.9C588.8,409.9,589,407.8,589.2,405.5z"/>
			<path fill="#FFC5B3" d="M559.6,422.5c3.2,0.6,6.7,0.4,10.1-0.4c0,0.4,0,1.1,0,1.3c0,7.4,4.6,14.3,6.3,16.8
				c1.7,2.7-3.8,6.7-7.8,2.9c-4.2-3.8-4.6-4.6-6.9-5.9c-2.3-1.3-5.3-2.7-3.4-8.6C558.2,428.2,559.6,423.6,559.6,422.5z"/>
			<g>
				<path fill="#AE9CB7" d="M600.6,418.1c0,0,3.8,5.5,7.1,9c3.8,4.2,5.5,5.3,6.3,7.6c0.8,2.3-3.4,7.8-10.7,3.6s-8.6-5.5-11.1-7.6
					c-3.2-2.9-6.5-4.8-7.1-9c-0.4-3.6,2.3-5.9,2.3-5.9s0.6,2.5,5,5C595.8,422.1,600.6,418.1,600.6,418.1z"/>
				<path fill="#9480A0" d="M614,434.5c0,0-4.8,2.9-5.5,3.2c-4.2,1.9-8.4-2.5-12.4-5.3c-4-2.7-6.5-5.5-8.2-8.4
					c-1.7-2.9-3.2-4.2-3.2-4.2s-2.5,5.7,1.1,7.8c4.2,2.5,10.9,7.4,12.8,8.6c1.7,1.1,9.9,7.1,14.5,2.5
					C614.2,437.5,614.4,436.4,614,434.5z"/>
				<path fill="#9480A0" d="M603.3,421.9c0,0-1.9,0.6-3.8,2.7c-1.5,1.7-2.3,2.9-2.3,2.9l1.5,1.1c0,0,2.5-2.5,3.8-3.8
					c0.4-0.4,2.1-1.5,2.1-1.5L603.3,421.9z"/>
				<path fill="#9480A0" d="M606,425.3c0,0-1.9,0.8-3.8,2.7c-1.5,1.7-1.9,2.3-1.9,2.3l1.3,1.5c0,0,2.1-2.3,3.4-3.6
					c0.4-0.4,2.3-1.5,2.3-1.5L606,425.3z"/>
			</g>
			<g>
				<path fill="#AE9CB7" d="M571.2,431.6c0,0,3.8,5.5,7.1,9c3.8,4.2,5.5,5.3,6.3,7.6c0.8,2.3-3.4,7.8-10.7,3.6s-8.6-5.5-11.1-7.6
					c-3.2-2.9-6.5-4.8-7.1-9c-0.4-3.6,2.3-5.9,2.3-5.9s0.6,2.5,5,5C566.3,435.8,571.2,431.6,571.2,431.6z"/>
				<path fill="#9480A0" d="M584.4,448.2c0,0-4.8,2.9-5.5,3.2c-4.2,1.9-8.4-2.5-12.4-5.3c-4-2.7-6.5-5.5-8.2-8.4
					c-1.7-2.9-3.2-4.2-3.2-4.2s-2.5,5.7,1.1,7.8c4.2,2.5,10.9,7.4,12.8,8.6c1.7,1.1,9.9,7.1,14.5,2.5
					C584.8,451.1,585,450.1,584.4,448.2z"/>
				<path fill="#9480A0" d="M573.9,435.4c0,0-1.9,0.6-3.8,2.7c-1.5,1.7-2.3,2.9-2.3,2.9l1.5,1.1c0,0,2.5-2.5,3.8-3.8
					c0.4-0.4,2.1-1.5,2.1-1.5L573.9,435.4z"/>
				<path fill="#9480A0" d="M576.6,438.7c0,0-1.9,0.8-3.8,2.7c-1.5,1.7-1.9,2.3-1.9,2.3l1.3,1.5c0,0,2.1-2.3,3.4-3.6
					c0.4-0.4,2.3-1.5,2.3-1.5L576.6,438.7z"/>
			</g>
			<path fill="#EA4458" d="M600.2,310.4c0,0,2.7,21.4,2.7,30.2c0,13,0.6,20.4,0.4,25.4c-0.4,5-1.1,49.8-1.1,49.8s-5,2.9-10.1,2.9
				s-6.3-4.4-6.3-4.4s-1.9-38-2.1-48.5c-0.2-6.9-2.3-29.4-2.3-29.4s-1.7,31.9-2.7,41.6c-1.3,10.7-3.8,50.6-3.8,50.6
				s-4.8,3.2-9.7,3.2s-11.1-5-11.1-5s5-75.6,4.8-85.9c-0.2-10.3,1.9-30.2,1.9-30.2h39.3V310.4z"/>
			<path fill="#EA4458" d="M599.7,264.6c-0.8,0.4-1.5,1.1-2.3,1.5l-11.8-22.9c0,0,4-2.3,9.5,0.2c2.9,1.5,7.4,8.2,11.1,14.3
				C605.6,260.6,602.1,262.9,599.7,264.6z"/>
			<path fill="#F7515E" d="M559.8,258.7c1.1-3.8,12.6-11.6,12.6-11.6s6.5,5,8.8,6.9c2.1,1.7,5.9,6.1,6.1,6.5l0,0
				c0-0.6-0.4-6.5-2.7-12.6c-0.6-1.9,0.4-7.6,0.4-7.6s0.8-0.2,2.3-0.4c1.9,2.1,5.9,8,8,10.3c2.1,2.3,8,9.2,7.8,17
				c-0.2,16.4,0,49.2,0,49.2s-12,9.2-23.3,12.6c-15.3,4.6-21-8.2-21-8.2s3.4-27.5,3.2-34C561.9,286.6,556.7,271.3,559.8,258.7z"/>
			<path fill="#FFA08D" d="M585.9,241c0,0,0.8,5,1.9,8.6c1.1,1.5,3.8,10.3,3.2,14.5c-2.1-1.3-8.4-7.6-10.5-9.5
				c-2.5-2.3-8.8-6.9-8.8-6.9s2.3-2.1,2.3-7.4c0-7.4,0-13.7,0-13.7L585.9,241z"/>
			<path fill="#EA4458" d="M588.4,243.4c0,0,2.9,7.4,4.4,13.7c1.3,5.5,0,11.6,0,11.6s-10.5-8.2-13.9-10.7
				c-4.8-3.6-10.5-7.8-10.5-7.8l3.2-2.3c0,0,5.3,2.7,9.7,6.3c1.9,1.7,8.8,8.2,8.8,8.2s-1.5-5.5-2.7-10.3c-1.3-4.2-2.5-10.1-2.5-10.1
				L588.4,243.4z"/>
			<polygon fill="#FFFFFF" points="575.2,272.1 585.7,267.5 584.6,265 574.1,269.6 			"/>
			<path fill="#FFA08D" d="M554,274c0,0,12,1.3,12.2,4.4c0.4,8.8-1.3,17-1.3,17s18.7,1.3,18.7,1.5c1.9,1.3,5.5,6.7-1.1,9.5
				c-8,1.5-12.4,1.5-20,1.1c-4.6-0.2-8-0.6-8.6-2.1c-0.8-2.1-2.1-3.6-2.1-9.2C552.1,290,554,274,554,274z"/>
			<path fill="#EA4458" d="M560.5,281.6c-4.8-0.2-7.4-2.3-8.6-5.5c0.8-2.9,1.7-9,2.7-11.8c2.7-7.6,6.3-9.5,9.2-10.7
				c2.3-0.8,6.3,4,7.8,8c1.1,3.2-1.3,12-3.6,20C565.1,282,563.2,281.6,560.5,281.6z"/>
			<path fill="#FFC5B3" d="M578.5,215.8c4.4-3.4,15.1-4.4,18.9,6.3c4,11.3-6.3,25.4-11.8,23.1c-3.2-1.3-9.7-6.1-11.6-12
				C572,226.5,575,218.6,578.5,215.8z"/>
			<path fill="#722D3B" d="M600.4,223.6c0,3.4-13.9,6.1-20.6,5.5c-2.9,4-5,6.1-5,6.1s-2.5-3.4-2.7-5.7c-0.4-2.1-4.2-13.9,7.6-18.5
				C590.3,206.8,600.6,212.5,600.4,223.6z"/>
			<path fill="#722D3B" d="M582.5,221.7c0,0-4.6,9.7-2.7,19.7c1.9,10.1,5.7,12,7.6,21.6c1.1,5.5-3.4,15.3-3.4,15.3
				s-1.3-9.9-9.9-18.9c-5.5-5.7-17.4-13.7-1.5-42.2C577.7,216.7,582.5,221.7,582.5,221.7z"/>
		</g>
		<g>
			<g>
				<g>
					<polygon fill="#F2EDF4" points="743,374.9 755.8,367.7 804.6,395.6 792,402.8 					"/>
				</g>
				<polygon fill="#DED3E2" points="792,402.8 804.6,395.6 804.6,399.2 792,406.8 				"/>
				<polygon fill="#C4B5CA" points="792,402.8 743,374.9 743,378.6 792,406.8 				"/>
			</g>
			<g>
				<g>
					<polygon fill="#F2EDF4" points="774.9,390 766.5,385.4 596.8,482.2 605,487 					"/>
				</g>
				<polygon fill="#DED3E2" points="609.2,484.5 772,391.7 772,394.6 609.2,487.9 				"/>
			</g>
			<g>
				<g>
					<polygon fill="#F2EDF4" points="569.9,473.8 582.7,466.7 631.5,494.6 618.7,501.7 					"/>
				</g>
				<polygon fill="#DED3E2" points="618.7,501.7 631.5,494.6 631.5,498.2 618.7,505.7 				"/>
				<polygon fill="#C4B5CA" points="618.9,501.7 569.9,473.8 569.9,477.4 618.9,505.7 				"/>
			</g>
			<g>
				<polygon fill="#C4B5CA" points="605.2,417.7 605.2,489.8 592.2,482.4 592.2,409.3 				"/>
				<polygon fill="#DED3E2" points="609.8,417.7 609.8,487.2 605.2,489.8 605.2,417.7 				"/>
			</g>
			<g>
				<polygon fill="#C4B5CA" points="777.9,309.7 777.9,390 764.9,382.6 764.9,301.5 				"/>
				<polygon fill="#DED3E2" points="782.7,309.7 782.7,387.5 777.9,390 777.9,309.7 				"/>
			</g>
			<g>
				<polygon fill="#DED3E2" points="818.4,324.6 818.4,327.8 628.1,436.2 628.1,433 				"/>
				<polygon fill="#C4B5CA" points="548.9,387.9 548.9,391 628.1,436.2 628.1,433 				"/>
			</g>
			<g>
				<g>
					<path fill="#F2EDF4" d="M739,279.5l79.4,45.2L628.1,433l-79.2-45.2L739,279.5z M620.5,421.3c1.1,1.3,3.6,2.1,6.3,2.1
						s5.3-0.8,6.3-2.1c0.4-0.4,0.4-0.8,0.4-1.3c0-1.9-3.2-3.4-6.9-3.4c-3.8,0-6.9,1.5-6.9,3.4C619.9,420.4,620.1,420.9,620.5,421.3z
						 M602.1,410.8c1.1,1.3,3.6,2.1,6.3,2.1c2.9,0,5.3-0.8,6.3-2.1c0.4-0.4,0.4-0.8,0.4-1.3c0-1.9-3.2-3.4-6.9-3.4
						c-3.8,0-6.9,1.5-6.9,3.4C601.6,409.9,601.6,410.4,602.1,410.8z M582.5,399.4c1.1,1.3,3.6,2.1,6.3,2.1c2.9,0,5.3-0.8,6.3-2.1
						c0.4-0.4,0.4-0.8,0.4-1.3c0-1.9-3.2-3.4-6.9-3.4c-3.8,0-6.9,1.5-6.9,3.4C582.1,398.6,582.1,399,582.5,399.4z M570.5,391.2
						c2.9,0,5.3-0.8,6.3-2.1c0.4-0.4,0.4-0.8,0.4-1.3c0-1.9-3.2-3.4-6.9-3.4s-6.9,1.5-6.9,3.4c0,0.4,0.2,0.8,0.4,1.3
						C565.1,390.4,567.6,391.2,570.5,391.2z"/>
				</g>
				<path fill="#C4B5CA" d="M626.8,416.4c3.8,0,6.9,1.5,6.9,3.4c0,0.4-0.2,0.8-0.4,1.3c-1.1-1.3-3.6-2.1-6.3-2.1
					c-2.7,0-5.3,0.8-6.3,2.1c-0.4-0.4-0.4-0.8-0.4-1.3C619.9,417.9,623.1,416.4,626.8,416.4z"/>
				<path fill="#C4B5CA" d="M608.4,406.2c3.8,0,6.9,1.5,6.9,3.4c0,0.4-0.2,0.8-0.4,1.3c-1.1-1.3-3.6-2.1-6.3-2.1
					c-2.9,0-5.3,0.8-6.3,2.1c-0.4-0.4-0.4-0.8-0.4-1.3C601.6,407.6,604.6,406.2,608.4,406.2z"/>
				<path fill="#C4B5CA" d="M588.8,394.6c3.8,0,6.9,1.5,6.9,3.4c0,0.4-0.2,0.8-0.4,1.3c-1.1-1.3-3.6-2.1-6.3-2.1
					c-2.9,0-5.3,0.8-6.3,2.1c-0.4-0.4-0.4-0.8-0.4-1.3C582.1,396.3,585,394.6,588.8,394.6z"/>
				<path fill="#C4B5CA" d="M570.5,384.3c3.8,0,6.9,1.5,6.9,3.4c0,0.4-0.2,0.8-0.4,1.3c-1.1-1.3-3.6-2.1-6.3-2.1
					c-2.9,0-5.3,0.8-6.3,2.1c-0.4-0.4-0.4-0.8-0.4-1.3C563.6,385.8,566.6,384.3,570.5,384.3z"/>
			</g>
			<polygon fill="#DED3E2" points="647,410.4 793.2,327.2 789.6,325.3 643.4,408.3 			"/>
			<polygon fill="#DED3E2" points="592.2,379.5 738.2,296.3 734.6,294.2 588.6,377.4 			"/>
		</g>
		<path fill="#F2EDF4" d="M619.9,262.7c0,0,2.3-4.2,5.5-6.7c1.3-1.1,1.5,1.1,1.1,2.5s-0.4,1.5-0.4,1.5s9.9-3.4,12.8,0.2
			c2.5,2.9,1.5,5.5-2.7,8.2c-1.9,1.3-9.5,2.9-9.5,2.9L619.9,262.7z"/>
		<g>
			<g>
				<g>
					<path fill="#722D3B" d="M691.1,328.2c-0.6-3.6-8-7.1-6.5-13c1.3-5.9,2.3-15.8,2.3-15.8l-20-4.8c0,0,0.2,15.5,1.9,21.6
						c1.7,6.1,1.9,6.5,5.5,10.1c2.7,2.7,8.2,4.6,8.2,4.6s0,0.2-0.2,0.6c0.4,0,0.8,0.2,1.1,0.6c0.4,0.8,1.1,4.2-0.6,6.5
						c-1.5,2.3-0.6,3.8,0,4.8c0.6-1.3,1.5-2.5,2.1-4C687.3,335.8,691.8,330.7,691.1,328.2z"/>
					<path fill="#DD7C3A" d="M682.9,338.9c1.7-2.3,1.1-5.7,0.6-6.5c-0.2-0.4-0.6-0.6-1.1-0.6c-0.8,2.1-3.8,9.2-6.3,12.6
						c-1.5,1.9-6.1,5-4.8,7.8c1.3,2.7,5,2.1,7.4,0c0.6-0.6,2.1-3.6,4.4-8C682.3,342.7,681.5,341.2,682.9,338.9z"/>
				</g>
				<g>
					<path fill="#843845" d="M627.9,355.1c1.1-1.3,1.5-3.6,2.5-4c0.4-0.2,0.6-0.2,1.1,0c-0.2-3.2-0.8-6.5-1.1-8
						c-0.4-2.1-1.9-13.2-2.5-18.3l-5.7,0.8c-1.1,1.1,2.7,14.3,3.6,18.5c0.4,2.3,0.8,7.1,1.1,12C627.1,355.9,627.5,355.7,627.9,355.1
						z"/>
					<path fill="#722D3B" d="M631.3,351.1c1.1,0.6,1.3,2.9,2.1,4.4c0.4,0.4,0.6,1.3,1.1,2.3c0.4-5.3,0.8-12.8,0.8-19.3
						c0-8-1.3-14.3-1.3-14.3l-6.3,0.8c0.6,5,1.9,16.2,2.5,18.3C630.6,344.6,631,348,631.3,351.1z"/>
					<path fill="#FFB387" d="M626.8,368.6c-0.2,5-2.7,6.5-3.6,8c-1.1,1.9,0,4,2.1,4.6c2.7-1.1,4.6-2.9,5.5-5.5
						c1.1-4,0.8-15.1,0.8-17.9c0-1.3-0.2-4-0.4-6.7c-0.2-0.2-0.6-0.2-1.1,0c-0.8,0.4-1.5,2.7-2.5,4c-0.4,0.4-0.8,0.8-1.3,1.1
						C626.8,361,626.8,366,626.8,368.6z"/>
					<path fill="#DD7C3A" d="M631.3,351.1c0.2,2.7,0.4,5.3,0.4,6.7c0,2.7,0,14.1-0.8,17.9c-0.6,2.5-2.7,4.4-5.5,5.5
						c1.1,0.2,2.1,0.2,3.4-0.4c3.8-2.1,3.6-3.6,4-5.3c0.6-3.2,0.6-6.9,1.3-12.4c0.2-1.1,0.2-2.7,0.4-5.3c-0.4-1.1-0.6-1.7-1.1-2.3
						C632.5,354.1,632.3,351.7,631.3,351.1z"/>
				</g>
				<path fill="#843845" d="M691.8,285.6c-2.9-1.3-6.1-1.1-9.5-0.6c-5.9,0.6-14.1,1.5-18.7,1.9c-2.9,0.2-10.9-0.8-15.1-0.8
					c-4.6,0-6.5-1.5-9.5-3.4c-2.9-1.7-4.2-5.5-5.7-9.7c-1.5-4-20,8.6-20,8.6s2.1,9,2.3,16s-0.2,17.2,3.6,27.3
					c4,10.5,18.1,13.4,29.4,7.1c10.3-5.7,27.1-13.9,33.8-15.1c6.5-1.1,22.9-8.6,24.6-9c-3.4-6.7-3.6-9.2-9.9-16
					C695.5,289.8,694.3,286.6,691.8,285.6z"/>
			</g>
			<g>
				<path fill="#843845" d="M709,328c0.6,1.5,2.1,3.2,3.6,4.6c-0.4-4.6-0.4-11.8-1.3-12.8c-1.1-1.3-5.3-6.1-6.3-8.8
					c-0.6-1.9-1.3-7.6-1.5-10.9c-6.9-7.6-33.8,3.2-33.8,3.2s6.5,12.2,15.8,16.6c6.1,2.9,14.5,1.1,19.3,4.8
					C704.4,324.6,707.7,325.5,709,328z"/>
				<path fill="#722D3B" d="M711.1,319.8c0.8,1.1,1.1,8.2,1.3,12.8c0.6,0.4,1.1,0.8,1.7,1.3c0-0.6,0-1.3-0.2-1.9
					c-0.2-4,0.6-9.5,0-11.8c-0.6-2.5-3.2-4-4.8-6.9c-1.7-2.9-1.3-5-5.3-12c-0.2-0.4-0.4-0.8-0.8-1.1c0.2,3.4,0.8,9,1.5,10.9
					C705.8,313.7,710,318.6,711.1,319.8z"/>
				<path fill="#FFB387" d="M707.9,339.8c0,2.9-4.2,5.5-1.5,7.4c0.2,0.2,0.4,0.2,0.4,0.2c0.2,0,0.4,0,0.6-0.2
					c8.2-1.9,5.7-9.5,5.3-12.8c0-0.6-0.2-1.3-0.2-1.9c-1.5-1.3-2.9-3.2-3.6-4.6c-1.1-2.5-4.6-3.4-4.6-3.4
					C707.5,327.2,707.9,334.3,707.9,339.8z"/>
				<path fill="#DD7C3A" d="M712.6,334.3c0.4,3.4,2.9,10.9-5.3,12.8c-0.2,0-0.4,0-0.6,0.2c2.3,1.1,5.9-0.4,7.4-3.4
					c0.8-1.7,0.2-5.9,0-10.3c-0.6-0.4-1.1-0.8-1.7-1.3C712.6,333.3,712.6,333.9,712.6,334.3z"/>
			</g>
			<g>
				<path fill="#843845" d="M643.6,365.6c0.2-3.8,0.2-7.4,0.4-8.8c0.2-4.4,0-15.8,0-15.8s-1.1-1.9-2.7-1.3c-1.7,0.6-1.1-0.8,0-2.9
					c0.4-0.8,0.8-3.2,1.3-5.7l-9,1.3c-1.1,1.1,2.7,14.3,3.6,18.5c0.4,2.3,0.8,7.6,1.1,12.8C639.4,364.6,641.1,365.6,643.6,365.6
					L643.6,365.6z"/>
				<path fill="#722D3B" d="M641.3,339.6c1.7-0.6,2.7,1.3,2.7,1.3s0.2,11.3,0,15.8c0,1.5-0.2,5-0.4,8.8c0.8,0,1.5,0.2,2.3,0.6
					c0.4-5,1.1-13.9,1.1-21.4c0-8-1.3-14.3-1.3-14.3l-2.9,0.4c-0.4,2.5-0.8,4.8-1.3,5.7C640.3,338.7,639.7,340.2,641.3,339.6z"/>
				<path fill="#FFB387" d="M638.4,375.1c-0.2,5-2.7,6.5-3.6,8c-1.1,1.9,0,4,2.1,4.6c2.9-1.7,4.6-3.2,5.3-4.4
					c0.6-1.3,1.1-10.3,1.5-17.6l0,0c-2.3,0-4.2-1.1-5.5-2.1C638.4,368.1,638.4,372.8,638.4,375.1z"/>
				<path fill="#DD7C3A" d="M642.2,383.3c-0.6,1.3-2.3,2.9-5.3,4.4c1.1,0.2,2.1,0.2,3.4-0.4c3.8-2.1,3.6-3.6,4-5.3
					c0.6-3.2,0.6-6.9,1.3-12.4c0-0.6,0.2-1.9,0.4-3.2c-0.6-0.4-1.5-0.6-2.3-0.6C643.2,373,642.8,382,642.2,383.3z"/>
			</g>
			<path fill="#722D3B" d="M642,334.3c0,0,1.1-8.2,1.5-9.5c0.4-1.5,1.9-5.3,3.4-3.6c1.5,1.7,0,5,5,2.7c5-2.3,14.3-6.5,17.2-7.8
				c2.9-1.3,8.6-3.6,10.1-2.1c1.5,1.5,5.9,5.7,5.9,5.7s-5.7-1.1-8.8-0.8c-2.5,0.2-5.9,2.1-10.1,4c-4.6,2.1-8.8,4.6-10.5,5.5
				C647.2,332.8,642,334.3,642,334.3z"/>
			<path fill="#722D3B" d="M615.1,290.4l3.6-0.4c0,0-0.2,6.9,1.5,10.5c1.5,3.6,0.4,8.8,1.9,10.7c1.5,2.1,0.8,7.6,5.7,7.8
				c4.8,0.2,8.4,1.7,7.8,5c-0.2,1.3-1.5,3.4-1.7,5.5c-0.4,2.9,0.2,5.7,0.2,5.7s-5-0.8-10.1-3.8c-5.3-2.9-5.5-8.8-6.3-14.7
				C616.3,311,615.1,290.4,615.1,290.4z"/>
			<path fill="#722D3B" d="M647.2,303c-1.1,1.1-0.6,3.6-1.1,6.9s-1.3,9.2,1.3,6.9s2.9-4.2,2.7-8.6
				C649.7,303.9,649.3,300.9,647.2,303z"/>
			<path fill="#722D3B" d="M627.5,285.6c0,0-3.2,0.8-6.5,1.9c-1.1,0.4-5.9,0.6-5.9,0.6l0.6,10.3c0,0,6.1-0.4,8.8-4
				c2.5-3.6,1.7-4.2,3.2-6.1C628.9,286.2,629.2,284.3,627.5,285.6z"/>
			<path fill="#722D3B" d="M685.7,300.3c0-1.7-2.9,2.5-4,4.6c-1.1,1.9-5.3,7.1-5.3,7.1s2.3-0.4,5.9-4
				C685.9,304.3,685.7,301.8,685.7,300.3z"/>
			<path fill="#722D3B" d="M690.9,318.1c0,0,4,1.3,8.2,2.1c4.2,0.8,6.9,3.8,6.9,3.8s-1.5-4.4-6.1-5.7
				C695.5,317.1,690.9,318.1,690.9,318.1z"/>
			<g>
				<path fill="#843845" d="M617,247.8c0.4,1.7,1.7,6.9,2.3,8.2c0.4,1.1,1.9,3.8,2.5,4.8l2.7-0.4c0,0-3.4-2.5-4.8-8.2
					c-1.3-5.9-3.8-9-4-7.4c0,0.2,0,0.6,0,0.8C616.1,246.1,616.8,246.7,617,247.8z"/>
				<path fill="#722D3B" d="M615.7,252c-0.2,2.9-0.2,9.9-0.2,9.9l6.1-1.1c-0.6-1.1-1.9-3.8-2.5-4.8c-0.6-1.5-1.9-6.5-2.3-8.2
					c-0.2-1.1-0.8-1.7-1.3-1.9C615.7,247.6,615.9,249.4,615.7,252z"/>
			</g>
			<path fill="#843845" d="M629.6,251.5c-1.3-0.8-1.3,2.3-1.5,5.5c-0.4,4.2-0.6,9-0.6,9l7.1,9.5c0,0,1.3-1.9,1.3-5
				c0-1.5-0.6-3.4-0.8-5.5c-0.4-3.8-1.7-6.5-2.7-9C631.5,254.1,630.6,252.2,629.6,251.5z"/>
			<g>
				<path fill="#FFB387" d="M625.8,283.1c-1.5-0.6-5.5-1.1-9.7,0c-4.2,1.1-8.8,0.2-13.4,2.3c-1.1,0.4-1.7,1.1-2.1,1.3
					c0,0.8,0.4,2.1,2.3,2.5c2.7,0.6,6.7-1.1,11.8-3.2c4.8-2.1,8.6-1.7,9.9-0.4c0.4,0.4,0.6,0.6,0.6,1.1c0.4-0.2,1.1-0.6,1.5-1.1
					C627.7,284.9,627.3,283.7,625.8,283.1z"/>
				<path fill="#DD7C3A" d="M614.4,286.2c-4.8,2.1-9,3.8-11.8,3.2c-1.9-0.4-2.3-1.9-2.3-2.5c-0.6,0.4-1.1,0.4-2.1,0
					c0.6,3.4,3.6,4.6,6.7,4.2c3.4-0.6,7.8-0.8,12-2.1c2.5-0.6,5.3-0.4,8-1.9c-0.2-0.4-0.4-0.6-0.6-1.1
					C623.1,284.5,619.3,284.1,614.4,286.2z"/>
			</g>
			<g>
				<path fill="#843845" d="M626.2,261.2c-1.9-1.3-5.5-2.1-8.6-0.8c-2.5,1.1-4.4,3.4-6.1,5c-0.8,0.8-1.9,1.9-2.5,2.7
					c0.4,0.6,0.8,1.5,0.6,1.9c-0.4,0.8-1.7,2.7-1.7,2.7c-2.7,3.6-5.9,7.1-9.2,10.3c-1.3,1.3,0.4,1.1,3.6,4c3.6,3.4,9.5-2.5,13.7-3.4
					c4-1.1,8-1.9,9.5-1.3c1.5,0.6,4.4,0.6,3.4,3.4c1.3-1.1,2.5-2.5,3.4-4.2C635.5,275.3,638.8,269.4,626.2,261.2z"/>
				<path fill="#722D3B" d="M608.8,268.4c-0.4,0.6-0.6,1.1-0.6,1.9c0,0.8,0,2.1-0.4,2.7c0,0,1.5-1.7,1.7-2.7
					C609.8,269.6,609.2,269,608.8,268.4z"/>
			</g>
			<g>
				<path fill="#722D3B" d="M615.9,276.3c0,0-0.4-3.6,2.5-4.8c1.9-0.8,3.6,1.3,3.6,1.3s1.1,3.6-1.9,4.4
					C617.6,278.2,615.9,276.3,615.9,276.3z"/>
				<path fill="#512020" d="M617,275.7c0,0-0.2-1.7,1.5-2.7c1.3-0.8,2.5,0.2,2.5,0.2s0.4,2.1-1.5,2.7
					C617.8,276.8,617,275.7,617,275.7z"/>
				<path fill="#753939" d="M618,274.7c0,0,0.4,1.3,1.7,0.8c1.1-0.4,0.8-1.5,0.8-1.5S619.9,275.3,618,274.7z"/>
				<ellipse fill="#FFBB88" cx="618.7" cy="274" rx="0.4" ry="0.6"/>
			</g>
			<path fill="#512020" d="M599.3,282.2c0,0-2.7,1.9-2.5,2.5c0.2,0.8,0.4,1.3,0.8,1.5c0.2,0.2,0.8,1.7,1.5,1.7
				c0.4,0,0.8-0.6,1.5-0.8c0.8-0.2,1.7-0.8,2.1-1.7C603.5,283.9,599.3,282.2,599.3,282.2z"/>
			<path fill="#722D3B" d="M607.1,281.4c-1.3,0.2-1.9,0.8-2.7,1.7c-0.4,0.4-1.9,1.9-1.3,1.9c0.2,0,1.9-0.8,2.3-1.3
				C606.3,283.1,607.7,281.2,607.1,281.4z"/>
			<path fill="#FFB387" d="M617,268.8c-1.3,0-1.5,1.5-1.1,1.7c0.6,0.2,2.5-0.8,2.5-0.8S617.4,268.8,617,268.8z"/>
			<path fill="#FFB387" d="M610.5,267.3c0,0,0.2,1.3,0.8,1.7c0.6,0.2,1.1-1.3,0.8-1.7C611.3,266.5,610.5,267.3,610.5,267.3z"/>
			<path fill="#722D3B" d="M629.6,253.2c-0.6,1.3-0.6,4.8-0.6,6.7c0,2.1,0.2,3.6,0,4.6s0,2.3,1.3,3.4c0.2,0.2,1.5,1.5,2.3,2.7
				c1.1,1.7,1.5,3.4,1.5,3.4s1.3-2.5,0.6-5.7c-0.8-3.4-1.9-7.8-2.7-10.1C630.8,256,629.6,253.2,629.6,253.2z"/>
		</g>
		<path fill="#F2EDF4" d="M605,292.3c1.3,0.6,0.4,1.7-0.8,2.3c-1.3,0.6-2.7,2.7-2.7,2.7s4.6,0.2,8,1.1s6.7,2.7,3.8,5.3
			c-2.9,2.5-8.8,2.9-15.3,2.5c-6.5-0.4-15.5,0.2-15.5,0.2s-1.7-5,0-9.5c4.2-0.8,7.4-0.6,10.7-2.3C598.1,292.3,603.7,291.7,605,292.3
			z"/>
	</g>
	<g>
		<g>
			<path fill="#9480A0" d="M420.3,370.2c2.9,2.1,8.8,6.5,9.9,11.1c1.7,5.9,2.3,12.6,2.3,22.9v10.3c-1.1,0.4-2.1,1.1-2.9,1.5v-11.8
				c0-10.1-0.6-16.4-2.1-22.1c-1.1-3.6-6.5-7.8-9.5-9.9C418.7,371.7,419.5,370.9,420.3,370.2z"/>
			<path fill="#9480A0" d="M467.6,343.8c2.9,2.1,8.8,6.5,9.9,11.1c1.7,5.9,2.3,12.6,2.3,22.9v12.4c-1.1,0.6-1.9,1.3-2.9,2.1l0,0V378
				c0-10.1-0.6-16.4-2.1-22.1c-0.8-3.4-6.1-7.6-9-9.7C466.4,345.2,467,344.4,467.6,343.8z"/>
		</g>
		<path fill="#F7515E" d="M414.7,372.1l36.8-21l0,0l16.6-9.5c1.1-0.6,2.1-0.2,2.7,0.6c0.6,0.8,0.2,2.1-0.6,2.7l-36.8,21
			c0,0,0,0-0.2,0l-16.6,9.5c-0.2,0.2-0.6,0.2-1.1,0.2c-0.6,0-1.3-0.4-1.7-1.1C413.4,373.8,413.6,372.8,414.7,372.1z"/>
		<g>
			<g>
				<polygon fill="#9480A0" points="431.1,405.1 479.2,377.8 477.7,375.3 429.6,402.4 				"/>
			</g>
		</g>
		<rect x="429.4" y="410.8" fill="#9480A0" width="3.2" height="66"/>
		<g>
			<path fill="#722D3B" d="M426.2,475.5c0,2.7,1.7,6.1,3.8,7.1c2.1,1.3,3.8,0,3.8-2.9c0-2.7-1.7-6.1-3.8-7.1
				C427.9,471.5,426.2,472.7,426.2,475.5z"/>
			<polygon fill="#722D3B" points="424.8,474 427.7,472.3 432.5,482.8 429.6,484.5 			"/>
			<path fill="#843845" d="M423.3,477.2c0,2.7,1.7,6.1,3.8,7.1s3.8,0,3.8-2.9c0-2.7-1.7-6.1-3.8-7.1S423.3,474.4,423.3,477.2z"/>
			<path fill="#FFFFFF" d="M424.8,478.2c0,1.5,0.8,2.9,1.9,3.6c1.1,0.6,1.9,0,1.9-1.5s-0.8-2.9-1.9-3.6
				C425.6,476.3,424.8,476.9,424.8,478.2z"/>
			<path fill="#C4B5CA" d="M432.3,474.8l-3.6,2.1c0,0-0.8,2.1-1.3,2.9c-0.4,0.8-2.5-0.6-2.5-3.4c0-1.5,0-3.2,0-3.2l4.6-2.5
				C429.4,470.4,432.3,471.3,432.3,474.8z"/>
		</g>
		<g>
			<polygon fill="#F2EDF4" points="514,446.1 466.4,473.2 432.3,453.6 479.8,426.5 			"/>
			<polygon fill="#9480A0" points="514,446.1 514,449.6 466.4,476.7 466.4,473.2 			"/>
			<polygon fill="#C4B5CA" points="432.3,453.6 432.3,457.4 466.4,476.7 466.4,473.2 			"/>
		</g>
		<g>
			<path fill="#5974BB" d="M484.2,424.8c3.2,0,5.9-1.3,5.9-2.7v15.3l0,0c-0.4,1.3-2.7,2.3-5.9,2.3c-2.9,0-5.5-1.1-5.9-2.3l0,0v-15.3
				C478.3,423.8,480.8,424.8,484.2,424.8z"/>
			<g>
				<path fill="#FFFFFF" d="M484.2,416.4L484.2,416.4c3.2,0,5.9,2.5,5.9,5.7l0,0c0-1.5-2.5-2.7-5.9-2.7c-3.2,0-5.9,1.3-5.9,2.7l0,0
					C478.3,419,480.8,416.4,484.2,416.4z"/>
				<ellipse fill="#7490D1" cx="484.2" cy="422.1" rx="5.9" ry="2.7"/>
			</g>
			<path fill="#C4B5CA" d="M486.7,416v1.5c0,0.6-1.3,1.3-2.7,1.3s-2.7-0.6-2.7-1.3V416H486.7z"/>
			<path fill="#F7515E" d="M484.2,414.6L484.2,414.6L484.2,414.6h3.4v1.5c0,0.8-1.5,1.5-3.4,1.5c-1.9,0-3.4-0.6-3.4-1.5v-1.5H484.2z
				"/>
			<ellipse fill="#F7515E" cx="484.2" cy="414.6" rx="3.4" ry="1.5"/>
			<path fill="#F7515E" d="M478.1,423.4c0,1.5,2.5,2.5,5.5,2.5c0,0,0.6,0,0.8,0h0.2c2.9,0,5.5-1.1,5.5-2.5v4.4v5l0,0
				c0,1.5-2.5,2.5-5.5,2.5h-0.2c0,0-0.6,0-0.8,0c-2.9,0-5.5-1.1-5.5-2.5l0,0v-5V423.4z"/>
		</g>
		<g>
			<path fill="#5974BB" d="M498.3,432.8c3.2,0,5.9-1.3,5.9-2.7v15.3l0,0c-0.4,1.3-2.7,2.3-5.9,2.3c-2.9,0-5.5-1.1-5.9-2.3l0,0v-15.3
				C492.4,431.6,495.1,432.8,498.3,432.8z"/>
			<g>
				<path fill="#FFFFFF" d="M498.3,424.4L498.3,424.4c3.2,0,5.9,2.5,5.9,5.7l0,0c0-1.5-2.5-2.7-5.9-2.7c-3.4,0-5.9,1.3-5.9,2.7l0,0
					C492.4,426.9,495.1,424.4,498.3,424.4z"/>
				<ellipse fill="#7490D1" cx="498.3" cy="430.1" rx="5.9" ry="2.7"/>
			</g>
			<path fill="#C4B5CA" d="M501,424v1.5c0,0.6-1.3,1.3-2.7,1.3c-1.5,0-2.7-0.6-2.7-1.3V424H501z"/>
			<path fill="#EA4458" d="M498.3,422.5L498.3,422.5L498.3,422.5h3.4v1.5c0,0.8-1.5,1.5-3.4,1.5s-3.4-0.6-3.4-1.5v-1.5H498.3z"/>
			<ellipse fill="#F7515E" cx="498.3" cy="422.5" rx="3.4" ry="1.5"/>
			<path fill="#F7515E" d="M492.4,431.4c0,1.5,2.5,2.5,5.5,2.5c0,0,0.6,0,0.8,0h0.2c2.9,0,5.5-1.1,5.5-2.5v4.4v5l0,0
				c0,1.5-2.5,2.5-5.5,2.5h-0.2c0,0-0.6,0-0.8,0c-2.9,0-5.5-1.1-5.5-2.5l0,0v-5V431.4z"/>
		</g>
		<g>
			<path fill="#5974BB" d="M467.4,432.2c3.2,0,5.9-1.3,5.9-2.7v15.3l0,0c-0.4,1.3-2.7,2.3-5.9,2.3c-2.9,0-5.5-1.1-5.9-2.3l0,0v-15.3
				C461.5,430.9,464.3,432.2,467.4,432.2z"/>
			<g>
				<path fill="#FFFFFF" d="M467.4,423.8L467.4,423.8c3.2,0,5.9,2.5,5.9,5.7l0,0c0-1.5-2.5-2.7-5.9-2.7c-3.2,0-5.9,1.3-5.9,2.7l0,0
					C461.5,426.3,464.3,423.8,467.4,423.8z"/>
				<ellipse fill="#7490D1" cx="467.4" cy="429.5" rx="5.9" ry="2.7"/>
			</g>
			<path fill="#C4B5CA" d="M470.1,423.4v1.5c0,0.6-1.3,1.3-2.7,1.3c-1.5,0-2.7-0.6-2.7-1.3v-1.5H470.1z"/>
			<path fill="#F7515E" d="M467.4,421.9L467.4,421.9L467.4,421.9h3.4v1.5c0,0.8-1.5,1.5-3.4,1.5c-1.9,0-3.4-0.6-3.4-1.5v-1.5H467.4z
				"/>
			<ellipse fill="#F7515E" cx="467.4" cy="421.9" rx="3.4" ry="1.5"/>
			<path fill="#F7515E" d="M461.5,430.7c0,1.5,2.5,2.5,5.5,2.5c0,0,0.6,0,0.8,0h0.2c2.9,0,5.5-1.1,5.5-2.5v4.4v5l0,0
				c0,1.5-2.5,2.5-5.5,2.5h-0.2c0,0-0.6,0-0.8,0c-2.9,0-5.5-1.1-5.5-2.5l0,0v-5V430.7z"/>
		</g>
		<g>
			<path fill="#5974BB" d="M481.7,440.2c3.2,0,5.9-1.3,5.9-2.7v15.3l0,0c-0.4,1.3-2.7,2.3-5.9,2.3c-2.9,0-5.5-1.1-5.9-2.3l0,0v-15.3
				C475.8,438.9,478.3,440.2,481.7,440.2z"/>
			<g>
				<path fill="#FFFFFF" d="M481.7,431.8L481.7,431.8c3.2,0,5.9,2.5,5.9,5.7l0,0c0-1.5-2.5-2.7-5.9-2.7c-3.2,0-5.9,1.3-5.9,2.7l0,0
					C475.8,434.3,478.3,431.8,481.7,431.8z"/>
				<ellipse fill="#7490D1" cx="481.7" cy="437.5" rx="5.9" ry="2.7"/>
			</g>
			<path fill="#C4B5CA" d="M484.2,431.4v1.5c0,0.6-1.3,1.3-2.7,1.3s-2.7-0.6-2.7-1.3v-1.5H484.2z"/>
			<path fill="#EA4458" d="M481.7,429.7L481.7,429.7L481.7,429.7h3.4v1.5c0,0.8-1.5,1.5-3.4,1.5c-1.9,0-3.4-0.6-3.4-1.5v-1.5H481.7z
				"/>
			<ellipse fill="#F7515E" cx="481.7" cy="429.7" rx="3.4" ry="1.5"/>
			<path fill="#F7515E" d="M475.6,438.7c0,1.5,2.5,2.5,5.5,2.5c0,0,0.6,0,0.8,0h0.2c2.9,0,5.5-1.1,5.5-2.5v4.4v5l0,0
				c0,1.5-2.5,2.5-5.5,2.5h-0.2c0,0-0.6,0-0.8,0c-2.9,0-5.5-1.1-5.5-2.5l0,0v-5V438.7z"/>
		</g>
		<g>
			<path fill="#5974BB" d="M449.8,441.4c3.2,0,5.9-1.3,5.9-2.7V454l0,0c-0.4,1.3-2.7,2.3-5.9,2.3c-2.9,0-5.5-1.1-5.9-2.3l0,0v-15.3
				C444.1,440.4,446.6,441.4,449.8,441.4z"/>
			<g>
				<path fill="#FFFFFF" d="M449.8,433L449.8,433c3.2,0,5.9,2.5,5.9,5.7l0,0c0-1.5-2.5-2.7-5.9-2.7c-3.4,0-5.9,1.3-5.9,2.7l0,0
					C444.1,435.6,446.6,433,449.8,433z"/>
				<ellipse fill="#7490D1" cx="449.8" cy="438.9" rx="5.9" ry="2.7"/>
			</g>
			<path fill="#C4B5CA" d="M452.5,432.6v1.5c0,0.6-1.3,1.3-2.7,1.3c-1.5,0-2.7-0.6-2.7-1.3v-1.5H452.5z"/>
			<path fill="#EA4458" d="M449.8,431.2L449.8,431.2L449.8,431.2h3.4v1.5c0,0.8-1.5,1.5-3.4,1.5s-3.4-0.6-3.4-1.5v-1.5H449.8z"/>
			<ellipse fill="#F7515E" cx="449.8" cy="431.2" rx="3.4" ry="1.5"/>
			<path fill="#F7515E" d="M443.9,440c0,1.5,2.5,2.5,5.5,2.5c0,0,0.6,0,0.8,0h0.2c2.9,0,5.5-1.1,5.5-2.5v4.4v5l0,0
				c0,1.5-2.5,2.5-5.5,2.5h-0.2c0,0-0.6,0-0.8,0c-2.9,0-5.5-1.1-5.5-2.5l0,0v-5V440z"/>
		</g>
		<g>
			<path fill="#5974BB" d="M464,449.4c3.2,0,5.9-1.3,5.9-2.7V462l0,0c-0.4,1.3-2.7,2.3-5.9,2.3c-2.9,0-5.5-1.1-5.9-2.3l0,0v-15.3
				C458.2,448.2,460.9,449.4,464,449.4z"/>
			<g>
				<path fill="#FFFFFF" d="M464,441L464,441c3.2,0,5.9,2.5,5.9,5.7l0,0c0-1.5-2.5-2.7-5.9-2.7c-3.2,0-5.9,1.3-5.9,2.7l0,0
					C458.2,443.5,460.9,441,464,441z"/>
				<ellipse fill="#7490D1" cx="464" cy="446.7" rx="5.9" ry="2.7"/>
			</g>
			<path fill="#C4B5CA" d="M466.8,440.6v1.5c0,0.6-1.3,1.3-2.7,1.3s-2.7-0.6-2.7-1.3v-1.5H466.8z"/>
			<path fill="#EA4458" d="M464,439.1L464,439.1L464,439.1h3.4v1.5c0,0.8-1.5,1.5-3.4,1.5c-1.9,0-3.4-0.6-3.4-1.5v-1.5H464z"/>
			<ellipse fill="#F7515E" cx="464" cy="439.1" rx="3.4" ry="1.5"/>
			<path fill="#F7515E" d="M458.2,448c0,1.5,2.5,2.5,5.5,2.5c0,0,0.6,0,0.8,0h0.2c2.9,0,5.5-1.1,5.5-2.5v4.4v5l0,0
				c0,1.5-2.5,2.5-5.5,2.5h-0.2c0,0-0.6,0-0.8,0c-2.9,0-5.5-1.1-5.5-2.5l0,0v-5V448z"/>
		</g>
		<rect x="465.1" y="431.8" fill="#9480A0" width="3.2" height="66"/>
		<g>
			<path fill="#722D3B" d="M461.9,495.6c0,2.7,1.7,6.1,3.8,7.1c2.1,1.3,3.8,0,3.8-2.9c0-2.7-1.7-6.1-3.8-7.1
				C463.8,491.4,461.9,492.7,461.9,495.6z"/>
			<polygon fill="#722D3B" points="460.7,494.2 463.6,492.5 468.2,503 465.3,504.7 			"/>
			<path fill="#843845" d="M459,497.3c0,2.7,1.7,6.1,3.8,7.1c2.1,1.3,3.8,0,3.8-2.9s-1.7-6.1-3.8-7.1
				C460.7,493.3,459,494.6,459,497.3z"/>
			<path fill="#FFFFFF" d="M460.7,498.4c0,1.5,0.8,2.9,1.9,3.6c1.1,0.6,1.9,0,1.9-1.5s-0.8-2.9-1.9-3.6
				C461.5,496.3,460.7,497.1,460.7,498.4z"/>
			<path fill="#C4B5CA" d="M468,494.8l-3.6,2.1c0,0-0.8,2.1-1.3,2.9c-0.4,0.8-2.5-0.6-2.5-3.4c0-1.5,0-3.2,0-3.2l4.6-2.5
				C465.1,490.6,468,491.4,468,494.8z"/>
		</g>
		<rect x="513.6" y="410.8" fill="#9480A0" width="3.2" height="58.6"/>
		<g>
			<path fill="#722D3B" d="M510.7,467.3c0,2.7,1.7,6.1,3.8,7.1c2.1,1.3,3.8,0,3.8-2.9c0-2.7-1.7-6.1-3.8-7.1
				C512.4,463.3,510.7,464.6,510.7,467.3z"/>
			<polygon fill="#722D3B" points="509.2,465.8 512.1,464.1 517,474.6 513.8,476.5 			"/>
			<path fill="#843845" d="M507.5,469c0,2.7,1.7,6.1,3.8,7.1c2.1,1.3,3.8,0,3.8-2.9c0-2.7-1.7-6.1-3.8-7.1
				C509.2,465,507.5,466.2,507.5,469z"/>
			<path fill="#FFFFFF" d="M509.2,470c0,1.5,0.8,2.9,1.9,3.6c1.1,0.6,1.9,0,1.9-1.5c0-1.5-0.8-2.9-1.9-3.6
				C510,468.1,509.2,468.8,509.2,470z"/>
			<path fill="#C4B5CA" d="M516.6,466.7l-3.6,2.1c0,0-0.8,2.1-1.3,2.9s-2.5-0.6-2.5-3.4c0-1.5,0-3.2,0-3.2l4.6-2.5
				C513.8,462.2,516.6,463.1,516.6,466.7z"/>
		</g>
		<g>
			<polygon fill="#F2EDF4" points="516.8,407.2 466.4,436 429.4,415 480,386.2 			"/>
			<polygon fill="#9480A0" points="516.8,407.2 516.8,410.8 466.4,439.6 466.4,436 			"/>
			<polygon fill="#C4B5CA" points="429.4,415 429.4,418.5 466.4,439.6 466.4,436 			"/>
		</g>
		<g>
			<polygon fill="#F4F4F4" points="438,416 466.1,432 509.6,407.4 481.5,391.4 			"/>
			<polygon fill="#843845" points="481.7,392.5 442.6,414.8 466.1,428.2 505.4,405.9 			"/>
			<g>
				<path fill="#A04D5F" d="M481.5,389.3L438,413.9l28.1,16l43.5-24.6L481.5,389.3z M442.6,414.8l39.1-22.3l23.7,13.4l-39.3,22.3
					L442.6,414.8z"/>
			</g>
			<polygon fill="#843845" points="466.1,430.1 466.1,432 438,416 438,414.1 			"/>
			<polygon fill="#722D3B" points="466.1,430.1 466.1,432 509.6,407.4 509.6,405.5 			"/>
			<polygon fill="#722D3B" points="441.1,413.9 442.6,414.8 481.7,392.5 481.7,390.8 			"/>
			<polygon fill="#722D3B" points="506.9,405.3 481.7,390.8 481.7,392.5 505.4,405.9 			"/>
		</g>
		<g>
			<path fill="#EA4458" d="M461.1,403.6c-1.1,0-2.1-0.4-2.1-1.1v8.4c0,1.1,1.1,2.1,2.1,2.1c1.3,0,2.1-0.8,2.1-2.1v-8.4
				C463.2,403.2,462.4,403.6,461.1,403.6z"/>
			<path fill="#EA4458" d="M467.6,400.1c-1.1,0-2.1-0.4-2.1-1.1v8.4c0,1.1,1.1,2.1,2.1,2.1c1.3,0,2.1-0.8,2.1-2.1V399
				C469.5,399.6,468.7,400.1,467.6,400.1z"/>
			<path fill="#EA4458" d="M473.5,396.7c-1.1,0-2.1-0.4-2.1-1.1v8.4c0,1.1,1.1,2.1,2.1,2.1c1.1,0,2.1-0.8,2.1-2.1v-8.4
				C475.6,396.3,474.8,396.7,473.5,396.7z"/>
			<g>
				<path fill="#C4B5CA" d="M486.5,401.5l-8.2-4.6c0,0-1.1-2.9,1.9-3.6c2.7-0.4,5,0.2,5.7,0.6c0.6,0.4,1.1,0.6,1.1,2.3
					C486.7,398.4,486.5,401.5,486.5,401.5z"/>
				<path fill="#F2EDF4" d="M448.9,413.7l8,4.6c0,0,0-5.9,0.4-6.9c0.4-1.1,0.4-2.1,3.6-3.8c3.2-1.7,25-13.7,25-13.7l-8-4.6
					c0,0-2.3,0.4-4.6,2.1c-2.3,1.7-18.9,10.7-20.4,11.3c-1.5,0.6-3.2,2.5-3.6,3.8C448.9,408,448.9,413.7,448.9,413.7z"/>
				<g>
					<path fill="#9480A0" d="M485.5,394.4c0.2,0,0.2,0,0.4,0.2c0.4,0.2,0.6,0.8,0.6,1.5v5.7l0.4-0.2v-5.7c0-0.8-0.4-1.7-0.8-1.9
						c-0.4-0.2-1.1-0.2-1.7,0.2l-25.2,14.1c-1.3,0.6-2.3,2.7-2.3,4.4v5.7l0.4-0.2v-5.5c0-1.5,1.1-3.2,2.1-3.8l25.2-14.1
						C485,394.4,485.3,394.4,485.5,394.4z"/>
				</g>
			</g>
			<g>
				<path fill="#FFFFFF" d="M461.1,397.1c1.1,0,2.1,0.4,2.1,1.1v-6.7c0-1.1-1.1-2.1-2.1-2.1c-1.3,0-2.1,0.8-2.1,2.1v6.7
					C459,397.5,460.1,397.1,461.1,397.1z"/>
				<g>
					<path fill="#F7515E" d="M461.1,399.4c1.1,0,2.1-0.4,2.1-1.1v-0.2c0-0.6-1.1-1.1-2.1-1.1c-1.1,0-2.1,0.4-2.1,1.1v0.2
						C459,399,460.1,399.4,461.1,399.4z"/>
					<path fill="#EA4458" d="M461.1,399.4c1.1,0,2.1-0.4,2.1-1.1v4.2v0.2c0,0.6-1.1,1.1-2.1,1.1c-1.1,0-2.1-0.4-2.1-1.1v-0.2v-4.2
						C459,399,460.1,399.4,461.1,399.4z"/>
				</g>
				<g>
					<ellipse fill="#C4B5CA" cx="461.1" cy="390.8" rx="3.2" ry="1.9"/>
					<rect x="458" y="389.8" fill="#C4B5CA" width="6.3" height="0.8"/>
					<ellipse fill="#F4F4F4" cx="461.1" cy="389.8" rx="3.2" ry="1.9"/>
					<ellipse fill="#C4B5CA" cx="461.1" cy="389.6" rx="2.1" ry="1.1"/>
				</g>
			</g>
			<g>
				<path fill="#FFFFFF" d="M467.6,393.5c1.1,0,2.1,0.4,2.1,1.1v-6.7c0-1.1-1.1-2.1-2.1-2.1c-1.3,0-2.1,0.8-2.1,2.1v6.7
					C465.5,394,466.4,393.5,467.6,393.5z"/>
				<g>
					<path fill="#F7515E" d="M467.6,395.9c1.1,0,2.1-0.4,2.1-1.1v-0.2c0-0.6-1.1-1.1-2.1-1.1s-2.1,0.4-2.1,1.1v0.2
						C465.5,395.4,466.4,395.9,467.6,395.9z"/>
					<path fill="#EA4458" d="M467.6,395.9c1.1,0,2.1-0.4,2.1-1.1v4.2v0.2c0,0.6-1.1,1.1-2.1,1.1s-2.1-0.4-2.1-1.1V399v-4.2
						C465.5,395.4,466.4,395.9,467.6,395.9z"/>
				</g>
				<g>
					<ellipse fill="#C4B5CA" cx="467.6" cy="387.2" rx="3.2" ry="1.9"/>
					<rect x="464.5" y="386.2" fill="#C4B5CA" width="6.3" height="0.8"/>
					<ellipse fill="#F4F4F4" cx="467.6" cy="386.2" rx="3.2" ry="1.9"/>
					<ellipse fill="#C4B5CA" cx="467.6" cy="386" rx="2.1" ry="1.1"/>
				</g>
			</g>
			<g>
				<path fill="#FFFFFF" d="M473.5,390.2c1.1,0,2.1,0.4,2.1,1.1v-6.7c0-1.1-1.1-2.1-2.1-2.1c-1.3,0-2.1,0.8-2.1,2.1v6.7
					C471.4,390.6,472.4,390.2,473.5,390.2z"/>
				<g>
					<path fill="#F7515E" d="M473.5,392.3c1.1,0,2.1-0.4,2.1-1.1V391c0-0.6-1.1-1.1-2.1-1.1c-1.1,0-2.1,0.4-2.1,1.1v0.2
						C471.4,391.9,472.4,392.3,473.5,392.3z"/>
					<path fill="#EA4458" d="M473.5,392.3c1.1,0,2.1-0.4,2.1-1.1v4.2v0.2c0,0.6-1.1,1.1-2.1,1.1c-1.1,0-2.1-0.4-2.1-1.1v-0.2v-4.2
						C471.4,391.9,472.4,392.3,473.5,392.3z"/>
				</g>
				<g>
					<ellipse fill="#C4B5CA" cx="473.5" cy="383.7" rx="3.2" ry="1.9"/>
					<rect x="470.3" y="382.8" fill="#C4B5CA" width="6.3" height="0.8"/>
					<ellipse fill="#F4F4F4" cx="473.5" cy="382.6" rx="3.2" ry="1.9"/>
					<ellipse fill="#C4B5CA" cx="473.5" cy="382.6" rx="2.1" ry="1.1"/>
				</g>
			</g>
		</g>
		<g>
			<path fill="#EA4458" d="M472.9,410.1c-1.1,0-2.1-0.4-2.1-1.1v8.4c0,1.1,1.1,2.1,2.1,2.1c1.3,0,2.1-0.8,2.1-2.1v-8.4
				C475,409.7,473.9,410.1,472.9,410.1z"/>
			<path fill="#EA4458" d="M479.2,406.6c-1.1,0-2.1-0.4-2.1-1.1v8.4c0,1.1,1.1,2.1,2.1,2.1c1.3,0,2.1-0.8,2.1-2.1v-8.4
				C481.3,406.2,480.4,406.6,479.2,406.6z"/>
			<path fill="#EA4458" d="M485.3,403.2c-1.1,0-2.1-0.4-2.1-1.1v8.4c0,1.1,1.1,2.1,2.1,2.1c1.3,0,2.1-0.8,2.1-2.1v-8.4
				C487.4,402.8,486.3,403.2,485.3,403.2z"/>
			<g>
				<path fill="#C4B5CA" d="M498.3,408l-8.2-4.6c0,0-1.1-2.9,1.9-3.6c2.7-0.4,5,0.2,5.7,0.6c0.6,0.4,1.1,0.6,1.1,2.3
					C498.5,404.9,498.3,408,498.3,408z"/>
				<path fill="#F2EDF4" d="M460.5,420.2l8,4.6c0,0,0-5.9,0.4-6.9c0.4-1.1,0.4-2.1,3.6-3.8c3.2-1.7,25-13.7,25-13.7l-8-4.6
					c0,0-2.3,0.4-4.6,2.1c-2.5,1.7-18.9,10.7-20.4,11.3c-1.5,0.6-3.2,2.5-3.6,3.8C460.7,414.6,460.5,420.2,460.5,420.2z"/>
				<g>
					<path fill="#9480A0" d="M497.2,400.9c0.2,0,0.2,0,0.4,0.2c0.4,0.2,0.6,0.8,0.6,1.5v5.7l0.4-0.2v-5.5c0-0.8-0.4-1.7-0.8-1.9
						c-0.4-0.2-1.1-0.2-1.7,0.2L471,415c-1.3,0.6-2.3,2.7-2.3,4.4v5.7l0.4-0.2V419c0-1.5,1.1-3.2,2.1-3.8l25.2-14.1
						C496.6,400.9,497,400.9,497.2,400.9z"/>
				</g>
			</g>
			<g>
				<path fill="#FFFFFF" d="M472.9,403.6c1.1,0,2.1,0.4,2.1,1.1V398c0-1.1-1.1-2.1-2.1-2.1c-1.3,0-2.1,0.8-2.1,2.1v6.7
					C470.8,404.1,471.6,403.6,472.9,403.6z"/>
				<g>
					<path fill="#F7515E" d="M472.9,405.9c1.1,0,2.1-0.4,2.1-1.1v-0.2c0-0.6-1.1-1.1-2.1-1.1s-2.1,0.4-2.1,1.1v0.2
						C470.8,405.3,471.6,405.9,472.9,405.9z"/>
					<path fill="#EA4458" d="M472.9,405.9c1.1,0,2.1-0.4,2.1-1.1v4.2v0.2c0,0.6-1.1,1.1-2.1,1.1s-2.1-0.4-2.1-1.1v-0.2v-4.2
						C470.8,405.3,471.6,405.9,472.9,405.9z"/>
				</g>
				<g>
					<ellipse fill="#C4B5CA" cx="472.9" cy="397.3" rx="3.2" ry="1.9"/>
					<rect x="469.7" y="396.3" fill="#C4B5CA" width="6.3" height="0.8"/>
					<ellipse fill="#F4F4F4" cx="472.9" cy="396.3" rx="3.2" ry="1.9"/>
					<ellipse fill="#C4B5CA" cx="472.9" cy="396.1" rx="2.1" ry="1.1"/>
				</g>
			</g>
			<g>
				<path fill="#FFFFFF" d="M479.2,400.1c1.1,0,2.1,0.4,2.1,1.1v-6.7c0-1.1-1.1-2.1-2.1-2.1c-1.3,0-2.1,0.8-2.1,2.1v6.7
					C477.1,400.5,478.1,400.1,479.2,400.1z"/>
				<g>
					<path fill="#F7515E" d="M479.2,402.4c1.1,0,2.1-0.4,2.1-1.1v-0.2c0-0.6-1.1-1.1-2.1-1.1s-2.1,0.4-2.1,1.1v0.2
						C477.1,401.7,478.1,402.4,479.2,402.4z"/>
					<path fill="#EA4458" d="M479.2,402.4c1.1,0,2.1-0.4,2.1-1.1v4.2v0.2c0,0.6-1.1,1.1-2.1,1.1s-2.1-0.4-2.1-1.1v-0.2v-4.2
						C477.1,401.7,478.1,402.4,479.2,402.4z"/>
				</g>
				<g>
					<ellipse fill="#C4B5CA" cx="479.2" cy="393.8" rx="3.2" ry="1.9"/>
					<rect x="476" y="392.7" fill="#C4B5CA" width="6.3" height="0.8"/>
					<ellipse fill="#F4F4F4" cx="479.2" cy="392.7" rx="3.2" ry="1.9"/>
					<ellipse fill="#C4B5CA" cx="479.2" cy="392.5" rx="2.1" ry="1.1"/>
				</g>
			</g>
			<g>
				<path fill="#FFFFFF" d="M485.3,396.7c1.1,0,2.1,0.4,2.1,1.1V391c0-1.1-1.1-2.1-2.1-2.1c-1.3,0-2.1,0.8-2.1,2.1v6.7
					C483.2,397.1,484,396.7,485.3,396.7z"/>
				<g>
					<path fill="#F7515E" d="M485.3,398.8c1.1,0,2.1-0.4,2.1-1.1v-0.2c0-0.6-1.1-1.1-2.1-1.1s-2.1,0.4-2.1,1.1v0.2
						C483.2,398.4,484,398.8,485.3,398.8z"/>
					<path fill="#EA4458" d="M485.3,398.8c1.1,0,2.1-0.4,2.1-1.1v4.2v0.2c0,0.6-1.1,1.1-2.1,1.1s-2.1-0.4-2.1-1.1V402v-4.2
						C483.2,398.4,484,398.8,485.3,398.8z"/>
				</g>
				<g>
					<ellipse fill="#C4B5CA" cx="485.3" cy="390.2" rx="3.2" ry="1.9"/>
					<rect x="482.1" y="389.3" fill="#C4B5CA" width="6.3" height="0.8"/>
					<ellipse fill="#F4F4F4" cx="485.3" cy="389.1" rx="3.2" ry="1.9"/>
					<ellipse fill="#C4B5CA" cx="485.3" cy="389.1" rx="2.1" ry="1.1"/>
				</g>
			</g>
		</g>
	</g>
</g>
</svg>
