<?xml version="1.0" encoding="utf-8"?>
<!-- Generator: Adobe Illustrator 18.0.0, SVG Export Plug-In . SVG Version: 6.00 Build 0)  -->
<!DOCTYPE svg PUBLIC "-//W3C//DTD SVG 1.1//EN" "http://www.w3.org/Graphics/SVG/1.1/DTD/svg11.dtd">
<svg version="1.1" id="Layer_1" xmlns="http://www.w3.org/2000/svg" xmlns:xlink="http://www.w3.org/1999/xlink" x="0px" y="0px"
	 viewBox="0 0 457 228" enable-background="new 0 0 457 228" xml:space="preserve">
<g>
	<polygon fill="#FFC9A2" points="276.2,57.9 3,212.7 16.4,226.1 16.4,226.1 20.2,230 456.8,230 456.8,160.9 	"/>
	<polygon fill="#722D3B" points="0.2,208.7 0.2,209.9 3,212.7 276.2,57.9 276.2,52.6 	"/>
	<polygon fill="#913F4C" points="456.8,160.9 276.2,57.9 276.1,52.6 456.8,155.2 	"/>
</g>
<g>
	<g>
		<g opacity="0.5">
			<polygon fill="#FFA177" points="357.6,145.2 415.7,177.7 451.1,157.6 393.1,125.2 			"/>
		</g>
		<g opacity="0.5">
			<polygon fill="#FFA177" points="232.2,206.9 201.5,223.9 177,209.9 207.7,193 			"/>
		</g>
		<g opacity="0.5">
			<path fill="#FFA177" d="M287.7,106.5l-40.3-22.9c-3.9-2.2-3.4-6.2,1.1-8.7l16-9.1c4.5-2.6,11.4-2.9,15.3-0.6l40.3,22.9
				c3.9,2.2,3.4,6.2-1.1,8.7l-16,9.1C298.5,108.4,291.6,108.7,287.7,106.5z"/>
		</g>
		<g opacity="0.5">
			<path fill="#FFA177" d="M352.6,132l-28.2-16c-2.7-1.6-2.4-4.3,0.8-6.1l11.2-6.4c3.2-1.8,8-2,10.7-0.4l28.2,16
				c2.7,1.6,2.4,4.3-0.8,6.1l-11.2,6.4C360.2,133.4,355.4,133.6,352.6,132z"/>
		</g>
		<g opacity="0.5">
			<path fill="#FFA177" d="M242,189.4c0-5.5,8-10,17.9-10c9.1,0,16.7,3.8,17.8,8.7l61.5-35.1l32.3,18.1l-95.8,54.7l-32.3-18.1
				l14.6-8.4C249.1,198.9,242,194.6,242,189.4z"/>
		</g>
		<g opacity="0.5">
			<path fill="#FFA177" d="M158.8,143.9c-3.4-2.1-5.6-4.9-5.6-7.9c0-6.5,9.5-11.8,21.2-11.8c5.3,0,10.1,1.1,13.8,2.9l43.9-25
				l32.3,18.1l-95.8,54.7l-32.3-18.1L158.8,143.9z"/>
		</g>
	</g>
	<g>
		<g>
			<g>
				<polygon fill="#9480A0" points="295,84 318.5,70.7 318.5,72.3 295,85.7 				"/>
				<polygon fill="#9480A0" points="295,90.8 318.5,77.4 318.5,79.1 295,92.5 				"/>
				<g>
					<g>
						<polygon fill="#9480A0" points="295.8,71.6 295.8,105.1 294.1,105.2 294.1,71.6 						"/>
					</g>
					<ellipse fill="#9480A0" cx="295" cy="105.1" rx="0.8" ry="0.4"/>
				</g>
				<g>
					<g>
						<polygon fill="#9480A0" points="319.3,60.4 319.3,91.7 317.7,91.8 317.7,60.4 						"/>
					</g>
					<ellipse fill="#9480A0" cx="318.5" cy="91.7" rx="0.8" ry="0.4"/>
				</g>
			</g>
			<g>
				<polygon fill="#9480A0" points="248.5,57.6 272,44.3 272,45.9 248.5,59.3 				"/>
				<polygon fill="#9480A0" points="248.5,64.4 272,51.1 272,52.7 248.5,66.1 				"/>
				<g>
					<g>
						<polygon fill="#9480A0" points="249.3,48.4 249.3,78.7 247.6,78.8 247.6,48.4 						"/>
					</g>
					<ellipse fill="#9480A0" cx="248.5" cy="78.7" rx="0.8" ry="0.4"/>
				</g>
				<g>
					<g>
						<polygon fill="#9480A0" points="272.8,38.9 272.8,65.3 271.1,65.4 271.1,38.9 						"/>
					</g>
					<ellipse fill="#9480A0" cx="272" cy="65.3" rx="0.8" ry="0.4"/>
				</g>
			</g>
			<g>
				<path fill="#C4B5CA" d="M286.8,78.8l-40.3-22.9c-3.9-2.2-3.4-6.2,1.1-8.7l16-9.1c4.5-2.6,11.4-2.9,15.3-0.6l40.3,22.9
					c3.9,2.2,3.4,6.2-1.1,8.7l-16,9.1C297.6,80.8,290.7,81,286.8,78.8z"/>
				<rect x="318.9" y="61.9" fill="#C4B5CA" width="2.9" height="2.9"/>
				<rect x="243.9" y="49.5" fill="#C4B5CA" width="2.9" height="2.9"/>
				<path fill="#F2EDF4" d="M286.8,76.6l-40.3-22.9c-3.9-2.2-3.4-6.2,1.1-8.7l16-9.1c4.5-2.6,11.4-2.9,15.3-0.6l40.3,22.9
					c3.9,2.2,3.4,6.2-1.1,8.7l-16,9.1C297.6,78.5,290.7,78.8,286.8,76.6z"/>
			</g>
		</g>
		<g>
			<g>
				<path fill="#722D3B" d="M252.4,53.7l31.8,18.1c1.7,1,4.8,0.9,6.8-0.3l19.2-10.9c2-1.1,2.2-2.9,0.5-3.9l-31.8-18.1
					c-1.7-1-4.8-0.9-6.8,0.3l-19.2,10.9C250.8,50.9,250.6,52.7,252.4,53.7z"/>
				<rect x="308.2" y="56.7" fill="#722D3B" width="3.6" height="1.9"/>
				<rect x="251.2" y="50.1" fill="#722D3B" width="3.6" height="1.9"/>
				<path fill="#843845" d="M252.4,51.9L284.1,70c1.7,1,4.8,0.9,6.8-0.3l19.2-10.9c2-1.1,2.2-2.9,0.5-3.9l-31.8-18.1
					c-1.7-1-4.8-0.9-6.8,0.3l-19.2,10.9C250.8,49.2,250.6,50.9,252.4,51.9z"/>
			</g>
			<g>
				<g>
					<path fill="#DED3E2" d="M297.6,31.3l7.1-4.1c0.8-0.5,1.6-0.5,2.3-0.2c0.8,0.4,1.2,1.4,1.2,2.7v25.2c-0.2,0.1-0.4-0.1-0.7,0
						V29.7c0-1-0.3-1.8-0.9-2.1c-0.2-0.1-0.4-0.2-0.6-0.2c-0.3,0-0.7,0.1-1,0.3l-7.1,4.1C297.8,31.6,297.7,31.5,297.6,31.3z"/>
					<ellipse fill="#DED3E2" cx="307.9" cy="54.9" rx="0.3" ry="0.2"/>
				</g>
				<g>
					<path fill="#DED3E2" d="M289.5,26.7l7.1-4.1c0.8-0.5,1.6-0.5,2.3-0.2c0.8,0.4,1.2,1.4,1.2,2.7v25.2c-0.2,0.1-0.4-0.1-0.7,0
						V25.1c0-1-0.3-1.8-0.9-2.1c-0.2-0.1-0.4-0.2-0.6-0.2c-0.3,0-0.7,0.1-1,0.3l-7.1,4.1C289.7,27,289.6,26.9,289.5,26.7z"/>
					<ellipse fill="#DED3E2" cx="299.8" cy="50.3" rx="0.3" ry="0.2"/>
				</g>
				<g>
					<path fill="#DED3E2" d="M281.8,22.3l7.1-4.1c0.8-0.5,1.6-0.5,2.3-0.2c0.8,0.4,1.2,1.4,1.2,2.7v25.2c-0.2,0.1-0.4-0.1-0.7,0
						V20.7c0-1-0.3-1.8-0.9-2.1c-0.2-0.1-0.4-0.2-0.6-0.2c-0.3,0-0.7,0.1-1,0.3l-7.1,4.1C282,22.6,281.9,22.4,281.8,22.3z"/>
					<ellipse fill="#DED3E2" cx="292" cy="45.9" rx="0.3" ry="0.2"/>
				</g>
				<g>
					<path fill="#DED3E2" d="M273.9,17.8l7.1-4.1c0.8-0.5,1.6-0.5,2.3-0.2c0.8,0.4,1.2,1.4,1.2,2.7v25.2c-0.2,0.1-0.4-0.1-0.7,0
						V16.3c0-1-0.3-1.8-0.9-2.1c-0.2-0.1-0.4-0.2-0.6-0.2c-0.3,0-0.7,0.1-1,0.3l-7.1,4.1C274.1,18.2,274,18,273.9,17.8z"/>
					<ellipse fill="#DED3E2" cx="284.2" cy="41.5" rx="0.3" ry="0.2"/>
				</g>
			</g>
			<g>
				<g>
					<path fill="#FFC9A2" d="M273.1,38.4c-0.5-0.7-1.4-2.7-1.7-3.3c-0.7-1.3-1.2-0.8-1.3-0.5c0,0.1-0.1,0.2-0.1,0.3
						c0.3-0.4,0.6-0.3,0.9,0.2c0.4,0.8,1,2.8,1.5,3.6c0.5,0.8,0.7,1,0,1.8c-0.7,0.8-1.2,1.7-1.6,2c0.3,0,0.6,0,0.6,0l2.5-2
						C273.9,40.5,273.9,39.5,273.1,38.4z"/>
					<path fill="#FFA177" d="M272.4,40.5c0.7-0.8,0.5-1,0-1.8c-0.5-0.8-1.1-2.8-1.5-3.6c-0.3-0.6-0.6-0.6-0.9-0.2
						c-0.1,0.7-0.1,1.8-0.4,2.6c-0.2,0.5-0.3,1.8-0.3,2.8c0,0.8,0.4,0.8,0.9,1.9c0.1,0.2,0.3,0.3,0.6,0.3
						C271.2,42.3,271.6,41.3,272.4,40.5z"/>
				</g>
				<g>
					<path fill="#FFC9A2" d="M269.6,56c1.4-0.1,3.7-1.5,5-2.6c0.3-0.2,0.5-0.4,0.6-0.5V51c0,0-2.1,1.5-3.6,2.6
						c-0.8,0.6-2.8,0.5-3.3,1.3c-0.1,0.2-0.2,0.5-0.2,0.8C268.4,55.9,268.9,56.1,269.6,56z"/>
					<path fill="#FFA177" d="M270.7,56.8c1-0.3,2.1-1.2,2.7-1.6c1.5-1,1.8-1.5,1.8-1.5v-0.7c-0.2,0.1-0.4,0.3-0.6,0.5
						c-1.3,1.1-3.6,2.5-5,2.6c-0.7,0.1-1.2-0.1-1.5-0.3C268.1,56.5,268.7,57.3,270.7,56.8z"/>
					<path fill="#FFA177" d="M273.2,52.9c0,0,0.4,0.4,0.4,1.1c0.1,0.5-0.1,0.7-0.1,0.7s0.4-0.4,0.4-0.4
						C274,54.2,274.3,53.3,273.2,52.9z"/>
				</g>
				<g>
					<g>
						<path fill="#FFC9A2" d="M291,41.6c-3.1-2.3-7.6-2.6-9.2-1.6c-0.4,0.2-0.9,0.6-1.4,1.1c0.4,0,0.9,0.1,1.2,0.2
							c1.3,0.6,2.7,1.7,2.7,1.7s-1.2-0.3-1.7-0.5c-0.5-0.1-1.3-0.5-1.3-0.5s1.5,1.5,1.7,1.7c0.2,0.2,0.7,0.7,0.7,0.7
							s-1.5-0.7-1.8-0.9c-0.7-0.5-1.3-0.9-1.3-0.9s0.8,1.1,1.2,2.2c0.2,0.5,0.1,1.7,0.1,1.7s-0.1-0.9-0.6-1.7
							c-0.5-0.9-0.9-1.3-0.9-1.3s0.6,2,0.1,4c-0.4,1.6-1.6,2.6-1.6,2.6s0.1-2.2,0-2.9c-0.1-0.5-0.3-2.9-0.5-4.4
							c-1.2,1-2.2,1.8-2.7,1.6c-1-0.4-3.4,0.6-3.4,0.6s0,0.1,0.1,0.3l5.2,0.5c0,0-0.8,2.5-1.1,3.3c-0.3,0.7-0.3,3.1,0,4.4
							c0.3,1.3,1.6,2.1,2.7,2c1.1-0.1,2.3-1,4-0.7c0.6,0.1,1,0.4,1.1,0.9c0.7-0.3,1.5-0.7,2.2-1.2c0.8-0.5,2.9,0,3.6-0.3
							c3.4-1.4,4.4-3.7,4.8-4.8C295.2,48.2,294.1,43.9,291,41.6z"/>
						<path fill="#FFA177" d="M278.9,50.1c0,0,1.2-1,1.6-2.6c0.4-2-0.1-4-0.1-4s0.4,0.4,0.9,1.3c0.4,0.8,0.6,1.7,0.6,1.7
							s0.1-1.2-0.1-1.7c-0.4-1.1-1.2-2.2-1.2-2.2s0.6,0.4,1.3,0.9c0.3,0.2,1.8,0.9,1.8,0.9s-0.5-0.5-0.7-0.7
							c-0.2-0.2-1.7-1.7-1.7-1.7s0.8,0.4,1.3,0.5c0.5,0.1,1.7,0.5,1.7,0.5s-1.3-1.1-2.7-1.7c-0.4-0.2-0.8-0.2-1.2-0.2
							c-0.6,0.5-1.3,1.1-1.9,1.7c0.2,1.6,0.4,3.9,0.5,4.4C279,48,278.9,50.1,278.9,50.1z"/>
					</g>
					<path fill="#FFA177" d="M283.1,54.7c-1.8-0.3-3,0.6-4,0.7c-1.1,0.1-2.4-0.7-2.7-2c-0.3-1.3-0.3-3.7,0-4.4
						c0.3-0.7,1.1-3.3,1.1-3.3l-5.2-0.5c0.3,1.3,1.6,6.5,1.6,7.8c0,1.4,1.1,2.4,2,2.8c0.9,0.4,1.8,1.4,3.5,1.3
						c0.4,0,2.4-0.4,4.8-1.5C284.1,55.1,283.7,54.8,283.1,54.7z"/>
				</g>
				<g>
					<path fill="#FFC9A2" d="M285.9,49.8c-2.3-0.6-4.3-0.9-4.3-0.9c-2.2,0.3-2.7,4.3-1.2,5.6c1.5,1.3,2.7,0.9,2.7,0.9
						s-1.7,2.1-3,2.6c-0.7,0.3-0.8,0.9-0.5,1.5c1,0.2,2.3-0.4,2.6-0.7c0.5-0.3,1.9-1.4,1.9-1.4s-0.9-0.1-1.6-0.5
						c0.7,0.1,1.2,0.1,1.8-0.2c0.7-0.3,1-1.1,1-1.1s-0.5-0.2-0.9-0.4c0.4-0.1,1.2-0.1,1.2-0.1s-0.7-0.8-0.8-1.3
						c0.4,0.1,1.4,0.8,1.4,0.8l-0.7-1.8c0,0,0.6,0.3,1.1,1.1c0.1,0.2,0.3,0.6,0.4,0.9c0.2-0.3,0.4-0.6,0.6-0.9
						C289,51.8,287.6,50.3,285.9,49.8z"/>
					<path fill="#FFA177" d="M285.5,52.9l0.7,1.8c0,0-1-0.7-1.4-0.8c0.1,0.5,0.8,1.3,0.8,1.3s-0.8,0-1.2,0.1
						c0.5,0.2,0.9,0.4,0.9,0.4s-0.3,0.8-1,1.1c-0.6,0.2-1.1,0.2-1.8,0.2c0.7,0.5,1.6,0.5,1.6,0.5s-1.4,1.1-1.9,1.4
						c-0.4,0.3-1.6,0.8-2.6,0.7c0.2,0.5,0.7,0.8,1.3,0.8c0.7,0,2.1-1,2.5-1.4c0.3-0.4,2-2.1,3.4-4c-0.1-0.3-0.2-0.7-0.4-0.9
						C286.1,53.2,285.5,52.9,285.5,52.9z"/>
				</g>
				<path fill="#FFC9A2" d="M290.2,51c0,0,0.1,2.3-0.7,2.8c-0.8,0.5-3.1,1.8-1.6,3c0.6,0.5,2.5-0.9,3.1-1.3c1.3-0.8,2.3-1.6,2.1-2.8
					c1.4-1.4,1.8-2.9,1.8-3.7C294.9,47.1,290.2,51,290.2,51z"/>
				<path fill="#FFA177" d="M278.9,46c0,0-0.1,1.4-0.4,2.5c-0.3,1-0.3,2.2-0.3,2.2s-0.7-0.6-0.4-1.7c0.3-1.1,0-2.2,0-2.2L278.9,46z"
					/>
				<path fill="#FFA177" d="M277.4,47.5c0,0-0.1,0.8-0.2,1.6c-0.1,0.6,0.2,1.2,0.2,1.6c-0.4-0.2-1.3-0.9-1.3-1.9
					C276.1,47.6,277.4,47.5,277.4,47.5z"/>
				<path fill="#FFC9A2" d="M275.9,39.7c-3.2-1.2-4.3,1.5-5.1,1.6c-0.8,0.1-0.9,2.3-0.9,3.3c0,0.7-0.2,1.5-0.5,2.3
					c-0.1,0.4,0.5,1,1.1,1.5c1.6,1.3,4.7,0.6,6.6,0c1.6-0.6,3.2-1.3,3-2.7c-0.1-0.8,0.1-1.8-1-3C278.3,41.8,277.4,40.3,275.9,39.7z"
					/>
				<path fill="#FFC9A2" d="M276.4,41.6c0,0,1.6-1.7,2.2-2.1c0.7-0.5,1.5-0.5,1.4,0.7c0,0.8,0.3,2.8,0,3.6c-0.6,1.9-1.9,1.9-1.9,1.9
					L276.4,41.6z"/>
				<path fill="#FFA177" d="M282.6,48.4c0,0,1,0.6,2.4,0.5c1.4-0.1,2.4,0.3,2.8,0.8c0.4,0.5,0.4,1.4,0.4,2.2c0,0.9-0.7,2.2-0.7,2.2
					s1.1,0.2,1.6-0.1c0.5-0.3,1-0.5,1.1-1.4c0.1-0.9,0.2-2.7,0.6-3.5c0.4-0.9,0.7-1.6,0.7-1.6s-0.9,0.2-1.3,0.9
					c-0.4,0.8-0.6,1.6-0.6,1.6s-0.3-1.4,0.1-2.5c0.5-1.1,0.7-1.6,0.7-1.6s-1.1,0.4-1.4,1.6c-0.3,1-0.4,2-0.4,2s-0.4-1.8-1.1-2.3
					c-0.7-0.5-2.7-1.2-2.7-1.2s0.6,0.7,1.1,1.1c0.5,0.3,1.1,1.3,1.1,1.3s-1.7-0.8-2.5-1.2c-0.7-0.4-2-1.1-2-1.1s1,1.1,1.7,1.6
					c0.3,0.2,1.2,0.8,1.2,0.8S283.6,48.6,282.6,48.4z"/>
				<path fill="#FFDFCA" d="M294.9,48.9c0,0,0,2.1-0.3,3c-0.4,1-1.3,3.2-3.4,3.4c-0.9,0.1-2.5-0.2-3.4-1.1c-1.4-1.3-1.9-2.5-0.7-4.8
					c1.7-3.2,5.1-1.2,5.3,0.7c0.1,1.6-1.1,3.2-3,2.5c1.9-0.5,2.5-2.3,1.5-3.3c-1.1-1.1-3,0-3,2.5c0,1.6,1.8,2.1,2.9,1.9
					c1.5-0.2,2.3-1.2,3-2.2C294.3,50.7,294.9,48.9,294.9,48.9z"/>
				<path fill="#FFA177" d="M272.6,53.4c0,0,0.3,0.4,0.3,0.9c0,0.5-0.1,0.9-0.1,0.9l0.4-0.4c0,0,0.2-0.7-0.1-1
					C273,53.4,272.6,53.4,272.6,53.4z"/>
				<path fill="#FFA177" d="M279.5,39.7c-0.6-0.7-1.3,0.5-1.8,1.3c-0.3,0.6-1,1.4-0.9,1.5c0.1,0.2,0.4,1,0.7,1.6
					c0.2,0.6,0.7,2.4,0.7,2.4s1.5-1.5,1.5-3.3C279.6,41.5,280.2,40.6,279.5,39.7z"/>
				<path fill="#FFA177" d="M272.3,45.9c0,0,0.5-1.9,1.8-1.5c1,0.3,1.1,1.6,1.1,1.6s-0.3,0.5-1.1,0.8c-0.2,0.1-0.7,0.1-1-0.1
					C272.6,46.4,272.3,45.9,272.3,45.9z"/>
				<path fill="#FFA177" d="M269.9,44.7c0,0,0.2,0.3,0.7,0.3c0.1-0.4,0.3-1.1,0.1-2c-0.1-0.4-0.3-0.7-0.6-0.6
					c-0.2,0.1-0.2,0.5-0.2,0.5V44.7z"/>
				<path fill="#ED7854" d="M272.6,45.8c0,0,0.4-1.4,1.5-1.1c0.9,0.3,0.8,1.2,0.8,1.2s-0.5,0.5-1.2,0.5
					C272.9,46.5,272.6,45.8,272.6,45.8z"/>
				<path fill="#ED7854" d="M270.5,44.7c0,0,0.1-0.7,0-1.3c-0.1-0.4-0.4-0.7-0.4-0.7s-0.7,0.9-0.4,1.6
					C269.9,44.8,270.5,44.7,270.5,44.7z"/>
				<path fill="#FFA177" d="M273.1,46c0,0,0.5,0.3,1-0.1c0.3-0.2,0.2-0.7,0.2-0.7s0.5,0.6,0,1C273.6,46.8,273.1,46,273.1,46z"/>
				<path fill="#843845" d="M273.6,45.1c-0.4,0.3-0.4,0.8,0,1.1C273.7,46,273.9,45.3,273.6,45.1z"/>
				<path fill="#FFFFFF" d="M273.5,45.2c0.1,0.2-0.1,0.4-0.3,0.3c-0.1,0-0.1-0.1-0.1-0.1c-0.1-0.2,0.1-0.4,0.3-0.3
					C273.4,45,273.5,45.1,273.5,45.2z"/>
				<path fill="#FFA177" d="M270.3,43.5c0,0-0.1,0.5-0.2,0.7c-0.1,0.1-0.3,0.1-0.3,0.1s0.2,0.4,0.5,0.1
					C270.5,44,270.3,43.5,270.3,43.5z"/>
				<path fill="#843845" d="M270.1,43.1c-0.4,0.3-0.4,0.8,0,1.1C270.2,44.1,270.4,43.4,270.1,43.1z"/>
				<path fill="#FFFFFF" d="M270.2,43.2c0,0.2-0.1,0.3-0.3,0.3c-0.1,0-0.1-0.1-0.1-0.1c0-0.2,0.1-0.3,0.3-0.3
					C270.1,43.1,270.1,43.2,270.2,43.2z"/>
				<path fill="#FFA177" d="M270.4,47.3c0,0,0,0.6,0.4,1c0.5,0.5,1.7,0.8,1.7,0.8s-2.1,0.2-2.5-0.9c-1.2-0.3-0.6-1.4-0.6-1.4
					L270.4,47.3z"/>
				<path fill="#843845" d="M270.1,46.7c-0.4-0.1-0.6-0.1-0.6-0.1s-0.1,0.5,0,0.7c0.2,0.3,0.2,0.4,0.4,0.3c0.3-0.1,0.6-0.2,0.6-0.2
					S270.4,46.8,270.1,46.7z"/>
				<path fill="#FFA177" d="M272.9,43.9c0,0,0.4-0.1,0.8-0.2c0.2,0,0.9-0.1,0.9-0.1S273.5,42.6,272.9,43.9z"/>
				<path fill="#FFA177" d="M270.8,42c0,0,0.1,0.2,0.2,0.4c0.1,0.2,0.1,0.8,0.1,0.8s0.3-0.2,0.2-0.7C271.2,41.9,270.8,42,270.8,42z"
					/>
			</g>
			<g>
				<g>
					<path fill="#DED3E2" d="M261.5,17c0.7-0.4,1.5-0.3,2.3,0.2l29.9,17c1.7,1,3.2,3.7,3.2,5.9v25c-0.2-0.1-0.4,0.1-0.7,0V40.1
						c0-2-1.3-4.5-2.8-5.4l-29.9-17c-0.4-0.2-0.7-0.3-1-0.3c-0.2,0-0.4,0.1-0.6,0.2c-0.6,0.3-0.9,1.1-0.9,2.1v25.2
						c-0.2-0.1-0.4,0.1-0.7,0V19.7C260.3,18.4,260.8,17.5,261.5,17z"/>
				</g>
				<ellipse fill="#DED3E2" cx="296.5" cy="65.1" rx="0.3" ry="0.2"/>
				<ellipse fill="#DED3E2" cx="260.6" cy="44.9" rx="0.3" ry="0.2"/>
			</g>
			<g>
				<g>
					<path fill="#DED3E2" d="M254.5,21c0.7-0.4,1.5-0.3,2.3,0.2l29.9,17c1.7,1,3.2,3.7,3.2,5.9v25c-0.2-0.1-0.4,0.1-0.7,0V44.2
						c0-2-1.3-4.5-2.8-5.4l-29.9-17c-0.4-0.2-0.7-0.3-1-0.3c-0.2,0-0.4,0.1-0.6,0.2c-0.6,0.3-0.9,1.1-0.9,2.1v25.2
						c-0.2-0.1-0.4,0.1-0.7,0V23.7C253.3,22.4,253.7,21.5,254.5,21z"/>
				</g>
				<ellipse fill="#DED3E2" cx="289.5" cy="69.1" rx="0.3" ry="0.2"/>
				<ellipse fill="#DED3E2" cx="253.6" cy="48.9" rx="0.3" ry="0.2"/>
			</g>
			<g>
				<path fill="#DED3E2" d="M286.7,37.4l18-10.3c0.2,0.1,0.4,0.3,0.5,0.4L287.1,38c-1.5,0.9-2.8,3.3-2.8,5.4v24.9
					c-0.2,0.1-0.4-0.1-0.7,0v-25C283.6,41.1,285,38.4,286.7,37.4z"/>
				<ellipse fill="#DED3E2" cx="283.9" cy="68.3" rx="0.3" ry="0.2"/>
			</g>
			<g>
				<path fill="#DED3E2" d="M278.6,32.8l18-10.3c0.2,0.1,0.4,0.3,0.5,0.4L279,33.4c-1.5,0.9-2.8,3.3-2.8,5.4v24.9
					c-0.2,0.1-0.4-0.1-0.7,0v-25C275.5,36.5,276.9,33.8,278.6,32.8z"/>
				<ellipse fill="#DED3E2" cx="275.8" cy="63.7" rx="0.3" ry="0.2"/>
			</g>
			<g>
				<path fill="#DED3E2" d="M270.9,28.4l18-10.3c0.2,0.1,0.4,0.3,0.5,0.4L271.2,29c-1.5,0.9-2.8,3.3-2.8,5.4v24.9
					c-0.2,0.1-0.4-0.1-0.7,0v-25C267.8,32.1,269.2,29.4,270.9,28.4z"/>
				<ellipse fill="#DED3E2" cx="268.1" cy="59.3" rx="0.3" ry="0.2"/>
			</g>
			<g>
				<path fill="#DED3E2" d="M263.1,24l18-10.3c0.2,0.1,0.4,0.3,0.5,0.4l-18.2,10.4c-1.5,0.9-2.8,3.3-2.8,5.4v24.9
					c-0.2,0.1-0.4-0.1-0.7,0v-25C259.9,27.6,261.3,25,263.1,24z"/>
				<ellipse fill="#DED3E2" cx="260.2" cy="54.9" rx="0.3" ry="0.2"/>
			</g>
			<g>
				<g>
					<path fill="#DED3E2" d="M268.3,13.2c0.7-0.4,1.5-0.3,2.3,0.2l29.9,17c1.7,1,3.2,3.7,3.2,5.9v25c-0.2-0.1-0.4,0.1-0.7,0V36.3
						c0-2-1.3-4.5-2.8-5.4l-29.9-17c-0.4-0.2-0.7-0.3-1-0.3c-0.2,0-0.4,0.1-0.6,0.2c-0.6,0.3-0.9,1.1-0.9,2.1V41
						c-0.2-0.1-0.4,0.1-0.7,0V15.8C267.1,14.6,267.5,13.6,268.3,13.2z"/>
				</g>
				<ellipse fill="#DED3E2" cx="303.3" cy="61.3" rx="0.3" ry="0.2"/>
				<ellipse fill="#DED3E2" cx="267.4" cy="41" rx="0.3" ry="0.2"/>
			</g>
			<g>
				<g>
					<path fill="#DED3E2" d="M274.1,9.6c0.7-0.4,1.5-0.3,2.3,0.2l29.9,17c1.7,1,3.2,3.7,3.2,5.9v25c-0.2-0.1-0.4,0.1-0.7,0V32.7
						c0-2-1.3-4.5-2.8-5.4l-29.9-17c-0.4-0.2-0.7-0.3-1-0.3c-0.2,0-0.4,0.1-0.6,0.2c-0.6,0.3-0.9,1.1-0.9,2.1v25.2
						c-0.2-0.1-0.4,0.1-0.7,0V12.3C272.8,11,273.3,10,274.1,9.6z"/>
				</g>
				<ellipse fill="#DED3E2" cx="309" cy="57.7" rx="0.3" ry="0.2"/>
				<ellipse fill="#DED3E2" cx="273.2" cy="37.5" rx="0.3" ry="0.2"/>
			</g>
		</g>
	</g>
	<g>
		<polygon fill="#9480A0" points="373,90.9 342.4,73.4 342.4,75.1 373,92.5 		"/>
		<polygon fill="#9480A0" points="373,97.7 342.4,80.2 342.4,81.9 373,99.3 		"/>
		<g>
			<g>
				<polygon fill="#9480A0" points="325.2,71.3 325.2,114 326.9,113.9 326.9,71.3 				"/>
			</g>
			<ellipse fill="#9480A0" cx="326.1" cy="113.9" rx="0.8" ry="0.4"/>
		</g>
		<g>
			<g>
				<polygon fill="#9480A0" points="355.2,85.4 355.2,130.7 356.9,130.6 356.9,85.4 				"/>
			</g>
			<ellipse fill="#9480A0" cx="356.1" cy="130.6" rx="0.8" ry="0.4"/>
		</g>
		<g>
			<g>
				<polygon fill="#9480A0" points="341.6,67.9 341.6,104.9 343.2,104.8 343.2,67.9 				"/>
			</g>
			<ellipse fill="#9480A0" cx="342.4" cy="104.8" rx="0.8" ry="0.4"/>
		</g>
		<g>
			<g>
				<polygon fill="#9480A0" points="371.5,78.1 371.5,121.7 373.2,121.6 373.2,78.1 				"/>
			</g>
			<ellipse fill="#9480A0" cx="372.4" cy="121.6" rx="0.8" ry="0.4"/>
		</g>
		<g>
			<path fill="#C4B5CA" d="M351.6,89.9l-28.2-16c-2.7-1.6-2.4-4.3,0.8-6.1l11.2-6.4c3.2-1.8,8-2,10.7-0.4l28.2,16
				c2.7,1.6,2.4,4.3-0.8,6.1l-11.2,6.4C359.1,91.3,354.3,91.5,351.6,89.9z"/>
			<rect x="321.5" y="69.6" fill="#C4B5CA" width="5.6" height="1.7"/>
			<rect x="369.5" y="77.6" fill="#F2EDF4" width="6.6" height="2.3"/>
			<path fill="#F2EDF4" d="M351.6,88.2l-28.2-16c-2.7-1.6-2.4-4.3,0.8-6.1l11.2-6.4c3.2-1.8,8-2,10.7-0.4l28.2,16
				c2.7,1.6,2.4,4.3-0.8,6.1l-11.2,6.4C359.1,89.5,354.3,89.7,351.6,88.2z"/>
		</g>
		<g>
			<polygon fill="#AE9CB7" points="339.3,63.9 333,67.5 328.8,65 335,61.5 			"/>
			<polygon fill="#9480A0" points="328.8,65 328.8,65.7 333,68.2 333,67.5 			"/>
			<polygon fill="#7D678C" points="339.3,63.9 339.3,64.6 333,68.2 333,67.5 			"/>
		</g>
		<g>
			<g>
				<path fill="#9480A0" d="M350.8,26.5l-12.4-7c-3.1-1.8-5.6,0.1-5.6,4.2v40.9l1.6-0.1V24.6c0-2.9,1.8-4.3,4-3l11.6,6.6L350.8,26.5
					z"/>
			</g>
			<ellipse fill="#9480A0" cx="333.6" cy="64.5" rx="0.8" ry="0.4"/>
		</g>
		<polygon fill="#9480A0" points="356.6,99.9 326,82.5 326,84.1 356.6,101.6 		"/>
		<polygon fill="#9480A0" points="372.7,114.8 355.9,124.4 355.9,126 372.7,116.5 		"/>
		<polygon fill="#9480A0" points="342.9,97.6 326.1,107.2 326.1,108.8 342.9,99.3 		"/>
		<polygon fill="#9480A0" points="356.6,106.7 326,89.3 326,90.9 356.6,108.4 		"/>
		<path fill="#AE9CB7" d="M351.1,27.1c0,0.5-0.3,1-0.7,1.1c-0.4,0.1-0.6-0.1-0.6-0.6c0-0.5,0.3-1,0.7-1.1
			C350.8,26.4,351.1,26.7,351.1,27.1z"/>
	</g>
	<g>
		<g>
			<polygon fill="#722D3B" points="368.2,145.6 368.2,34.8 399.2,17.2 399.2,128.1 			"/>
			<polygon fill="#843845" points="368.2,34.8 366.3,33.8 366.3,144.6 368.2,145.6 			"/>
		</g>
		<polygon fill="#F2EDF4" points="368.2,109 399.2,91.3 444.5,117 413.8,135 		"/>
		<g>
			<path fill="#EA4458" d="M379.7,104.5c-0.6,0-1-0.2-1.1-0.5v4.1c0,0.6,0.5,1,1.1,1c0.6,0,1.1-0.5,1.1-1V104
				C380.7,104.3,380.2,104.5,379.7,104.5z"/>
			<path fill="#EA4458" d="M382.8,102.8c-0.6,0-1-0.2-1.1-0.5v4.1c0,0.6,0.5,1,1.1,1c0.6,0,1.1-0.5,1.1-1v-4.1
				C383.8,102.5,383.4,102.8,382.8,102.8z"/>
			<path fill="#EA4458" d="M385.8,101.1c-0.6,0-1-0.2-1.1-0.5v4.1c0,0.6,0.5,1,1.1,1c0.6,0,1.1-0.5,1.1-1v-4.1
				C386.8,100.9,386.4,101.1,385.8,101.1z"/>
			<g>
				<path fill="#5974BB" d="M392.2,103.5l-4-2.3c0,0-0.5-1.5,0.9-1.7c1.4-0.2,2.5,0.1,2.8,0.3c0.3,0.2,0.5,0.3,0.5,1.2
					C392.4,101.9,392.2,103.5,392.2,103.5z"/>
				<path fill="#7490D1" d="M373.6,109.5l4,2.2c0,0,0-2.9,0.2-3.4c0.2-0.5,0.2-1,1.8-1.9c1.6-0.9,12.3-6.8,12.3-6.8l-4-2.2
					c0,0-1.1,0.2-2.3,1.1c-1.2,0.8-9.3,5.3-10.1,5.6c-0.7,0.3-1.6,1.2-1.7,1.9C373.7,106.7,373.6,109.5,373.6,109.5z"/>
				<g>
					<path fill="#464D8E" d="M391.7,99.9c0.1,0,0.2,0,0.2,0.1c0.2,0.1,0.3,0.4,0.3,0.7v2.8l0.3-0.1v-2.7c0-0.5-0.2-0.8-0.4-1
						c-0.2-0.1-0.5-0.1-0.8,0.1l-12.5,7c-0.6,0.4-1.2,1.3-1.2,2.1v2.8l0.3-0.1v-2.7c0-0.7,0.5-1.6,1-1.9l12.5-7
						C391.5,99.9,391.6,99.9,391.7,99.9z"/>
				</g>
			</g>
			<g>
				<path fill="#F2EDF4" d="M379.7,101.3c0.6,0,1,0.2,1.1,0.5v-3.3c0-0.6-0.5-1-1.1-1c-0.6,0-1.1,0.5-1.1,1v3.3
					C378.7,101.5,379.1,101.3,379.7,101.3z"/>
				<g>
					<path fill="#F7515E" d="M379.7,102.4c0.6,0,1-0.2,1.1-0.5v-0.1c0-0.3-0.5-0.5-1.1-0.5s-1,0.2-1.1,0.5v0.1
						C378.7,102.2,379.1,102.4,379.7,102.4z"/>
					<path fill="#EA4458" d="M379.7,102.4c0.6,0,1-0.2,1.1-0.5v2v0.1c0,0.3-0.5,0.5-1.1,0.5s-1-0.2-1.1-0.5v-0.1v-2
						C378.7,102.2,379.1,102.4,379.7,102.4z"/>
				</g>
				<g>
					<ellipse fill="#DED3E2" cx="379.7" cy="98.1" rx="1.6" ry="0.9"/>
					<rect x="378.1" y="97.7" fill="#DED3E2" width="3.2" height="0.4"/>
					<ellipse fill="#F4F4F4" cx="379.7" cy="97.6" rx="1.6" ry="0.9"/>
					<ellipse fill="#AE9CB7" cx="379.7" cy="97.6" rx="1.1" ry="0.6"/>
				</g>
			</g>
			<g>
				<path fill="#F2EDF4" d="M382.8,99.5c0.6,0,1,0.2,1.1,0.5v-3.3c0-0.6-0.5-1-1.1-1c-0.6,0-1.1,0.5-1.1,1v3.3
					C381.8,99.7,382.3,99.5,382.8,99.5z"/>
				<g>
					<path fill="#F7515E" d="M382.8,100.6c0.6,0,1-0.2,1.1-0.5V100c0-0.3-0.5-0.5-1.1-0.5c-0.6,0-1,0.2-1.1,0.5v0.1
						C381.8,100.4,382.3,100.6,382.8,100.6z"/>
					<path fill="#EA4458" d="M382.8,100.6c0.6,0,1-0.2,1.1-0.5v2v0.1c0,0.3-0.5,0.5-1.1,0.5c-0.6,0-1-0.2-1.1-0.5v-0.1v-2
						C381.8,100.4,382.3,100.6,382.8,100.6z"/>
				</g>
				<g>
					<ellipse fill="#DED3E2" cx="382.8" cy="96.4" rx="1.6" ry="0.9"/>
					<rect x="381.3" y="95.9" fill="#DED3E2" width="3.2" height="0.4"/>
					<ellipse fill="#F4F4F4" cx="382.8" cy="95.9" rx="1.6" ry="0.9"/>
					<ellipse fill="#AE9CB7" cx="382.8" cy="95.8" rx="1.1" ry="0.6"/>
				</g>
			</g>
			<g>
				<path fill="#F2EDF4" d="M385.8,97.8c0.6,0,1,0.2,1.1,0.5V95c0-0.6-0.5-1-1.1-1c-0.6,0-1.1,0.5-1.1,1v3.3
					C384.8,98.1,385.2,97.8,385.8,97.8z"/>
				<g>
					<path fill="#F7515E" d="M385.8,99c0.6,0,1-0.2,1.1-0.5v-0.1c0-0.3-0.5-0.5-1.1-0.5c-0.6,0-1,0.2-1.1,0.5v0.1
						C384.8,98.7,385.2,99,385.8,99z"/>
					<path fill="#EA4458" d="M385.8,99c0.6,0,1-0.2,1.1-0.5v2v0.1c0,0.3-0.5,0.5-1.1,0.5c-0.6,0-1-0.2-1.1-0.5v-0.1v-2
						C384.8,98.7,385.2,99,385.8,99z"/>
				</g>
				<g>
					<ellipse fill="#DED3E2" cx="385.8" cy="94.7" rx="1.6" ry="0.9"/>
					<rect x="384.2" y="94.3" fill="#DED3E2" width="3.2" height="0.4"/>
					<ellipse fill="#F4F4F4" cx="385.8" cy="94.2" rx="1.6" ry="0.9"/>
					<ellipse fill="#AE9CB7" cx="385.8" cy="94.1" rx="1.1" ry="0.6"/>
				</g>
			</g>
		</g>
		<g>
			<path fill="#EA4458" d="M387.3,108.6c-0.6,0-1-0.2-1.1-0.5v4.1c0,0.6,0.5,1,1.1,1c0.6,0,1.1-0.5,1.1-1v-4.1
				C388.3,108.4,387.8,108.6,387.3,108.6z"/>
			<path fill="#EA4458" d="M390.4,106.9c-0.6,0-1-0.2-1.1-0.5v4.1c0,0.6,0.5,1,1.1,1c0.6,0,1.1-0.5,1.1-1v-4.1
				C391.4,106.6,391,106.9,390.4,106.9z"/>
			<path fill="#EA4458" d="M393.4,105.2c-0.6,0-1-0.2-1.1-0.5v4.1c0,0.6,0.5,1,1.1,1s1.1-0.5,1.1-1v-4.1
				C394.4,105,394,105.2,393.4,105.2z"/>
			<g>
				<path fill="#5974BB" d="M399.8,107.6l-4-2.3c0,0-0.5-1.5,0.9-1.7c1.4-0.2,2.5,0.1,2.8,0.3c0.3,0.2,0.5,0.3,0.5,1.2
					C399.9,106,399.8,107.6,399.8,107.6z"/>
				<path fill="#7490D1" d="M381.2,113.6l4,2.2c0,0,0-2.9,0.2-3.4c0.2-0.5,0.2-1,1.8-1.9c1.6-0.9,12.3-6.8,12.3-6.8l-4-2.2
					c0,0-1.1,0.2-2.3,1.1c-1.2,0.8-9.3,5.3-10.1,5.6c-0.7,0.3-1.6,1.2-1.7,1.9C381.3,110.8,381.2,113.6,381.2,113.6z"/>
				<g>
					<path fill="#464D8E" d="M399.3,104c0.1,0,0.2,0,0.2,0.1c0.2,0.1,0.3,0.4,0.3,0.7v2.8l0.3-0.1v-2.7c0-0.5-0.2-0.8-0.4-1
						c-0.2-0.1-0.5-0.1-0.8,0.1l-12.5,7c-0.6,0.4-1.2,1.3-1.2,2.1v2.8l0.3-0.1V113c0-0.7,0.5-1.6,1-1.9l12.5-7
						C399,104,399.2,104,399.3,104z"/>
				</g>
			</g>
			<g>
				<path fill="#F2EDF4" d="M387.3,105.4c0.6,0,1,0.2,1.1,0.5v-3.3c0-0.6-0.5-1-1.1-1c-0.6,0-1.1,0.5-1.1,1v3.3
					C386.2,105.6,386.7,105.4,387.3,105.4z"/>
				<g>
					<path fill="#F7515E" d="M387.3,106.5c0.6,0,1-0.2,1.1-0.5v-0.1c0-0.3-0.5-0.5-1.1-0.5s-1,0.2-1.1,0.5v0.1
						C386.2,106.3,386.7,106.5,387.3,106.5z"/>
					<path fill="#EA4458" d="M387.3,106.5c0.6,0,1-0.2,1.1-0.5v2v0.1c0,0.3-0.5,0.5-1.1,0.5s-1-0.2-1.1-0.5V108v-2
						C386.2,106.3,386.7,106.5,387.3,106.5z"/>
				</g>
				<g>
					<ellipse fill="#DED3E2" cx="387.3" cy="102.2" rx="1.6" ry="0.9"/>
					<rect x="385.7" y="101.8" fill="#DED3E2" width="3.2" height="0.4"/>
					<ellipse fill="#F4F4F4" cx="387.3" cy="101.7" rx="1.6" ry="0.9"/>
					<ellipse fill="#AE9CB7" cx="387.3" cy="101.7" rx="1.1" ry="0.6"/>
				</g>
			</g>
			<g>
				<path fill="#F2EDF4" d="M390.4,103.6c0.6,0,1,0.2,1.1,0.5v-3.3c0-0.6-0.5-1-1.1-1c-0.6,0-1.1,0.5-1.1,1v3.3
					C389.4,103.8,389.8,103.6,390.4,103.6z"/>
				<g>
					<path fill="#F7515E" d="M390.4,104.7c0.6,0,1-0.2,1.1-0.5v-0.1c0-0.3-0.5-0.5-1.1-0.5c-0.6,0-1,0.2-1.1,0.5v0.1
						C389.4,104.5,389.8,104.7,390.4,104.7z"/>
					<path fill="#EA4458" d="M390.4,104.7c0.6,0,1-0.2,1.1-0.5v2v0.1c0,0.3-0.5,0.5-1.1,0.5c-0.6,0-1-0.2-1.1-0.5v-0.1v-2
						C389.4,104.5,389.8,104.7,390.4,104.7z"/>
				</g>
				<g>
					<ellipse fill="#DED3E2" cx="390.4" cy="100.5" rx="1.6" ry="0.9"/>
					<rect x="388.9" y="100" fill="#DED3E2" width="3.2" height="0.4"/>
					<ellipse fill="#F4F4F4" cx="390.4" cy="100" rx="1.6" ry="0.9"/>
					<ellipse fill="#AE9CB7" cx="390.4" cy="99.9" rx="1.1" ry="0.6"/>
				</g>
			</g>
			<g>
				<path fill="#F2EDF4" d="M393.4,101.9c0.6,0,1,0.2,1.1,0.5v-3.3c0-0.6-0.5-1-1.1-1c-0.6,0-1.1,0.5-1.1,1v3.3
					C392.4,102.2,392.8,101.9,393.4,101.9z"/>
				<g>
					<path fill="#F7515E" d="M393.4,103.1c0.6,0,1-0.2,1.1-0.5v-0.1c0-0.3-0.5-0.5-1.1-0.5c-0.6,0-1,0.2-1.1,0.5v0.1
						C392.4,102.8,392.8,103.1,393.4,103.1z"/>
					<path fill="#EA4458" d="M393.4,103.1c0.6,0,1-0.2,1.1-0.5v2v0.1c0,0.3-0.5,0.5-1.1,0.5c-0.6,0-1-0.2-1.1-0.5v-0.1v-2
						C392.4,102.8,392.8,103.1,393.4,103.1z"/>
				</g>
				<g>
					<ellipse fill="#DED3E2" cx="393.4" cy="98.8" rx="1.6" ry="0.9"/>
					<rect x="391.8" y="98.4" fill="#DED3E2" width="3.2" height="0.4"/>
					<ellipse fill="#F4F4F4" cx="393.4" cy="98.3" rx="1.6" ry="0.9"/>
					<ellipse fill="#AE9CB7" cx="393.4" cy="98.2" rx="1.1" ry="0.6"/>
				</g>
			</g>
		</g>
		<polygon fill="#F2EDF4" points="368.2,84.6 399.2,66.9 444.5,92.6 413.8,110.6 		"/>
		<polygon fill="#843845" points="367.2,145.1 415.1,172.4 414.8,135.5 367.2,108.5 		"/>
		<polygon fill="#F2EDF4" points="391.2,124.3 368.9,111.6 368.9,143.4 391.2,156.1 		"/>
		<polygon fill="#F2EDF4" points="413.3,136.9 391,124.2 391,155.9 413.3,168.6 		"/>
		<polygon fill="#843845" points="390.6,124 390.6,155.7 391.3,156.1 391.3,124.4 		"/>
		<path fill="#843845" d="M394.1,146.9L394.1,146.9c-0.3-0.2-0.6-0.7-0.6-1.1v-8.9c0-0.4,0.3-0.6,0.6-0.5l0,0
			c0.3,0.2,0.6,0.7,0.6,1.1v8.9C394.7,146.9,394.4,147.1,394.1,146.9z"/>
		<path fill="#843845" d="M387.9,143.3L387.9,143.3c-0.3-0.2-0.6-0.7-0.6-1.1v-8.9c0-0.4,0.3-0.6,0.6-0.5l0,0
			c0.3,0.2,0.6,0.7,0.6,1.1v8.9C388.5,143.3,388.2,143.5,387.9,143.3z"/>
		<polygon fill="#843845" points="367.5,84.2 367.2,86.4 414.2,113.1 414.4,111 		"/>
		<g>
			<polygon fill="#5974BB" points="409.2,86.4 404.5,83.8 404.5,103.6 409.2,106.3 			"/>
			<polygon fill="#FFFFFF" points="407.8,89.7 405.9,88.7 405.9,99.3 407.8,100.4 			"/>
			<polygon fill="#FFFFFF" points="409.2,87.4 404.5,84.8 404.5,86.2 409.2,88.9 			"/>
			<path fill="#843845" d="M407.8,102.8c0,0.7-0.4,1-0.9,0.7s-0.9-1.1-0.9-1.7s0.4-1,0.9-0.7C407.4,101.4,407.8,102.1,407.8,102.8z"
				/>
			<polygon fill="#464D8E" points="409.2,86.4 409.2,106.3 424.4,97.7 424.4,77.8 			"/>
			<g>
				<polygon fill="#7490D1" points="423.6,77.4 409.1,85.6 405.8,83.8 420.2,75.5 419.7,75.2 404.5,83.8 409.2,86.4 424.4,77.8 				
					"/>
				<polygon fill="#FFFFFF" points="409.1,85.6 423.6,77.4 420.2,75.5 405.8,83.8 				"/>
			</g>
		</g>
		<g>
			<polygon fill="#5974BB" points="374.9,67.3 370.1,64.7 370.1,84.5 374.9,87.2 			"/>
			<polygon fill="#FFFFFF" points="373.4,70.6 371.6,69.6 371.6,80.2 373.4,81.2 			"/>
			<polygon fill="#FFFFFF" points="374.9,68.3 370.1,65.7 370.1,67.1 374.9,69.8 			"/>
			<path fill="#843845" d="M373.4,83.7c0,0.7-0.4,1-0.9,0.7c-0.5-0.3-0.9-1.1-0.9-1.7s0.4-1,0.9-0.7C373,82.2,373.4,83,373.4,83.7z"
				/>
			<polygon fill="#464D8E" points="374.9,67.3 374.9,87.2 390,78.6 390,58.7 			"/>
			<g>
				<polygon fill="#7490D1" points="389.3,58.3 374.8,66.5 371.4,64.6 385.9,56.3 385.4,56.1 370.1,64.7 374.9,67.3 390,58.7 				
					"/>
				<polygon fill="#FFFFFF" points="374.8,66.5 389.3,58.3 385.9,56.3 371.4,64.6 				"/>
			</g>
		</g>
		<g>
			<polygon fill="#5974BB" points="381.1,70.8 376.3,68.2 376.3,88.1 381.1,90.8 			"/>
			<polygon fill="#FFFFFF" points="379.6,74.1 377.8,73.1 377.8,83.7 379.6,84.8 			"/>
			<polygon fill="#FFFFFF" points="381.1,71.9 376.3,69.2 376.3,70.7 381.1,73.3 			"/>
			<path fill="#843845" d="M379.6,87.3c0,0.7-0.4,1-0.9,0.7c-0.5-0.3-0.9-1.1-0.9-1.7c0-0.7,0.4-1,0.9-0.7
				C379.2,85.8,379.6,86.6,379.6,87.3z"/>
			<polygon fill="#464D8E" points="381.1,70.8 381.1,90.8 396.2,82.2 396.2,62.2 			"/>
			<g>
				<polygon fill="#7490D1" points="395.5,61.8 381,70.1 377.6,68.2 392.1,59.9 391.6,59.6 376.3,68.2 381.1,70.8 396.2,62.2 				
					"/>
				<polygon fill="#FFFFFF" points="381,70.1 395.5,61.8 392.1,59.9 377.6,68.2 				"/>
			</g>
		</g>
		<g>
			<polygon fill="#F7515E" points="387.4,74.2 382.6,71.6 382.6,91.5 387.4,94.2 			"/>
			<polygon fill="#FFFFFF" points="385.9,77.6 384.1,76.5 384.1,87.2 385.9,88.2 			"/>
			<polygon fill="#FFFFFF" points="387.4,75.3 382.6,72.7 382.6,74.1 387.4,76.7 			"/>
			<path fill="#843845" d="M385.9,90.7c0,0.7-0.4,1-0.9,0.7s-0.9-1.1-0.9-1.7s0.4-1,0.9-0.7C385.5,89.2,385.9,90,385.9,90.7z"/>
			<polygon fill="#EA4458" points="387.4,74.2 387.4,94.2 402.5,85.6 402.5,65.6 			"/>
			<g>
				<polygon fill="#FF7687" points="401.8,65.2 387.3,73.5 383.9,71.6 398.4,63.3 397.9,63 382.6,71.6 387.4,74.2 402.5,65.6 				
					"/>
				<polygon fill="#FFFFFF" points="387.3,73.5 401.8,65.2 398.4,63.3 383.9,71.6 				"/>
			</g>
		</g>
		<polygon fill="#F2EDF4" points="368.2,59.1 399.2,41.3 444.5,67.1 413.8,85 		"/>
		<g>
			<polygon fill="#7490D1" points="383,63 399.1,53.9 388.5,47.9 372.4,57 			"/>
			<polygon fill="#464D8E" points="383.1,61.8 397,53.9 394.6,52.6 380.7,60.5 			"/>
			<polygon fill="#FFFFFF" points="383.2,61 395.7,53.9 394.8,53.3 382.2,60.5 			"/>
			<polygon fill="#464D8E" points="387.3,55.4 393.4,51.9 388.7,49.4 382.6,52.8 			"/>
			<polygon fill="#464D8E" points="383,64 399.1,54.9 399.1,53.9 383,63 			"/>
			<polygon fill="#5974BB" points="372.4,57 383,63 383,64 372.4,58 			"/>
		</g>
		<g>
			<polygon fill="#7490D1" points="383,61.6 399.1,52.5 388.5,46.4 372.4,55.6 			"/>
			<polygon fill="#464D8E" points="383.1,60.4 397,52.5 394.6,51.1 380.7,59.1 			"/>
			<polygon fill="#FFFFFF" points="383.2,59.6 395.7,52.4 394.8,51.9 382.2,59.1 			"/>
			<polygon fill="#464D8E" points="387.3,53.9 393.4,50.5 388.7,47.9 382.6,51.4 			"/>
			<polygon fill="#464D8E" points="383,62.6 399.1,53.4 399.1,52.5 383,61.6 			"/>
			<polygon fill="#5974BB" points="372.4,55.6 383,61.6 383,62.6 372.4,56.5 			"/>
		</g>
		<g>
			<polygon fill="#7490D1" points="383,60.1 399.1,51 388.5,44.9 372.4,54.1 			"/>
			<polygon fill="#464D8E" points="383.1,58.9 397,51 394.6,49.6 380.7,57.5 			"/>
			<polygon fill="#FFFFFF" points="383.2,58.1 395.7,50.9 394.8,50.4 382.2,57.6 			"/>
			<polygon fill="#464D8E" points="387.3,52.4 393.4,49 388.7,46.4 382.6,49.9 			"/>
			<polygon fill="#464D8E" points="383,61 399.1,51.9 399.1,51 383,60.1 			"/>
			<polygon fill="#5974BB" points="372.4,54.1 383,60.1 383,61 372.4,55 			"/>
		</g>
		<g>
			<polygon fill="#7490D1" points="383,58.5 399.1,49.3 388.5,43.3 372.4,52.4 			"/>
			<polygon fill="#464D8E" points="383.1,57.2 397,49.3 394.6,48 380.7,55.9 			"/>
			<polygon fill="#FFFFFF" points="383.2,56.5 395.7,49.3 394.8,48.8 382.2,55.9 			"/>
			<polygon fill="#464D8E" points="387.3,50.8 393.4,47.3 388.7,44.8 382.6,48.2 			"/>
			<polygon fill="#464D8E" points="383,59.4 399.1,50.3 399.1,49.3 383,58.5 			"/>
			<polygon fill="#5974BB" points="372.4,52.4 383,58.5 383,59.4 372.4,53.4 			"/>
		</g>
		<g>
			<polygon fill="#7490D1" points="383,57 399.1,47.9 388.5,41.9 372.4,51 			"/>
			<polygon fill="#464D8E" points="383.1,55.8 397,47.9 394.6,46.6 380.7,54.5 			"/>
			<polygon fill="#FFFFFF" points="383.2,55 395.7,47.8 394.8,47.3 382.2,54.5 			"/>
			<polygon fill="#464D8E" points="387.3,49.4 393.4,45.9 388.7,43.3 382.6,46.8 			"/>
			<polygon fill="#464D8E" points="383,58 399.1,48.8 399.1,47.9 383,57 			"/>
			<polygon fill="#5974BB" points="372.4,51 383,57 383,58 372.4,52 			"/>
		</g>
		<g>
			<polygon fill="#7490D1" points="383,55.5 399.1,46.4 388.5,40.3 372.4,49.5 			"/>
			<polygon fill="#464D8E" points="383.1,54.3 397,46.4 394.6,45 380.7,53 			"/>
			<polygon fill="#FFFFFF" points="383.2,53.5 395.7,46.3 394.8,45.8 382.2,53 			"/>
			<polygon fill="#464D8E" points="387.3,47.8 393.4,44.4 388.7,41.8 382.6,45.3 			"/>
			<polygon fill="#464D8E" points="383,56.5 399.1,47.3 399.1,46.4 383,55.5 			"/>
			<polygon fill="#5974BB" points="372.4,49.5 383,55.5 383,56.5 372.4,50.4 			"/>
		</g>
		<polygon fill="#843845" points="367.5,58.6 367.2,60.8 414.2,87.6 414.4,85.4 		"/>
		<polygon fill="#F2EDF4" points="366.3,33.8 397,16 446.7,44.1 415.7,61.9 		"/>
		<polygon fill="#843845" points="367.5,34.5 367.2,36.7 414.2,63.4 414.4,61.3 		"/>
		<g>
			<polygon fill="#722D3B" points="415.7,172.7 415.7,61.9 446.7,44.1 446.7,155.2 			"/>
			<polygon fill="#843845" points="415.7,61.9 413.8,60.9 413.8,171.7 415.7,172.7 			"/>
		</g>
	</g>
	<g>
		<g>
			<g>
				<g>
					<path fill="#FFC5B3" d="M186.7,125.7c0,0-1-0.9-1.5-3.2c-0.2-1.2,0-2.7,0-2.7l-5.2-1c0,0-0.2,3-0.6,4.3c-0.4,1.3,1,4.4,2.7,4.4
						C183.9,127.5,186.7,125.7,186.7,125.7z"/>
					<path fill="#AE9CB7" d="M185.9,124.4c0,0,1.8,2.6,3.4,4.3c1.8,2,2.6,2.5,3,3.6c0.4,1.1-1.6,3.7-5.1,1.7c-3.5-2-4.2-2.6-5.3-3.7
						c-1.5-1.4-3.2-2.3-3.4-4.4c-0.2-1.7,1.2-2.8,1.2-2.8s0.3,1.2,2.4,2.4C183.6,126.4,185.9,124.4,185.9,124.4z"/>
					<path fill="#9480A0" d="M192.3,132.3c0,0-2.3,1.4-2.6,1.6c-2,0.9-4-1.2-5.9-2.5c-1.9-1.3-3.1-2.6-3.9-4c-0.8-1.4-1.5-2-1.5-2
						s-1.2,2.7,0.5,3.7c2,1.2,5.2,3.5,6.2,4.1c0.8,0.5,4.7,3.4,6.9,1.2C192.5,133.7,192.5,133.2,192.3,132.3z"/>
					<path fill="#9480A0" d="M187.2,126.2c0,0-0.9,0.3-1.8,1.3c-0.7,0.8-1.1,1.4-1.1,1.4l0.7,0.5c0,0,1.2-1.2,1.8-1.8
						c0.2-0.2,1-0.7,1-0.7L187.2,126.2z"/>
					<path fill="#9480A0" d="M188.5,127.9c0,0-0.9,0.4-1.8,1.3c-0.7,0.8-0.9,1.1-0.9,1.1l0.6,0.7c0,0,1-1.1,1.6-1.7
						c0.2-0.2,1.1-0.7,1.1-0.7L188.5,127.9z"/>
				</g>
				<g>
					<path fill="#FFC5B3" d="M167,137c0,0-1-0.9-1.5-3.2c-0.2-1.2,0-2.7,0-2.7l-5.2-1c0,0-0.2,3-0.6,4.3c-0.4,1.3,1,4.4,2.7,4.4
						C164.1,138.8,167,137,167,137z"/>
					<path fill="#AE9CB7" d="M166.2,135.9c0,0,1.7,2.4,3.2,4.1c1.8,2,2.6,2.5,3,3.6c0.4,1.1-1.6,3.7-5.1,1.7c-3.5-2-4.2-2.6-5.3-3.7
						c-1.5-1.4-3.2-2.3-3.4-4.4c-0.2-1.7,1.2-2.8,1.2-2.8s0.3,1.2,2.4,2.4C163.7,137.7,166.2,135.9,166.2,135.9z"/>
					<path fill="#9480A0" d="M172.4,143.6c0,0-2.3,1.4-2.6,1.6c-2,0.9-4-1.2-5.9-2.5c-1.9-1.3-3.1-2.6-3.9-4c-0.8-1.4-1.5-2-1.5-2
						s-1.2,2.7,0.5,3.7c2,1.2,5.2,3.5,6.2,4.1c0.8,0.5,4.7,3.4,6.9,1.2C172.6,145,172.7,144.5,172.4,143.6z"/>
					<path fill="#9480A0" d="M167.4,137.5c0,0-0.9,0.3-1.8,1.3c-0.7,0.8-1.1,1.4-1.1,1.4l0.7,0.5c0,0,1.2-1.2,1.8-1.8
						c0.2-0.2,1-0.7,1-0.7L167.4,137.5z"/>
					<path fill="#9480A0" d="M168.7,139.1c0,0-0.9,0.4-1.8,1.3c-0.7,0.8-0.9,1.1-0.9,1.1l0.6,0.7c0,0,1-1.1,1.6-1.7
						c0.2-0.2,1.1-0.7,1.1-0.7L168.7,139.1z"/>
				</g>
				<path fill="#EA4458" d="M160.5,82.8c-0.6-9,8.8-16.1,8.8-16.1c-0.4-3,13.7,6.5,13.7,6.5s1,11.6,2.3,20.2
					c1.5,9.7,1.7,29.2,1.7,29.2s-1.3,2.5-5,2.5c-2.8,0-4.9-2.4-4.9-2.4l-0.3-22.6l-3.3-16c0,0-1.6,17.2-2.5,23.7
					c-0.7,5-3,26.7-3,26.7s-3.4,2-7,1.4c-2.9-0.5-3.8-3.7-3.8-3.7s-0.4-14.2,3.8-23.5C161.4,101.5,160.7,86.9,160.5,82.8z"/>
			</g>
			<g>
				<path fill="#FFAB95" d="M192.4,52.7c0,0,2.4,3.2,7.3,8c-1.3,1.7-2,5-2.1,4.9c-5-1.9-10-7.6-10-7.6L192.4,52.7z"/>
				<path fill="#EA4458" d="M187,59.1c0.1,0,0.1,0,0.2,0c2.5,0.5,6.9-2.3,8.9-4.3c-1.4-2.9-3.2-5.3-4.3-7.2
					c-2.4-4.1-4.9-3.6-4.9-3.6C183.1,45.1,183.6,54.1,187,59.1C187,59.1,187,59.1,187,59.1z"/>
				<path fill="#F7515E" d="M188.5,45.9c0,0,3.6,2.6,2,10.8c-0.3,1.8-1.3,9.5-2.5,13c-1,3.1-2.1,5.8-2.2,7.9
					c-0.4,4.7-0.4,8.2-0.4,8.2s-10.9,4.3-17.8,2c-4.1-1.4-9.1-6.3-9.1-6.3c3.7-10.4,4.3-6.9,6.8-15.4c2.4-8.1,5.4-16.3,5.9-17.5
					c1-2.4,7.9-4.7,7.9-4.7S184.6,43.2,188.5,45.9z"/>
				<g>
					<path fill="#FFAB95" d="M185.9,44.4l0.4,5.1c0,0,0.5,4.2-0.5,5.3c-2.8-2-7.2-10.4-6.6-10.8l2.1-5.6L185.9,44.4z"/>
					<path fill="#EA4458" d="M187.1,45.8c0,0,0.5,3.5,0.4,6.4c0,2.5-1.2,5-1.2,5s-3.6-4.6-4.9-6.1c-1.7-2.1-4.4-6.2-4.4-6.2l2.2-0.9
						c0,0,2.2,3.6,3.7,5.6c0.7,0.9,2.9,3.9,2.9,3.9s0-1.9-0.1-4.2c0-2-0.5-4.9-0.5-4.9L187.1,45.8z"/>
					<path fill="#FFC5B3" d="M183,31.7c2.1-1.5,7.1-2,8.8,3.1c1.8,5.3-3.1,11.9-5.7,10.7c-1.4-0.6-4.5-2.9-5.3-5.7
						C179.9,36.6,181.3,32.9,183,31.7z"/>
					<path fill="#722D3B" d="M192.3,36.9c-1.4,0.3-5.5,0.5-7.8-0.9c0.5,1,0,2-0.4,3c0,0-0.6-1.4-1.8-1.1c-0.8,0.1-0.8,1.3-0.8,1.3
						s-0.6,2.1-1.5,2.9c-0.5-0.8-1.1-5.9-1-7.4c0.1-2,0.5-5,4.2-5.3c1.9-2.5,4.4-1.2,5.9-0.3c1.6,0.8,3.6,2.4,4.7,4
						C193.5,34.2,193.2,35.5,192.3,36.9z"/>
				</g>
				<path fill="#FFC5B3" d="M190.7,73.9c-2.9-1-7.4-2.7-8.2-3.9c-1.5-2.5-3-11.2-3-11.2l-8,0.9c0,0,1.2,4.1,2.6,7.1
					c2.1,4.4,2.9,7.1,6.4,9.1c1.4,0.8,8,1.9,10.9,2.9C192.5,77.7,192.5,74.6,190.7,73.9z"/>
				<path fill="#EA4458" d="M179,61.4c0.5-0.2,0.9-0.5,1.3-0.7c-0.4-2.4-0.9-5-1.8-7c-1.5-3.3-4.2-8.1-7.3-4.9
					c-2.5,2.6-2.2,6.9-0.5,13.3C173.3,62.8,176.6,62.4,179,61.4z"/>
				<polygon fill="#FFFFFF" points="188.1,56.1 190.7,55.6 190.8,54.3 187.9,54.8 				"/>
			</g>
		</g>
		<g>
			<g>
				<g>
					<polygon fill="#F2EDF4" points="227.6,107.6 233.7,104.2 256.9,117.4 250.8,120.9 					"/>
				</g>
				<polygon fill="#DED3E2" points="250.8,120.9 256.9,117.4 256.9,119.1 250.8,122.7 				"/>
				<polygon fill="#C4B5CA" points="250.9,120.9 227.6,107.6 227.6,109.3 250.9,122.7 				"/>
			</g>
			<g>
				<g>
					<polygon fill="#F2EDF4" points="242.7,114.7 238.8,112.5 158,158.7 161.9,160.9 					"/>
				</g>
				<polygon fill="#DED3E2" points="163.8,159.7 241.3,115.5 241.3,117 163.8,161.3 				"/>
			</g>
			<g>
				<g>
					<polygon fill="#F2EDF4" points="145.1,154.7 151.2,151.3 174.4,164.5 168.4,168 					"/>
				</g>
				<polygon fill="#DED3E2" points="168.4,168 174.4,164.5 174.4,166.2 168.4,169.8 				"/>
				<polygon fill="#C4B5CA" points="168.4,168 145.1,154.7 145.1,156.4 168.4,169.8 				"/>
			</g>
			<g>
				<polygon fill="#C4B5CA" points="161.9,128 161.9,162.3 155.8,158.8 155.8,124 				"/>
				<polygon fill="#DED3E2" points="164.2,128 164.2,161 161.9,162.3 161.9,128 				"/>
			</g>
			<g>
				<polygon fill="#C4B5CA" points="244.2,76.5 244.2,114.8 238,111.3 238,72.6 				"/>
				<polygon fill="#DED3E2" points="246.4,76.5 246.4,113.5 244.2,114.8 244.2,76.5 				"/>
			</g>
			<g>
				<polygon fill="#DED3E2" points="263.5,83.6 263.5,85.2 172.9,136.8 172.9,135.2 				"/>
				<polygon fill="#C4B5CA" points="135.2,113.7 135.2,115.3 172.9,136.8 172.9,135.2 				"/>
			</g>
			<g>
				<g>
					<path fill="#F2EDF4" d="M225.6,62.1l37.8,21.5l-90.5,51.6l-37.7-21.5L225.6,62.1z M169.3,129.6c0.5,0.6,1.7,1,3,1
						c1.4,0,2.5-0.4,3-1c0.2-0.2,0.2-0.4,0.2-0.6c0-0.9-1.5-1.6-3.3-1.6c-1.8,0-3.3,0.7-3.3,1.6C169,129.2,169.1,129.4,169.3,129.6z
						 M160.5,124.7c0.5,0.6,1.7,1,3,1c1.4,0,2.5-0.4,3-1c0.2-0.2,0.2-0.4,0.2-0.6c0-0.9-1.5-1.6-3.3-1.6c-1.8,0-3.3,0.7-3.3,1.6
						C160.2,124.3,160.3,124.5,160.5,124.7z M151.2,119.2c0.5,0.6,1.7,1,3,1c1.4,0,2.5-0.4,3-1c0.2-0.2,0.2-0.4,0.2-0.6
						c0-0.9-1.5-1.6-3.3-1.6c-1.8,0-3.3,0.7-3.3,1.6C150.9,118.8,151,119.1,151.2,119.2z M145.4,115.3c1.4,0,2.5-0.4,3-1
						c0.2-0.2,0.2-0.4,0.2-0.6c0-0.9-1.5-1.6-3.3-1.6c-1.8,0-3.3,0.7-3.3,1.6c0,0.2,0.1,0.4,0.2,0.6
						C142.9,114.9,144,115.3,145.4,115.3z"/>
				</g>
				<path fill="#C4B5CA" d="M172.3,127.3c1.8,0,3.3,0.7,3.3,1.6c0,0.2-0.1,0.4-0.2,0.6c-0.5-0.6-1.7-1-3-1c-1.4,0-2.5,0.4-3,1
					c-0.2-0.2-0.2-0.4-0.2-0.6C169,128.1,170.5,127.3,172.3,127.3z"/>
				<path fill="#C4B5CA" d="M163.5,122.4c1.8,0,3.3,0.7,3.3,1.6c0,0.2-0.1,0.4-0.2,0.6c-0.5-0.6-1.7-1-3-1c-1.4,0-2.5,0.4-3,1
					c-0.2-0.2-0.2-0.4-0.2-0.6C160.2,123.1,161.7,122.4,163.5,122.4z"/>
				<path fill="#C4B5CA" d="M154.2,117c1.8,0,3.3,0.7,3.3,1.6c0,0.2-0.1,0.4-0.2,0.6c-0.5-0.6-1.7-1-3-1c-1.4,0-2.5,0.4-3,1
					c-0.2-0.2-0.2-0.4-0.2-0.6C150.9,117.7,152.4,117,154.2,117z"/>
				<path fill="#C4B5CA" d="M145.4,112c1.8,0,3.3,0.7,3.3,1.6c0,0.2-0.1,0.4-0.2,0.6c-0.5-0.6-1.7-1-3-1c-1.4,0-2.5,0.4-3,1
					c-0.2-0.2-0.2-0.4-0.2-0.6C142.1,112.8,143.6,112,145.4,112z"/>
			</g>
			<polygon fill="#DED3E2" points="181.9,124.4 251.4,84.9 249.7,83.9 180.2,123.5 			"/>
			<polygon fill="#DED3E2" points="155.7,109.7 225.3,70.1 223.6,69.1 154,108.7 			"/>
		</g>
		<g>
			<g>
				<path fill="#FF9A75" d="M211.2,66.1c0,0,6.6,0.8,11.7,4c3.4,2.1,6.5,7.8,5.2,13c-0.2,0.8-0.5,1.3-0.9,1.6
					c-0.5-0.1-1.4-0.5-1.4-1.7c0-1.7,1.2-4.3-1.1-7.8c-2.3-3.5-4.3-4.8-6.1-5.3c-1.8-0.5-2.5-0.5-2.5-0.5s0,0.2,0,0.5
					c-0.7-0.2-1.1-0.2-1.1-0.2L211.2,66.1z"/>
				<path fill="#ED7854" d="M218.6,70c1.8,0.5,4.3,1.5,6.3,5.1c2.1,3.6,1.1,6.3,1.1,7.9c0,1.2,0.7,1.6,1.2,1.7
					c-0.9,0.8-2.1,0.1-1.9-2.1c0.3-3.1-0.2-5.9-2.2-8.6c-1.9-2.5-5.2-3.6-6.9-4c0-0.3,0-0.5,0-0.5S216.8,69.5,218.6,70z"/>
			</g>
			<path fill="#FF9A75" d="M198.2,80.3c0,0-1.2,3.9-1.2,5.6c0,1.8-2.7,4.1-5.3,5.6c-1.9,1-3.4,1.1-3.5-0.5c-0.1-0.7,1.7-1.3,3-2.1
				c2-1.2,1.5-3.1,1.5-3.1l-1.5-4.8L198.2,80.3z"/>
			<path fill="#FF9A75" d="M203.7,83c0,0-1.2,3.9-1.2,5.6c0,1.8-2.7,4.1-5.3,5.6c-1.9,1-3.4,1.1-3.5-0.5c-0.1-0.7,1.7-1.3,3-2.1
				c2-1.2,1.5-3.1,1.5-3.1l-1.5-4.8L203.7,83z"/>
			<path fill="#FF9A75" d="M192.2,81.2c1-4.3,2.6-4,3.8-5c3.6-2.8,6.3-11.9,14.8-10.3c6.2,1.2,5.9,4.7,6.6,7.6
				c0.3,1-0.3,2.5-0.5,3.9c-0.2,2.3,0.6,3.9-0.4,5.1c-0.5,0.6-2.4,2.3-4.7,3.8c-2,1.3-2.2-1.6-1.1-2.1c2.2-1.1,3.4-3.3,3.4-3.3
				s-1.5-0.1-3-0.7c-1.2,0.7-2.4,1.6-4.7,3.5c-1.5,1.3-3.4,3.9-7.2,4.9C195.5,89.5,191.2,85.5,192.2,81.2z"/>
			<path fill="#ED7854" d="M194.9,85c0,0,2.6,0.5,3.1,1.2c0.5,0.7,0.4,2.5,0.4,2.5s-1.3,0.1-2.9-0.9c-1.6-1-2.3-2-2.3-2L194.9,85z"
				/>
			<path fill="#ED7854" d="M197.4,86.9c0,0,1-1.6,0.8-4.1c-0.2-2.6-2.8-3.4-2.8-3.4l-1.2,6.3L197.4,86.9z"/>
			<path fill="#FFC5B3" d="M190.7,73.9c0,0,2.1,0.4,2.8,0.5c3,0.3,4.8,0.5,5.4,0.5c0.5,0,0.3,0.5-0.2,0.7c-0.2,0.1-1.5,0.3-1.5,0.3
				s2.5,0.8,3.5,2.3c0.6,1,0.5,2.9-1,3.2c-1.5,0.3-4.2-2.1-5.5-2.4c-1.3-0.3-4.2-1.3-4.2-1.3L190.7,73.9z"/>
			<path fill="#FF9A75" d="M192.8,77.9c2.9,1,5.2,3.1,4,5.8c-1.5,3.3-4.6,3.3-6.4,3.5c-0.8,0.1-1.2-0.1-1.6-0.8
				c-1,0.3-0.7-1.2-0.9-1.9c-0.6-1.8-0.1-2.7,0.2-3.4C188.8,79.2,190.8,77.2,192.8,77.9z"/>
			<path fill="#FF9A75" d="M192.1,78.5c0,0-0.7-1.5-1.3-2.3c-0.6-0.8-1.5-0.7-1.5-0.7s-0.2,3,0,3.8
				C189.5,80.2,192.1,78.5,192.1,78.5z"/>
			<path fill="#FF9A75" d="M196.5,80.9c0,0,0.6-1.9,0.1-3.1c-0.3-0.7-1-1.1-1-1.1l-1.3,2.8L196.5,80.9z"/>
			<path fill="#ED7854" d="M195.5,77.2c0.4,0.4,0.6,1.2,0.5,1.9c-0.2,0.7-0.5,1.3-0.5,1.3l-1-0.8C194.5,79.6,195.5,77.6,195.5,77.2z
				"/>
			<path fill="#ED7854" d="M190.9,78.4c0,0-0.3-1.1-0.5-1.7c-0.3-0.6-0.8-0.8-0.8-0.8l0.1,2.8C189.7,78.8,190.4,78.5,190.9,78.4z"/>
			<path fill="#ED7854" d="M195.6,76.7c0,0,1.5,0.4,1.5,2.1c0,1.7,0,2.1,0,2.1l-0.6-0.4c0,0,0.2-1.7,0.1-2.3
				C196.6,77.7,195.6,76.7,195.6,76.7z"/>
			<path fill="#ED7854" d="M202.8,84.7c0,0,4.9-4.5,6-4.8s2.4,0.1,2.4,0.1s-1.5,1-2.3,1.6c-0.8,0.6-3.7,3.3-4.7,4.1
				c-1,0.8-1.5,1.3-1.5,1.3L202.8,84.7z"/>
			<g>
				<path fill="#ED7854" d="M190.6,84.1c0,0,0.1-1.6,1.2-1.5c0.8,0.1,1.2,1.1,1.2,1.1s-0.2,0.4-0.8,0.8c-0.1,0.1-0.6,0.2-0.8,0.1
					C190.9,84.5,190.6,84.1,190.6,84.1z"/>
				<path fill="#ED7854" d="M188.1,83.1c0,0,0.1,0.8,1,0.5c0-0.4,0.1-1-0.3-1.6c-0.2-0.3-0.4-0.6-0.6-0.4c-0.1,0.1-0.1,0.7-0.1,0.7
					L188.1,83.1z"/>
				<path fill="#FFAF73" d="M190.8,84c0,0,0.1-1.2,1-1.1c0.8,0.1,0.9,0.8,0.9,0.8s-0.3,0.5-0.9,0.6C191.2,84.5,190.8,84,190.8,84z"
					/>
				<path fill="#FFAF73" d="M188.9,83.4c0,0-0.1-0.6-0.2-1.1c-0.1-0.3-0.5-0.5-0.5-0.5s-0.4,0.8,0,1.4
					C188.4,83.7,188.9,83.4,188.9,83.4z"/>
				<path fill="#FF9A75" d="M191.3,84.1c0,0,0.4,0.1,0.8-0.2c0.2-0.2,0-0.6,0-0.6s0.5,0.4,0.2,0.8C191.8,84.7,191.3,84.1,191.3,84.1
					z"/>
				<path fill="#722D3B" d="M191.6,83.2c-0.3,0.2-0.3,0.7,0,1C191.7,84,191.9,83.5,191.6,83.2z"/>
				<path fill="#FFFFFF" d="M191.6,83.3c0.1,0.1,0,0.3-0.2,0.3c-0.1,0-0.1,0-0.2-0.1c-0.1-0.1,0-0.3,0.2-0.3
					C191.5,83.2,191.5,83.3,191.6,83.3z"/>
				<path fill="#FF9A75" d="M188.5,82.4c0,0,0,0.4-0.1,0.6c-0.1,0.1-0.2,0.1-0.2,0.1s0.2,0.3,0.4,0
					C188.8,82.9,188.5,82.4,188.5,82.4z"/>
				<path fill="#722D3B" d="M188.5,82.2c-0.3,0.2-0.4,0.7-0.1,1C188.5,83,188.7,82.5,188.5,82.2z"/>
				<path fill="#FFFFFF" d="M188.4,82.3c0.1,0.1,0,0.3-0.2,0.3c-0.1,0-0.1,0-0.1-0.1c-0.1-0.1,0-0.3,0.2-0.3
					C188.3,82.2,188.4,82.2,188.4,82.3z"/>
				<path fill="#ED7854" d="M189.1,85.4c0,0-0.1,0.8,0.5,1.3c0.4,0.4,2.1,0.3,2.1,0.3s-1.6,0.4-2.2,0.2c-0.5-0.2-0.8-0.7-0.8-0.7
					s-0.4,0.1-0.6-0.2c-0.2-0.2-0.2-0.7-0.2-0.7S188.3,85.3,189.1,85.4z"/>
			</g>
			<path fill="#722D3B" d="M188.6,84.8c0.2,0,0.8,0.3,1,0.4c0.1,0.1-0.1,0.3-0.3,0.4c-0.2,0.1-0.4,0.2-0.4,0.2s-0.3-0.2-0.4-0.5
				C188.4,85,188.5,84.8,188.6,84.8z"/>
			<path fill="#ED7854" d="M191.8,81.8c0,0-0.5,0.1-0.7,0.3c-0.3,0.1-0.4,0.3-0.4,0.3s0-0.6,0.4-0.8
				C191.4,81.4,191.8,81.8,191.8,81.8z"/>
			<path fill="#ED7854" d="M189.3,81.8c0,0-0.2-0.4-0.4-0.6c-0.2-0.2-0.3-0.3-0.3-0.3s0.4-0.3,0.7,0.1
				C189.4,81.3,189.3,81.8,189.3,81.8z"/>
			<path fill="#ED7854" d="M215.9,71c0,0,0.4,1.5,0.2,2.3c-0.2,0.8-0.6,1.5-0.6,1.5s-0.2-1.1,0-1.9C215.8,72.1,215.9,71,215.9,71z"
				/>
			<path fill="#ED7854" d="M215.8,69.8c0,0-0.1,1.2-0.4,2.2c-0.3,1-1,1.9-1,1.9s0-0.9,0.4-1.9C215.2,70.9,215.8,69.8,215.8,69.8z"/>
			<path fill="#ED7854" d="M202,87.4c0,0,0.2,1.4-0.2,1.9c-0.4,0.5-1.1,1-1.1,1s0.4-0.8,0.7-1.4C201.7,88.4,202,87.4,202,87.4z"/>
			<path fill="#ED7854" d="M216.7,80.9c0,0,0,1-0.5,1.4c-0.5,0.5-1.1,0.5-1.1,0.5s0.2-0.5,0.7-0.9C216.3,81.5,216.7,80.9,216.7,80.9
				z"/>
		</g>
		<g>
			<path fill="#FFAB95" d="M198.8,60.7c0,0,7.1-0.4,8.2-1c1.1-0.5,3.3-0.6,3.9-0.8c0.7-0.2,0.8,0.2,0.7,0.5
				c-0.1,0.3,0.5,0.5,0.6,0.9c0.1,0.4-0.1,0.8-0.1,0.8s0.4,0.4,0.3,0.7c0,0.5-0.6,0.7-0.9,0.8c-0.9,0.4-2.3,1.2-3.6,1.3
				c-1.2,0.1-2.4,0.1-2.4,0.1s-5.6,2.3-8.1,1.6C195.1,64.9,198.8,60.7,198.8,60.7z"/>
			<g>
				<rect x="209.4" y="63.6" fill="#9480A0" width="0.2" height="4.3"/>
				<ellipse fill="#EA4458" cx="209.5" cy="63.9" rx="0.7" ry="0.4"/>
				<rect x="208.8" y="59.1" fill="#AE9CB7" width="1.4" height="4.8"/>
				<rect x="208.8" y="61.5" fill="#EA4458" width="1.4" height="2.4"/>
				<ellipse fill="#F7515E" cx="209.5" cy="61.5" rx="0.7" ry="0.4"/>
				<ellipse fill="#FFFFFF" cx="209.5" cy="59.1" rx="0.7" ry="0.4"/>
				<ellipse fill="#AE9CB7" cx="209.5" cy="59.1" rx="0.4" ry="0.2"/>
				<rect x="209.1" y="57.6" fill="#AE9CB7" width="0.7" height="1.5"/>
				<rect x="208.8" y="57.4" fill="#9480A0" width="1.4" height="0.2"/>
				<ellipse fill="#9480A0" cx="209.5" cy="57.6" rx="0.7" ry="0.4"/>
				<ellipse fill="#FFFFFF" cx="209.5" cy="57.4" rx="0.7" ry="0.4"/>
			</g>
			<path fill="#FFAB95" d="M210.4,59.1c0,0-0.9,0.9-0.9,1.3c0,0.4,0.5,0.3,0.5,0.3s-0.8,0.4-0.6,0.8c0.2,0.3,0.8,0.2,0.8,0.2
				s-0.8,0.6-0.5,1c0.4,0.5,1.2-0.3,1.2-0.3L210.4,59.1z"/>
			<path fill="#FFAB95" d="M209.1,57.9c0,0,0.3,0.4,0.2,0.8c-0.1,0.4-0.5,0.5-0.6,1c0,0.2-1.1,1.3-1.1,1.3l-0.5-1.4
				c0,0,1.1-0.8,1.4-1.1C208.9,58.3,209.1,57.9,209.1,57.9z"/>
		</g>
	</g>
	<g>
		<g>
			<path fill="#FFA08D" d="M266.5,101.1c0,0,3.3,3.1,3.9,4.1c0.6,1,2.4,3.1,2.4,3.1s2.5-2.6,3.3-3.6c0.8-1,2.6,4.2,1.3,5.6
				c-1.4,1.4-3.7,3.3-4.6,3.8c-0.9,0.5-1.7,0.2-3.5-1.3c-1.8-1.5-4.4-5.5-4.4-5.5L266.5,101.1z"/>
			<path fill="#722D3B" d="M266.2,83.9c0,0,1.7,3,1.7,9.5c0,5.2-0.5,6.1-1.6,8.6c-1.1,2.5-1.6,3.8-1.6,3.8s-0.5-2.5-2.1-5.2
				s-3.1-5.8-3.1-5.8L266.2,83.9z"/>
			<path fill="#FFA08D" d="M261.5,173.6c1.5-0.1,3.1-0.2,4.7-0.3c0,0.9-0.1,1.8-0.1,2.3c0,3.5,2.2,6.8,3,8c0.8,1.3-1.8,3.2-3.7,1.4
				c-2-1.8-3.3-2.8-4.4-3.4c-1.1-0.6-1-1.3,0.1-5.2C261.3,175.7,261.4,174.7,261.5,173.6z"/>
			<path fill="#FFC5B3" d="M247.4,181.7c1.5,0.3,3.2,0.2,4.8-0.2c0,0.2,0,0.5,0,0.6c0,3.5,2.2,6.8,3,8c0.8,1.3-1.8,3.2-3.7,1.4
				c-2-1.8-2.2-2.2-3.3-2.8c-1.1-0.6-2.5-1.3-1.6-4.1C246.7,184.4,247.4,182.2,247.4,181.7z"/>
			<g>
				<path fill="#AE9CB7" d="M266.9,179.6c0,0,1.8,2.6,3.4,4.3c1.8,2,2.6,2.5,3,3.6c0.4,1.1-1.6,3.7-5.1,1.7c-3.5-2-4.1-2.6-5.3-3.6
					c-1.5-1.4-3.1-2.3-3.4-4.3c-0.2-1.7,1.1-2.8,1.1-2.8s0.3,1.2,2.4,2.4C264.6,181.5,266.9,179.6,266.9,179.6z"/>
				<path fill="#9480A0" d="M273.3,187.4c0,0-2.3,1.4-2.6,1.5c-2,0.9-4-1.2-5.9-2.5c-1.9-1.3-3.1-2.6-3.9-4c-0.8-1.4-1.5-2-1.5-2
					s-1.2,2.7,0.5,3.7c2,1.2,5.2,3.5,6.1,4.1c0.8,0.5,4.7,3.4,6.9,1.2C273.4,188.8,273.5,188.3,273.3,187.4z"/>
				<path fill="#9480A0" d="M268.2,181.4c0,0-0.9,0.3-1.8,1.3c-0.7,0.8-1.1,1.4-1.1,1.4l0.7,0.5c0,0,1.2-1.2,1.8-1.8
					c0.2-0.2,1-0.7,1-0.7L268.2,181.4z"/>
				<path fill="#9480A0" d="M269.5,183c0,0-0.9,0.4-1.8,1.3c-0.7,0.8-0.9,1.1-0.9,1.1l0.6,0.7c0,0,1-1.1,1.6-1.7
					c0.2-0.2,1.1-0.7,1.1-0.7L269.5,183z"/>
			</g>
			<g>
				<path fill="#AE9CB7" d="M252.9,186c0,0,1.8,2.6,3.4,4.3c1.8,2,2.6,2.5,3,3.6c0.4,1.1-1.6,3.7-5.1,1.7c-3.5-2-4.1-2.6-5.3-3.6
					c-1.5-1.4-3.1-2.3-3.4-4.3c-0.2-1.7,1.1-2.8,1.1-2.8s0.3,1.2,2.4,2.4C250.6,188,252.9,186,252.9,186z"/>
				<path fill="#9480A0" d="M259.2,193.9c0,0-2.3,1.4-2.6,1.5c-2,0.9-4-1.2-5.9-2.5c-1.9-1.3-3.1-2.6-3.9-4c-0.8-1.4-1.5-2-1.5-2
					s-1.2,2.7,0.5,3.7c2,1.2,5.2,3.5,6.1,4.1c0.8,0.5,4.7,3.4,6.9,1.2C259.4,195.3,259.5,194.8,259.2,193.9z"/>
				<path fill="#9480A0" d="M254.2,187.8c0,0-0.9,0.3-1.8,1.3c-0.7,0.8-1.1,1.4-1.1,1.4l0.7,0.5c0,0,1.2-1.2,1.8-1.8
					c0.2-0.2,1-0.7,1-0.7L254.2,187.8z"/>
				<path fill="#9480A0" d="M255.5,189.4c0,0-0.9,0.4-1.8,1.3c-0.7,0.8-0.9,1.1-0.9,1.1l0.6,0.7c0,0,1-1.1,1.6-1.7
					c0.2-0.2,1.1-0.7,1.1-0.7L255.5,189.4z"/>
			</g>
			<path fill="#EA4458" d="M266.7,128.3c0,0,1.3,10.2,1.3,14.4c0,6.2,0.3,9.7,0.2,12.1c-0.2,2.4-0.5,23.7-0.5,23.7s-2.4,1.4-4.8,1.4
				c-2.4,0-3-2.1-3-2.1s-0.9-18.1-1-23.1c-0.1-3.3-1.1-14-1.1-14s-0.8,15.2-1.3,19.8c-0.6,5.1-1.8,24.1-1.8,24.1s-2.3,1.5-4.6,1.5
				c-2.3,0-5.3-2.4-5.3-2.4s2.4-36,2.3-40.9c-0.1-4.9,0.9-14.4,0.9-14.4H266.7z"/>
			<path fill="#EA4458" d="M266.5,106.5c-0.4,0.2-0.7,0.5-1.1,0.7l-5.6-10.9c0,0,1.9-1.1,4.5,0.1c1.4,0.7,3.5,3.9,5.3,6.8
				C269.3,104.6,267.6,105.7,266.5,106.5z"/>
			<path fill="#F7515E" d="M247.5,103.7c0.5-1.8,6-5.5,6-5.5s3.1,2.4,4.2,3.3c1,0.8,2.8,2.9,2.9,3.1c0,0,0,0,0,0
				c0-0.3-0.2-3.1-1.3-6c-0.3-0.9,0.2-3.6,0.2-3.6s0.4-0.1,1.1-0.2c0.9,1,2.8,3.8,3.8,4.9c1,1.1,3.8,4.4,3.7,8.1
				c-0.1,7.8,0,23.4,0,23.4s-5.7,4.4-11.1,6c-7.3,2.2-10-3.9-10-3.9s1.6-13.1,1.5-16.2C248.5,117,246,109.7,247.5,103.7z"/>
			<path fill="#FFA08D" d="M259.9,95.3c0,0,0.4,2.4,0.9,4.1c0.5,0.7,1.8,4.9,1.5,6.9c-1-0.6-4-3.6-5-4.5c-1.2-1.1-4.2-3.3-4.2-3.3
				s1.1-1,1.1-3.5c0-3.5,0-6.5,0-6.5L259.9,95.3z"/>
			<path fill="#EA4458" d="M261.1,96.4c0,0,1.4,3.5,2.1,6.5c0.6,2.6,0,5.5,0,5.5s-5-3.9-6.6-5.1c-2.3-1.7-5-3.7-5-3.7l1.5-1.1
				c0,0,2.5,1.3,4.6,3c0.9,0.8,4.2,3.9,4.2,3.9s-0.7-2.6-1.3-4.9c-0.6-2-1.2-4.8-1.2-4.8L261.1,96.4z"/>
			<polygon fill="#FFFFFF" points="254.8,110.1 259.8,107.9 259.3,106.7 254.3,108.9 			"/>
			<path fill="#FFA08D" d="M244.7,111c0,0,5.7,0.6,5.8,2.1c0.2,4.2-0.6,8.1-0.6,8.1s8.9,0.6,8.9,0.7c0.9,0.6,2.6,3.2-0.5,4.5
				c-3.8,0.7-5.9,0.7-9.5,0.5c-2.2-0.1-3.8-0.3-4.1-1c-0.4-1-1-1.7-1-4.4C243.8,118.6,244.7,111,244.7,111z"/>
			<path fill="#EA4458" d="M247.8,114.6c-2.3-0.1-3.5-1.1-4.1-2.6c0.4-1.4,0.8-4.3,1.3-5.6c1.3-3.6,3-4.5,4.4-5.1
				c1.1-0.4,3,1.9,3.7,3.8c0.5,1.5-0.6,5.7-1.7,9.5C250,114.8,249.1,114.6,247.8,114.6z"/>
			<path fill="#FFC5B3" d="M256.4,83.3c2.1-1.6,7.2-2.1,9,3c1.9,5.4-3,12.1-5.6,11c-1.5-0.6-4.6-2.9-5.5-5.7
				C253.3,88.4,254.7,84.6,256.4,83.3z"/>
			<path fill="#722D3B" d="M266.8,87c0,1.6-6.6,2.9-9.8,2.6c-1.4,1.9-2.4,2.9-2.4,2.9s-1.2-1.6-1.3-2.7c-0.2-1-2-6.6,3.6-8.8
				C262,79,266.9,81.7,266.8,87z"/>
			<path fill="#722D3B" d="M258.3,86.1c0,0-2.2,4.6-1.3,9.4c0.9,4.8,2.7,5.7,3.6,10.3c0.5,2.6-1.6,7.3-1.6,7.3s-0.6-4.7-4.7-9
				c-2.6-2.7-8.3-6.5-0.7-20.1C256,83.7,258.3,86.1,258.3,86.1z"/>
		</g>
		<g>
			<g>
				<g>
					<polygon fill="#F2EDF4" points="334.7,159 340.8,155.6 364,168.9 358,172.3 					"/>
				</g>
				<polygon fill="#DED3E2" points="358,172.3 364,168.9 364,170.6 358,174.2 				"/>
				<polygon fill="#C4B5CA" points="358,172.3 334.7,159 334.7,160.8 358,174.2 				"/>
			</g>
			<g>
				<g>
					<polygon fill="#F2EDF4" points="349.9,166.2 345.9,164 265.1,210.1 269,212.4 					"/>
				</g>
				<polygon fill="#DED3E2" points="271,211.2 348.5,167 348.5,168.4 271,212.8 				"/>
			</g>
			<g>
				<g>
					<polygon fill="#F2EDF4" points="252.3,206.1 258.4,202.7 281.6,216 275.5,219.4 					"/>
				</g>
				<polygon fill="#DED3E2" points="275.5,219.4 281.6,216 281.6,217.7 275.5,221.3 				"/>
				<polygon fill="#C4B5CA" points="275.6,219.4 252.3,206.1 252.3,207.8 275.6,221.3 				"/>
			</g>
			<g>
				<polygon fill="#C4B5CA" points="269.1,179.4 269.1,213.7 262.9,210.2 262.9,175.4 				"/>
				<polygon fill="#DED3E2" points="271.3,179.4 271.3,212.5 269.1,213.7 269.1,179.4 				"/>
			</g>
			<g>
				<polygon fill="#C4B5CA" points="351.3,128 351.3,166.2 345.1,162.7 345.1,124.1 				"/>
				<polygon fill="#DED3E2" points="353.6,128 353.6,165 351.3,166.2 351.3,128 				"/>
			</g>
			<g>
				<polygon fill="#DED3E2" points="370.6,135.1 370.6,136.6 280,188.2 280,186.7 				"/>
				<polygon fill="#C4B5CA" points="242.3,165.2 242.3,166.7 280,188.2 280,186.7 				"/>
			</g>
			<g>
				<g>
					<path fill="#F2EDF4" d="M332.8,113.6l37.8,21.5L280,186.7l-37.7-21.5L332.8,113.6z M276.4,181.1c0.5,0.6,1.7,1,3,1s2.5-0.4,3-1
						c0.2-0.2,0.2-0.4,0.2-0.6c0-0.9-1.5-1.6-3.3-1.6c-1.8,0-3.3,0.7-3.3,1.6C276.1,180.7,276.2,180.9,276.4,181.1z M267.6,176.1
						c0.5,0.6,1.7,1,3,1c1.4,0,2.5-0.4,3-1c0.2-0.2,0.2-0.4,0.2-0.6c0-0.9-1.5-1.6-3.3-1.6c-1.8,0-3.3,0.7-3.3,1.6
						C267.4,175.7,267.4,175.9,267.6,176.1z M258.3,170.7c0.5,0.6,1.7,1,3,1c1.4,0,2.5-0.4,3-1c0.2-0.2,0.2-0.4,0.2-0.6
						c0-0.9-1.5-1.6-3.3-1.6c-1.8,0-3.3,0.7-3.3,1.6C258.1,170.3,258.1,170.5,258.3,170.7z M252.6,166.8c1.4,0,2.5-0.4,3-1
						c0.2-0.2,0.2-0.4,0.2-0.6c0-0.9-1.5-1.6-3.3-1.6c-1.8,0-3.3,0.7-3.3,1.6c0,0.2,0.1,0.4,0.2,0.6
						C250,166.4,251.2,166.8,252.6,166.8z"/>
				</g>
				<path fill="#C4B5CA" d="M279.4,178.8c1.8,0,3.3,0.7,3.3,1.6c0,0.2-0.1,0.4-0.2,0.6c-0.5-0.6-1.7-1-3-1s-2.5,0.4-3,1
					c-0.2-0.2-0.2-0.4-0.2-0.6C276.1,179.5,277.6,178.8,279.4,178.8z"/>
				<path fill="#C4B5CA" d="M270.6,173.9c1.8,0,3.3,0.7,3.3,1.6c0,0.2-0.1,0.4-0.2,0.6c-0.5-0.6-1.7-1-3-1c-1.4,0-2.5,0.4-3,1
					c-0.2-0.2-0.2-0.4-0.2-0.6C267.4,174.6,268.8,173.9,270.6,173.9z"/>
				<path fill="#C4B5CA" d="M261.3,168.4c1.8,0,3.3,0.7,3.3,1.6c0,0.2-0.1,0.4-0.2,0.6c-0.5-0.6-1.7-1-3-1c-1.4,0-2.5,0.4-3,1
					c-0.2-0.2-0.2-0.4-0.2-0.6C258.1,169.2,259.5,168.4,261.3,168.4z"/>
				<path fill="#C4B5CA" d="M252.6,163.5c1.8,0,3.3,0.7,3.3,1.6c0,0.2-0.1,0.4-0.2,0.6c-0.5-0.6-1.7-1-3-1c-1.4,0-2.5,0.4-3,1
					c-0.2-0.2-0.2-0.4-0.2-0.6C249.3,164.2,250.7,163.5,252.6,163.5z"/>
			</g>
			<polygon fill="#DED3E2" points="289,175.9 358.6,136.3 356.9,135.4 287.3,174.9 			"/>
			<polygon fill="#DED3E2" points="262.9,161.2 332.4,121.6 330.7,120.6 261.2,160.2 			"/>
		</g>
		<path fill="#F2EDF4" d="M276.1,105.6c0,0,1.1-2,2.6-3.2c0.6-0.5,0.7,0.5,0.5,1.2c-0.2,0.7-0.2,0.7-0.2,0.7s4.7-1.6,6.1,0.1
			c1.2,1.4,0.7,2.6-1.3,3.9c-0.9,0.6-4.5,1.4-4.5,1.4L276.1,105.6z"/>
		<g>
			<g>
				<g>
					<path fill="#722D3B" d="M310,136.8c-0.3-1.7-3.8-3.4-3.1-6.2c0.6-2.8,1.1-7.5,1.1-7.5l-9.5-2.3c0,0,0.1,7.4,0.9,10.3
						c0.8,2.9,0.9,3.1,2.6,4.8c1.3,1.3,3.9,2.2,3.9,2.2s0,0.1-0.1,0.3c0.2,0,0.4,0.1,0.5,0.3c0.2,0.4,0.5,2-0.3,3.1
						c-0.7,1.1-0.3,1.8,0,2.3c0.3-0.6,0.7-1.2,1-1.9C308.2,140.4,310.3,138,310,136.8z"/>
					<path fill="#DD7C3A" d="M306.1,141.9c0.8-1.1,0.5-2.7,0.3-3.1c-0.1-0.2-0.3-0.3-0.5-0.3c-0.4,1-1.8,4.4-3,6
						c-0.7,0.9-2.9,2.4-2.3,3.7c0.6,1.3,2.4,1,3.5,0c0.3-0.3,1-1.7,2.1-3.8C305.8,143.7,305.4,143,306.1,141.9z"/>
				</g>
				<g>
					<path fill="#843845" d="M279.9,149.6c0.5-0.6,0.7-1.7,1.2-1.9c0.2-0.1,0.3-0.1,0.5,0c-0.1-1.5-0.4-3.1-0.5-3.8
						c-0.2-1-0.9-6.3-1.2-8.7l-2.7,0.4c-0.5,0.5,1.3,6.8,1.7,8.8c0.2,1.1,0.4,3.4,0.5,5.7C279.5,150,279.7,149.9,279.9,149.6z"/>
					<path fill="#722D3B" d="M281.5,147.7c0.5,0.3,0.6,1.4,1,2.1c0.2,0.2,0.3,0.6,0.5,1.1c0.2-2.5,0.4-6.1,0.4-9.2
						c0-3.8-0.6-6.8-0.6-6.8l-3,0.4c0.3,2.4,0.9,7.7,1.2,8.7C281.2,144.6,281.4,146.2,281.5,147.7z"/>
					<path fill="#FFB387" d="M279.4,156c-0.1,2.4-1.3,3.1-1.7,3.8c-0.5,0.9,0,1.9,1,2.2c1.3-0.5,2.2-1.4,2.6-2.6
						c0.5-1.9,0.4-7.2,0.4-8.5c0-0.6-0.1-1.9-0.2-3.2c-0.1-0.1-0.3-0.1-0.5,0c-0.4,0.2-0.7,1.3-1.2,1.9c-0.2,0.2-0.4,0.4-0.6,0.5
						C279.4,152.4,279.4,154.8,279.4,156z"/>
					<path fill="#DD7C3A" d="M281.5,147.7c0.1,1.3,0.2,2.5,0.2,3.2c0,1.3,0,6.7-0.4,8.5c-0.3,1.2-1.3,2.1-2.6,2.6
						c0.5,0.1,1,0.1,1.6-0.2c1.8-1,1.7-1.7,1.9-2.5c0.3-1.5,0.3-3.3,0.6-5.9c0.1-0.5,0.1-1.3,0.2-2.5c-0.2-0.5-0.3-0.8-0.5-1.1
						C282.1,149.1,282,148,281.5,147.7z"/>
				</g>
				<path fill="#843845" d="M310.3,116.5c-1.4-0.6-2.9-0.5-4.5-0.3c-2.8,0.3-6.7,0.7-8.9,0.9c-1.4,0.1-5.2-0.4-7.2-0.4
					c-2.2,0-3.1-0.7-4.5-1.6c-1.4-0.8-2-2.6-2.7-4.6c-0.7-1.9-9.5,4.1-9.5,4.1s1,4.3,1.1,7.6c0.1,3.3-0.1,8.2,1.7,13
					c1.9,5,8.6,6.4,14,3.4c4.9-2.7,12.9-6.6,16.1-7.2c3.1-0.5,10.9-4.1,11.7-4.3c-1.6-3.2-1.7-4.4-4.7-7.6
					C312.1,118.5,311.5,117,310.3,116.5z"/>
			</g>
			<g>
				<path fill="#843845" d="M318.5,136.7c0.3,0.7,1,1.5,1.7,2.2c-0.2-2.2-0.2-5.6-0.6-6.1c-0.5-0.6-2.5-2.9-3-4.2
					c-0.3-0.9-0.6-3.6-0.7-5.2c-3.3-3.6-16.1,1.5-16.1,1.5s3.1,5.8,7.5,7.9c2.9,1.4,6.9,0.5,9.2,2.3
					C316.3,135.1,317.9,135.5,318.5,136.7z"/>
				<path fill="#722D3B" d="M319.5,132.8c0.4,0.5,0.5,3.9,0.6,6.1c0.3,0.2,0.5,0.4,0.8,0.6c0-0.3,0-0.6-0.1-0.9
					c-0.1-1.9,0.3-4.5,0-5.6c-0.3-1.2-1.5-1.9-2.3-3.3c-0.8-1.4-0.6-2.4-2.5-5.7c-0.1-0.2-0.2-0.4-0.4-0.5c0.1,1.6,0.4,4.3,0.7,5.2
					C317,129.9,319,132.2,319.5,132.8z"/>
				<path fill="#FFB387" d="M318,142.3c0,1.4-2,2.6-0.7,3.5c0.1,0.1,0.2,0.1,0.2,0.1c0.1,0,0.2,0,0.3-0.1c3.9-0.9,2.7-4.5,2.5-6.1
					c0-0.3-0.1-0.6-0.1-0.9c-0.7-0.6-1.4-1.5-1.7-2.2c-0.5-1.2-2.2-1.6-2.2-1.6C317.8,136.3,318,139.7,318,142.3z"/>
				<path fill="#DD7C3A" d="M320.2,139.7c0.2,1.6,1.4,5.2-2.5,6.1c-0.1,0-0.2,0-0.3,0.1c1.1,0.5,2.8-0.2,3.5-1.6
					c0.4-0.8,0.1-2.8,0-4.9c-0.3-0.2-0.5-0.4-0.8-0.6C320.2,139.2,320.2,139.5,320.2,139.7z"/>
			</g>
			<g>
				<path fill="#843845" d="M287.4,154.6c0.1-1.8,0.1-3.5,0.2-4.2c0.1-2.1,0-7.5,0-7.5s-0.5-0.9-1.3-0.6c-0.8,0.3-0.5-0.4,0-1.4
					c0.2-0.4,0.4-1.5,0.6-2.7l-4.3,0.6c-0.5,0.5,1.3,6.8,1.7,8.8c0.2,1.1,0.4,3.6,0.5,6.1C285.4,154.1,286.2,154.6,287.4,154.6
					L287.4,154.6z"/>
				<path fill="#722D3B" d="M286.3,142.2c0.8-0.3,1.3,0.6,1.3,0.6s0.1,5.4,0,7.5c0,0.7-0.1,2.4-0.2,4.2c0.4,0,0.7,0.1,1.1,0.3
					c0.2-2.4,0.5-6.6,0.5-10.2c0-3.8-0.6-6.8-0.6-6.8l-1.4,0.2c-0.2,1.2-0.4,2.3-0.6,2.7C285.8,141.8,285.5,142.5,286.3,142.2z"/>
				<path fill="#FFB387" d="M284.9,159.1c-0.1,2.4-1.3,3.1-1.7,3.8c-0.5,0.9,0,1.9,1,2.2c1.4-0.8,2.2-1.5,2.5-2.1
					c0.3-0.6,0.5-4.9,0.7-8.4h0c-1.1,0-2-0.5-2.6-1C284.9,155.8,284.9,158,284.9,159.1z"/>
				<path fill="#DD7C3A" d="M286.7,163c-0.3,0.6-1.1,1.4-2.5,2.1c0.5,0.1,1,0.1,1.6-0.2c1.8-1,1.7-1.7,1.9-2.5
					c0.3-1.5,0.3-3.3,0.6-5.9c0-0.3,0.1-0.9,0.2-1.5c-0.3-0.2-0.7-0.3-1.1-0.3C287.2,158.1,287,162.4,286.7,163z"/>
			</g>
			<path fill="#722D3B" d="M286.6,139.7c0,0,0.5-3.9,0.7-4.5c0.2-0.7,0.9-2.5,1.6-1.7c0.7,0.8,0,2.4,2.4,1.3
				c2.4-1.1,6.8-3.1,8.2-3.7c1.4-0.6,4.1-1.7,4.8-1c0.7,0.7,2.8,2.7,2.8,2.7s-2.7-0.5-4.2-0.4c-1.2,0.1-2.8,1-4.8,1.9
				c-2.2,1-4.2,2.2-5,2.6C289.1,139,286.6,139.7,286.6,139.7z"/>
			<path fill="#722D3B" d="M273.8,118.8l1.7-0.2c0,0-0.1,3.3,0.7,5c0.7,1.7,0.2,4.2,0.9,5.1c0.7,1,0.4,3.6,2.7,3.7
				c2.3,0.1,4,0.8,3.7,2.4c-0.1,0.6-0.7,1.6-0.8,2.6c-0.2,1.4,0.1,2.7,0.1,2.7s-2.4-0.4-4.8-1.8c-2.5-1.4-2.6-4.2-3-7
				C274.4,128.6,273.8,118.8,273.8,118.8z"/>
			<path fill="#722D3B" d="M289.1,124.8c-0.5,0.5-0.3,1.7-0.5,3.3c-0.2,1.6-0.6,4.4,0.6,3.3c1.2-1.1,1.4-2,1.3-4.1
				C290.3,125.2,290.1,123.8,289.1,124.8z"/>
			<path fill="#722D3B" d="M279.7,116.5c0,0-1.5,0.4-3.1,0.9c-0.5,0.2-2.8,0.3-2.8,0.3l0.3,4.9c0,0,2.9-0.2,4.2-1.9
				c1.2-1.7,0.8-2,1.5-2.9C280.4,116.8,280.5,115.9,279.7,116.5z"/>
			<path fill="#722D3B" d="M307.4,123.5c0-0.8-1.4,1.2-1.9,2.2c-0.5,0.9-2.5,3.4-2.5,3.4s1.1-0.2,2.8-1.9
				C307.5,125.4,307.4,124.2,307.4,123.5z"/>
			<path fill="#722D3B" d="M309.9,132c0,0,1.9,0.6,3.9,1c2,0.4,3.3,1.8,3.3,1.8s-0.7-2.1-2.9-2.7C312.1,131.5,309.9,132,309.9,132z"
				/>
			<g>
				<path fill="#843845" d="M274.7,98.5c0.2,0.8,0.8,3.3,1.1,3.9c0.2,0.5,0.9,1.8,1.2,2.3l1.3-0.2c0,0-1.6-1.2-2.3-3.9
					c-0.6-2.8-1.8-4.3-1.9-3.5c0,0.1,0,0.3,0,0.4C274.3,97.7,274.6,98,274.7,98.5z"/>
				<path fill="#722D3B" d="M274.1,100.5c-0.1,1.4-0.1,4.7-0.1,4.7l2.9-0.5c-0.3-0.5-0.9-1.8-1.2-2.3c-0.3-0.7-0.9-3.1-1.1-3.9
					c-0.1-0.5-0.4-0.8-0.6-0.9C274.1,98.4,274.2,99.3,274.1,100.5z"/>
			</g>
			<path fill="#843845" d="M280.7,100.3c-0.6-0.4-0.6,1.1-0.7,2.6c-0.2,2-0.3,4.3-0.3,4.3l3.4,4.5c0,0,0.6-0.9,0.6-2.4
				c0-0.7-0.3-1.6-0.4-2.6c-0.2-1.8-0.8-3.1-1.3-4.3C281.6,101.5,281.2,100.6,280.7,100.3z"/>
			<g>
				<path fill="#FFB387" d="M278.9,115.3c-0.7-0.3-2.6-0.5-4.6,0s-4.2,0.1-6.4,1.1c-0.5,0.2-0.8,0.5-1,0.6c0,0.4,0.2,1,1.1,1.2
					c1.3,0.3,3.2-0.5,5.6-1.5c2.3-1,4.1-0.8,4.7-0.2c0.2,0.2,0.3,0.3,0.3,0.5c0.2-0.1,0.5-0.3,0.7-0.5
					C279.8,116.2,279.6,115.6,278.9,115.3z"/>
				<path fill="#DD7C3A" d="M273.5,116.8c-2.3,1-4.3,1.8-5.6,1.5c-0.9-0.2-1.1-0.9-1.1-1.2c-0.3,0.2-0.5,0.2-1,0
					c0.3,1.6,1.7,2.2,3.2,2c1.6-0.3,3.7-0.4,5.7-1c1.2-0.3,2.5-0.2,3.8-0.9c-0.1-0.2-0.2-0.3-0.3-0.5
					C277.6,116,275.8,115.8,273.5,116.8z"/>
			</g>
			<g>
				<path fill="#843845" d="M279.1,104.9c-0.9-0.6-2.6-1-4.1-0.4c-1.2,0.5-2.1,1.6-2.9,2.4c-0.4,0.4-0.9,0.9-1.2,1.3
					c0.2,0.3,0.4,0.7,0.3,0.9c-0.2,0.4-0.8,1.3-0.8,1.3c-1.3,1.7-2.8,3.4-4.4,4.9c-0.6,0.6,0.2,0.5,1.7,1.9c1.7,1.6,4.5-1.2,6.5-1.6
					c1.9-0.5,3.8-0.9,4.5-0.6c0.7,0.3,2.1,0.3,1.6,1.6c0.6-0.5,1.2-1.2,1.6-2C283.5,111.6,285.1,108.8,279.1,104.9z"/>
				<path fill="#722D3B" d="M270.8,108.3c-0.2,0.3-0.3,0.5-0.3,0.9c0,0.4,0,1-0.2,1.3c0,0,0.7-0.8,0.8-1.3
					C271.3,108.9,271,108.6,270.8,108.3z"/>
			</g>
			<g>
				<path fill="#722D3B" d="M274.2,112.1c0,0-0.2-1.7,1.2-2.3c0.9-0.4,1.7,0.6,1.7,0.6s0.5,1.7-0.9,2.1
					C275,113,274.2,112.1,274.2,112.1z"/>
				<path fill="#512020" d="M274.7,111.8c0,0-0.1-0.8,0.7-1.3c0.6-0.4,1.2,0.1,1.2,0.1s0.2,1-0.7,1.3
					C275.1,112.3,274.7,111.8,274.7,111.8z"/>
				<path fill="#753939" d="M275.2,111.3c0,0,0.2,0.6,0.8,0.4c0.5-0.2,0.4-0.7,0.4-0.7S276.1,111.6,275.2,111.3z"/>
				<ellipse fill="#FFBB88" cx="275.5" cy="111" rx="0.2" ry="0.3"/>
			</g>
			<path fill="#512020" d="M266.3,114.9c0,0-1.3,0.9-1.2,1.2c0.1,0.4,0.2,0.6,0.4,0.7c0.1,0.1,0.4,0.8,0.7,0.8
				c0.2,0,0.4-0.3,0.7-0.4c0.4-0.1,0.8-0.4,1-0.8C268.3,115.7,266.3,114.9,266.3,114.9z"/>
			<path fill="#722D3B" d="M270,114.5c-0.6,0.1-0.9,0.4-1.3,0.8c-0.2,0.2-0.9,0.9-0.6,0.9c0.1,0,0.9-0.4,1.1-0.6
				C269.6,115.3,270.3,114.4,270,114.5z"/>
			<path fill="#FFB387" d="M274.7,108.5c-0.6,0-0.7,0.7-0.5,0.8c0.3,0.1,1.2-0.4,1.2-0.4S274.9,108.5,274.7,108.5z"/>
			<path fill="#FFB387" d="M271.6,107.8c0,0,0.1,0.6,0.4,0.8c0.3,0.1,0.5-0.6,0.4-0.8C272,107.4,271.6,107.8,271.6,107.8z"/>
			<path fill="#722D3B" d="M280.7,101.1c-0.3,0.6-0.3,2.3-0.3,3.2c0,1,0.1,1.7,0,2.2c-0.1,0.5,0,1.1,0.6,1.6
				c0.1,0.1,0.7,0.7,1.1,1.3c0.5,0.8,0.7,1.6,0.7,1.6s0.6-1.2,0.3-2.7c-0.4-1.6-0.9-3.7-1.3-4.8
				C281.3,102.4,280.7,101.1,280.7,101.1z"/>
		</g>
		<path fill="#F2EDF4" d="M269,119.7c0.6,0.3,0.2,0.8-0.4,1.1c-0.6,0.3-1.3,1.3-1.3,1.3s2.2,0.1,3.8,0.5c1.6,0.4,3.2,1.3,1.8,2.5
			c-1.4,1.2-4.2,1.4-7.3,1.2s-7.4,0.1-7.4,0.1s-0.8-2.4,0-4.5c2-0.4,3.5-0.3,5.1-1.1C265.7,119.7,268.4,119.4,269,119.7z"/>
	</g>
	<g>
		<g>
			<path fill="#9480A0" d="M181.1,156.8c1.4,1,4.2,3.1,4.7,5.3c0.8,2.8,1.1,6,1.1,10.9v4.9c-0.5,0.2-1,0.5-1.4,0.7v-5.6
				c0-4.8-0.3-7.8-1-10.5c-0.5-1.7-3.1-3.7-4.5-4.7C180.3,157.5,180.7,157.1,181.1,156.8z"/>
			<path fill="#9480A0" d="M203.6,144.2c1.4,1,4.2,3.1,4.7,5.3c0.8,2.8,1.1,6,1.1,10.9v5.9c-0.5,0.3-0.9,0.6-1.4,1c0,0,0,0,0,0v-6.8
				c0-4.8-0.3-7.8-1-10.5c-0.4-1.6-2.9-3.6-4.3-4.6C203,144.9,203.3,144.5,203.6,144.2z"/>
		</g>
		<path fill="#F7515E" d="M178.4,157.7l17.5-10c0,0,0,0,0,0l7.9-4.5c0.5-0.3,1-0.1,1.3,0.3c0.3,0.4,0.1,1-0.3,1.3l-17.5,10
			c0,0,0,0-0.1,0l-7.9,4.5c-0.1,0.1-0.3,0.1-0.5,0.1c-0.3,0-0.6-0.2-0.8-0.5C177.8,158.5,177.9,158,178.4,157.7z"/>
		<g>
			<g>
				<polygon fill="#9480A0" points="186.2,173.4 209.1,160.4 208.4,159.2 185.5,172.1 				"/>
			</g>
		</g>
		<rect x="185.4" y="176.1" fill="#9480A0" width="1.5" height="31.4"/>
		<g>
			<path fill="#722D3B" d="M183.9,206.9c0,1.3,0.8,2.9,1.8,3.4c1,0.6,1.8,0,1.8-1.4c0-1.3-0.8-2.9-1.8-3.4
				C184.7,205,183.9,205.6,183.9,206.9z"/>
			<polygon fill="#722D3B" points="183.2,206.2 184.6,205.4 186.9,210.4 185.5,211.2 			"/>
			<path fill="#843845" d="M182.5,207.7c0,1.3,0.8,2.9,1.8,3.4s1.8,0,1.8-1.4c0-1.3-0.8-2.9-1.8-3.4
				C183.3,205.8,182.5,206.4,182.5,207.7z"/>
			<path fill="#FFFFFF" d="M183.2,208.2c0,0.7,0.4,1.4,0.9,1.7s0.9,0,0.9-0.7s-0.4-1.4-0.9-1.7C183.6,207.3,183.2,207.6,183.2,208.2
				z"/>
			<path fill="#C4B5CA" d="M186.8,206.6l-1.7,1c0,0-0.4,1-0.6,1.4c-0.2,0.4-1.2-0.3-1.2-1.6c0-0.7,0-1.5,0-1.5l2.2-1.2
				C185.4,204.5,186.8,204.9,186.8,206.6z"/>
		</g>
		<g>
			<polygon fill="#F2EDF4" points="225.7,192.9 203,205.8 186.8,196.5 209.4,183.6 			"/>
			<polygon fill="#9480A0" points="225.7,192.9 225.7,194.6 203,207.5 203,205.8 			"/>
			<polygon fill="#C4B5CA" points="186.8,196.5 186.8,198.3 203,207.5 203,205.8 			"/>
		</g>
		<g>
			<path fill="#5974BB" d="M211.5,182.8c1.5,0,2.8-0.6,2.8-1.3v7.3h0c-0.2,0.6-1.3,1.1-2.8,1.1c-1.4,0-2.6-0.5-2.8-1.1h0v-7.3
				C208.7,182.3,209.9,182.8,211.5,182.8z"/>
			<g>
				<path fill="#FFFFFF" d="M211.5,178.8L211.5,178.8c1.5,0,2.8,1.2,2.8,2.7v0c0-0.7-1.2-1.3-2.8-1.3c-1.5,0-2.8,0.6-2.8,1.3v0
					C208.7,180,209.9,178.8,211.5,178.8z"/>
				<ellipse fill="#7490D1" cx="211.5" cy="181.5" rx="2.8" ry="1.3"/>
			</g>
			<path fill="#C4B5CA" d="M212.7,178.6v0.7c0,0.3-0.6,0.6-1.3,0.6s-1.3-0.3-1.3-0.6v-0.7H212.7z"/>
			<path fill="#F7515E" d="M211.5,177.9L211.5,177.9L211.5,177.9h1.6v0.7c0,0.4-0.7,0.7-1.6,0.7c-0.9,0-1.6-0.3-1.6-0.7v-0.7H211.5z
				"/>
			<ellipse fill="#F7515E" cx="211.5" cy="177.9" rx="1.6" ry="0.7"/>
			<path fill="#F7515E" d="M208.6,182.1c0,0.7,1.2,1.2,2.6,1.2c0,0,0.3,0,0.4,0c0,0,0.1,0,0.1,0c1.4,0,2.6-0.5,2.6-1.2v2.1l0,2.4
				c0,0,0,0,0,0c0,0.7-1.2,1.2-2.6,1.2c0,0-0.1,0-0.1,0s-0.3,0-0.4,0c-1.4,0-2.6-0.5-2.6-1.2c0,0,0,0,0,0l0-2.4V182.1z"/>
		</g>
		<g>
			<path fill="#5974BB" d="M218.2,186.6c1.5,0,2.8-0.6,2.8-1.3v7.3h0c-0.2,0.6-1.3,1.1-2.8,1.1c-1.4,0-2.6-0.5-2.8-1.1h0v-7.3
				C215.4,186,216.7,186.6,218.2,186.6z"/>
			<g>
				<path fill="#FFFFFF" d="M218.2,182.6L218.2,182.6c1.5,0,2.8,1.2,2.8,2.7v0c0-0.7-1.2-1.3-2.8-1.3s-2.8,0.6-2.8,1.3v0
					C215.4,183.8,216.7,182.6,218.2,182.6z"/>
				<ellipse fill="#7490D1" cx="218.2" cy="185.3" rx="2.8" ry="1.3"/>
			</g>
			<path fill="#C4B5CA" d="M219.5,182.4v0.7c0,0.3-0.6,0.6-1.3,0.6c-0.7,0-1.3-0.3-1.3-0.6v-0.7H219.5z"/>
			<path fill="#EA4458" d="M218.2,181.7L218.2,181.7L218.2,181.7h1.6v0.7c0,0.4-0.7,0.7-1.6,0.7c-0.9,0-1.6-0.3-1.6-0.7v-0.7H218.2z
				"/>
			<ellipse fill="#F7515E" cx="218.2" cy="181.7" rx="1.6" ry="0.7"/>
			<path fill="#F7515E" d="M215.4,185.9c0,0.7,1.2,1.2,2.6,1.2c0,0,0.3,0,0.4,0c0,0,0.1,0,0.1,0c1.4,0,2.6-0.5,2.6-1.2v2.1l0,2.4
				c0,0,0,0,0,0c0,0.7-1.2,1.2-2.6,1.2c0,0-0.1,0-0.1,0s-0.3,0-0.4,0c-1.4,0-2.6-0.5-2.6-1.2c0,0,0,0,0,0l0-2.4V185.9z"/>
		</g>
		<g>
			<path fill="#5974BB" d="M203.5,186.3c1.5,0,2.8-0.6,2.8-1.3v7.3h0c-0.2,0.6-1.3,1.1-2.8,1.1c-1.4,0-2.6-0.5-2.8-1.1h0V185
				C200.7,185.7,202,186.3,203.5,186.3z"/>
			<g>
				<path fill="#FFFFFF" d="M203.5,182.3L203.5,182.3c1.5,0,2.8,1.2,2.8,2.7v0c0-0.7-1.2-1.3-2.8-1.3c-1.5,0-2.8,0.6-2.8,1.3v0
					C200.7,183.5,202,182.3,203.5,182.3z"/>
				<ellipse fill="#7490D1" cx="203.5" cy="185" rx="2.8" ry="1.3"/>
			</g>
			<path fill="#C4B5CA" d="M204.8,182.1v0.7c0,0.3-0.6,0.6-1.3,0.6c-0.7,0-1.3-0.3-1.3-0.6v-0.7H204.8z"/>
			<path fill="#F7515E" d="M203.5,181.4L203.5,181.4L203.5,181.4h1.6v0.7c0,0.4-0.7,0.7-1.6,0.7c-0.9,0-1.6-0.3-1.6-0.7v-0.7H203.5z
				"/>
			<ellipse fill="#F7515E" cx="203.5" cy="181.4" rx="1.6" ry="0.7"/>
			<path fill="#F7515E" d="M200.7,185.6c0,0.7,1.2,1.2,2.6,1.2c0,0,0.3,0,0.4,0c0,0,0.1,0,0.1,0c1.4,0,2.6-0.5,2.6-1.2v2.1l0,2.4
				c0,0,0,0,0,0c0,0.7-1.2,1.2-2.6,1.2c0,0-0.1,0-0.1,0s-0.3,0-0.4,0c-1.4,0-2.6-0.5-2.6-1.2c0,0,0,0,0,0l0-2.4V185.6z"/>
		</g>
		<g>
			<path fill="#5974BB" d="M210.3,190.1c1.5,0,2.8-0.6,2.8-1.3v7.3h0c-0.2,0.6-1.3,1.1-2.8,1.1c-1.4,0-2.6-0.5-2.8-1.1h0v-7.3
				C207.5,189.5,208.7,190.1,210.3,190.1z"/>
			<g>
				<path fill="#FFFFFF" d="M210.3,186.1L210.3,186.1c1.5,0,2.8,1.2,2.8,2.7v0c0-0.7-1.2-1.3-2.8-1.3c-1.5,0-2.8,0.6-2.8,1.3v0
					C207.5,187.3,208.7,186.1,210.3,186.1z"/>
				<ellipse fill="#7490D1" cx="210.3" cy="188.8" rx="2.8" ry="1.3"/>
			</g>
			<path fill="#C4B5CA" d="M211.5,185.9v0.7c0,0.3-0.6,0.6-1.3,0.6c-0.7,0-1.3-0.3-1.3-0.6v-0.7H211.5z"/>
			<path fill="#EA4458" d="M210.3,185.1L210.3,185.1L210.3,185.1h1.6v0.7c0,0.4-0.7,0.7-1.6,0.7c-0.9,0-1.6-0.3-1.6-0.7v-0.7H210.3z
				"/>
			<ellipse fill="#F7515E" cx="210.3" cy="185.1" rx="1.6" ry="0.7"/>
			<path fill="#F7515E" d="M207.4,189.4c0,0.7,1.2,1.2,2.6,1.2c0,0,0.3,0,0.4,0c0,0,0.1,0,0.1,0c1.4,0,2.6-0.5,2.6-1.2v2.1l0,2.4
				c0,0,0,0,0,0c0,0.7-1.2,1.2-2.6,1.2c0,0-0.1,0-0.1,0s-0.3,0-0.4,0c-1.4,0-2.6-0.5-2.6-1.2c0,0,0,0,0,0l0-2.4V189.4z"/>
		</g>
		<g>
			<path fill="#5974BB" d="M195.1,190.7c1.5,0,2.8-0.6,2.8-1.3v7.3h0c-0.2,0.6-1.3,1.1-2.8,1.1c-1.4,0-2.6-0.5-2.8-1.1h0v-7.3
				C192.4,190.2,193.6,190.7,195.1,190.7z"/>
			<g>
				<path fill="#FFFFFF" d="M195.1,186.7L195.1,186.7c1.5,0,2.8,1.2,2.8,2.7v0c0-0.7-1.2-1.3-2.8-1.3s-2.8,0.6-2.8,1.3v0
					C192.4,187.9,193.6,186.7,195.1,186.7z"/>
				<ellipse fill="#7490D1" cx="195.1" cy="189.5" rx="2.8" ry="1.3"/>
			</g>
			<path fill="#C4B5CA" d="M196.4,186.5v0.7c0,0.3-0.6,0.6-1.3,0.6s-1.3-0.3-1.3-0.6v-0.7H196.4z"/>
			<path fill="#EA4458" d="M195.1,185.8L195.1,185.8L195.1,185.8h1.6v0.7c0,0.4-0.7,0.7-1.6,0.7c-0.9,0-1.6-0.3-1.6-0.7v-0.7H195.1z
				"/>
			<ellipse fill="#F7515E" cx="195.1" cy="185.8" rx="1.6" ry="0.7"/>
			<path fill="#F7515E" d="M192.3,190c0,0.7,1.2,1.2,2.6,1.2c0,0,0.3,0,0.4,0c0,0,0.1,0,0.1,0c1.4,0,2.6-0.5,2.6-1.2v2.1l0,2.4
				c0,0,0,0,0,0c0,0.7-1.2,1.2-2.6,1.2c0,0-0.1,0-0.1,0s-0.3,0-0.4,0c-1.4,0-2.6-0.5-2.6-1.2c0,0,0,0,0,0l0-2.4V190z"/>
		</g>
		<g>
			<path fill="#5974BB" d="M201.9,194.5c1.5,0,2.8-0.6,2.8-1.3v7.3h0c-0.2,0.6-1.3,1.1-2.8,1.1c-1.4,0-2.6-0.5-2.8-1.1h0v-7.3
				C199.1,193.9,200.4,194.5,201.9,194.5z"/>
			<g>
				<path fill="#FFFFFF" d="M201.9,190.5L201.9,190.5c1.5,0,2.8,1.2,2.8,2.7v0c0-0.7-1.2-1.3-2.8-1.3c-1.5,0-2.8,0.6-2.8,1.3v0
					C199.1,191.7,200.4,190.5,201.9,190.5z"/>
				<ellipse fill="#7490D1" cx="201.9" cy="193.2" rx="2.8" ry="1.3"/>
			</g>
			<path fill="#C4B5CA" d="M203.2,190.3v0.7c0,0.3-0.6,0.6-1.3,0.6c-0.7,0-1.3-0.3-1.3-0.6v-0.7H203.2z"/>
			<path fill="#EA4458" d="M201.9,189.6L201.9,189.6L201.9,189.6h1.6v0.7c0,0.4-0.7,0.7-1.6,0.7c-0.9,0-1.6-0.3-1.6-0.7v-0.7H201.9z
				"/>
			<ellipse fill="#F7515E" cx="201.9" cy="189.6" rx="1.6" ry="0.7"/>
			<path fill="#F7515E" d="M199.1,193.8c0,0.7,1.2,1.2,2.6,1.2c0,0,0.3,0,0.4,0c0,0,0.1,0,0.1,0c1.4,0,2.6-0.5,2.6-1.2v2.1l0,2.4
				c0,0,0,0,0,0c0,0.7-1.2,1.2-2.6,1.2c0,0-0.1,0-0.1,0s-0.3,0-0.4,0c-1.4,0-2.6-0.5-2.6-1.2c0,0,0,0,0,0l0-2.4V193.8z"/>
		</g>
		<rect x="202.4" y="186.1" fill="#9480A0" width="1.5" height="31.4"/>
		<g>
			<path fill="#722D3B" d="M200.9,216.5c0,1.3,0.8,2.9,1.8,3.4c1,0.6,1.8,0,1.8-1.4c0-1.3-0.8-2.9-1.8-3.4
				C201.8,214.5,200.9,215.1,200.9,216.5z"/>
			<polygon fill="#722D3B" points="200.3,215.8 201.7,215 203.9,220 202.5,220.8 			"/>
			<path fill="#843845" d="M199.5,217.3c0,1.3,0.8,2.9,1.8,3.4c1,0.6,1.8,0,1.8-1.4s-0.8-2.9-1.8-3.4
				C200.3,215.4,199.5,216,199.5,217.3z"/>
			<path fill="#FFFFFF" d="M200.3,217.8c0,0.7,0.4,1.4,0.9,1.7c0.5,0.3,0.9,0,0.9-0.7s-0.4-1.4-0.9-1.7
				C200.7,216.8,200.3,217.2,200.3,217.8z"/>
			<path fill="#C4B5CA" d="M203.8,216.1l-1.7,1c0,0-0.4,1-0.6,1.4c-0.2,0.4-1.2-0.3-1.2-1.6c0-0.7,0-1.5,0-1.5l2.2-1.2
				C202.4,214.1,203.8,214.5,203.8,216.1z"/>
		</g>
		<rect x="225.5" y="176.1" fill="#9480A0" width="1.5" height="27.9"/>
		<g>
			<path fill="#722D3B" d="M224.1,203c0,1.3,0.8,2.9,1.8,3.4c1,0.6,1.8,0,1.8-1.4c0-1.3-0.8-2.9-1.8-3.4
				C224.9,201.1,224.1,201.7,224.1,203z"/>
			<polygon fill="#722D3B" points="223.4,202.3 224.8,201.5 227.1,206.5 225.6,207.4 			"/>
			<path fill="#843845" d="M222.6,203.8c0,1.3,0.8,2.9,1.8,3.4c1,0.6,1.8,0,1.8-1.4c0-1.3-0.8-2.9-1.8-3.4
				C223.4,201.9,222.6,202.5,222.6,203.8z"/>
			<path fill="#FFFFFF" d="M223.4,204.3c0,0.7,0.4,1.4,0.9,1.7c0.5,0.3,0.9,0,0.9-0.7c0-0.7-0.4-1.4-0.9-1.7
				C223.8,203.4,223.4,203.7,223.4,204.3z"/>
			<path fill="#C4B5CA" d="M226.9,202.7l-1.7,1c0,0-0.4,1-0.6,1.4c-0.2,0.4-1.2-0.3-1.2-1.6c0-0.7,0-1.5,0-1.5l2.2-1.2
				C225.6,200.6,226.9,201,226.9,202.7z"/>
		</g>
		<g>
			<polygon fill="#F2EDF4" points="227,174.4 203,188.1 185.4,178.1 209.5,164.4 			"/>
			<polygon fill="#9480A0" points="227,174.4 227,176.1 203,189.8 203,188.1 			"/>
			<polygon fill="#C4B5CA" points="185.4,178.1 185.4,179.8 203,189.8 203,188.1 			"/>
		</g>
		<g>
			<polygon fill="#F4F4F4" points="189.5,178.6 202.9,186.2 223.6,174.5 210.2,166.9 			"/>
			<polygon fill="#843845" points="210.3,167.4 191.7,178 202.9,184.4 221.6,173.8 			"/>
			<g>
				<path fill="#A04D5F" d="M210.2,165.9l-20.7,11.7l13.4,7.6l20.7-11.7L210.2,165.9z M191.7,178l18.6-10.6l11.3,6.4l-18.7,10.6
					L191.7,178z"/>
			</g>
			<polygon fill="#843845" points="202.9,185.3 202.9,186.2 189.5,178.6 189.5,177.7 			"/>
			<polygon fill="#722D3B" points="202.9,185.3 202.9,186.2 223.6,174.5 223.6,173.6 			"/>
			<polygon fill="#722D3B" points="191,177.6 191.7,178 210.3,167.4 210.3,166.6 			"/>
			<polygon fill="#722D3B" points="222.3,173.5 210.3,166.6 210.3,167.4 221.6,173.8 			"/>
		</g>
		<g>
			<path fill="#EA4458" d="M200.5,172.7c-0.5,0-1-0.2-1-0.5v4c0,0.5,0.5,1,1,1c0.6,0,1-0.4,1-1v-4
				C201.5,172.5,201.1,172.7,200.5,172.7z"/>
			<path fill="#EA4458" d="M203.6,171c-0.5,0-1-0.2-1-0.5v4c0,0.5,0.5,1,1,1c0.6,0,1-0.4,1-1v-4C204.5,170.8,204.1,171,203.6,171z"
				/>
			<path fill="#EA4458" d="M206.4,169.4c-0.5,0-1-0.2-1-0.5v4c0,0.5,0.5,1,1,1s1-0.4,1-1v-4C207.4,169.2,207,169.4,206.4,169.4z"/>
			<g>
				<path fill="#C4B5CA" d="M212.6,171.7l-3.9-2.2c0,0-0.5-1.4,0.9-1.7c1.3-0.2,2.4,0.1,2.7,0.3c0.3,0.2,0.5,0.3,0.5,1.1
					C212.7,170.2,212.6,171.7,212.6,171.7z"/>
				<path fill="#F2EDF4" d="M194.7,177.5l3.8,2.2c0,0,0-2.8,0.2-3.3c0.2-0.5,0.2-1,1.7-1.8c1.5-0.8,11.9-6.5,11.9-6.5l-3.8-2.2
					c0,0-1.1,0.2-2.2,1s-9,5.1-9.7,5.4s-1.5,1.2-1.7,1.8C194.7,174.8,194.7,177.5,194.7,177.5z"/>
				<g>
					<path fill="#9480A0" d="M212.1,168.3c0.1,0,0.1,0,0.2,0.1c0.2,0.1,0.3,0.4,0.3,0.7v2.7l0.2-0.1V169c0-0.4-0.2-0.8-0.4-0.9
						c-0.2-0.1-0.5-0.1-0.8,0.1l-12,6.7c-0.6,0.3-1.1,1.3-1.1,2.1v2.7l0.2-0.1v-2.6c0-0.7,0.5-1.5,1-1.8l12-6.7
						C211.9,168.3,212,168.3,212.1,168.3z"/>
				</g>
			</g>
			<g>
				<path fill="#FFFFFF" d="M200.5,169.6c0.5,0,1,0.2,1,0.5v-3.2c0-0.5-0.5-1-1-1c-0.6,0-1,0.4-1,1v3.2
					C199.5,169.8,200,169.6,200.5,169.6z"/>
				<g>
					<path fill="#F7515E" d="M200.5,170.7c0.5,0,1-0.2,1-0.5v-0.1c0-0.3-0.5-0.5-1-0.5s-1,0.2-1,0.5v0.1
						C199.5,170.5,200,170.7,200.5,170.7z"/>
					<path fill="#EA4458" d="M200.5,170.7c0.5,0,1-0.2,1-0.5v2v0.1c0,0.3-0.5,0.5-1,0.5s-1-0.2-1-0.5v-0.1v-2
						C199.5,170.5,200,170.7,200.5,170.7z"/>
				</g>
				<g>
					<ellipse fill="#C4B5CA" cx="200.5" cy="166.6" rx="1.5" ry="0.9"/>
					<rect x="199" y="166.1" fill="#C4B5CA" width="3" height="0.4"/>
					<ellipse fill="#F4F4F4" cx="200.5" cy="166.1" rx="1.5" ry="0.9"/>
					<ellipse fill="#C4B5CA" cx="200.5" cy="166" rx="1" ry="0.5"/>
				</g>
			</g>
			<g>
				<path fill="#FFFFFF" d="M203.6,167.9c0.5,0,1,0.2,1,0.5v-3.2c0-0.5-0.5-1-1-1c-0.6,0-1,0.4-1,1v3.2
					C202.6,168.1,203,167.9,203.6,167.9z"/>
				<g>
					<path fill="#F7515E" d="M203.6,169c0.5,0,1-0.2,1-0.5v-0.1c0-0.3-0.5-0.5-1-0.5c-0.5,0-1,0.2-1,0.5v0.1
						C202.6,168.8,203,169,203.6,169z"/>
					<path fill="#EA4458" d="M203.6,169c0.5,0,1-0.2,1-0.5v2v0.1c0,0.3-0.5,0.5-1,0.5c-0.5,0-1-0.2-1-0.5v-0.1v-2
						C202.6,168.8,203,169,203.6,169z"/>
				</g>
				<g>
					<ellipse fill="#C4B5CA" cx="203.6" cy="164.9" rx="1.5" ry="0.9"/>
					<rect x="202.1" y="164.4" fill="#C4B5CA" width="3" height="0.4"/>
					<ellipse fill="#F4F4F4" cx="203.6" cy="164.4" rx="1.5" ry="0.9"/>
					<ellipse fill="#C4B5CA" cx="203.6" cy="164.3" rx="1" ry="0.5"/>
				</g>
			</g>
			<g>
				<path fill="#FFFFFF" d="M206.4,166.3c0.5,0,1,0.2,1,0.5v-3.2c0-0.5-0.5-1-1-1c-0.6,0-1,0.4-1,1v3.2
					C205.4,166.5,205.9,166.3,206.4,166.3z"/>
				<g>
					<path fill="#F7515E" d="M206.4,167.3c0.5,0,1-0.2,1-0.5v-0.1c0-0.3-0.5-0.5-1-0.5c-0.5,0-1,0.2-1,0.5v0.1
						C205.4,167.1,205.9,167.3,206.4,167.3z"/>
					<path fill="#EA4458" d="M206.4,167.3c0.5,0,1-0.2,1-0.5v2v0.1c0,0.3-0.5,0.5-1,0.5s-1-0.2-1-0.5v-0.1v-2
						C205.4,167.1,205.9,167.3,206.4,167.3z"/>
				</g>
				<g>
					<ellipse fill="#C4B5CA" cx="206.4" cy="163.2" rx="1.5" ry="0.9"/>
					<rect x="204.9" y="162.8" fill="#C4B5CA" width="3" height="0.4"/>
					<ellipse fill="#F4F4F4" cx="206.4" cy="162.7" rx="1.5" ry="0.9"/>
					<ellipse fill="#C4B5CA" cx="206.4" cy="162.7" rx="1" ry="0.5"/>
				</g>
			</g>
		</g>
		<g>
			<path fill="#EA4458" d="M206.1,175.8c-0.5,0-1-0.2-1-0.5v4c0,0.5,0.5,1,1,1c0.6,0,1-0.4,1-1v-4
				C207.1,175.6,206.6,175.8,206.1,175.8z"/>
			<path fill="#EA4458" d="M209.1,174.1c-0.5,0-1-0.2-1-0.5v4c0,0.5,0.5,1,1,1c0.6,0,1-0.4,1-1v-4
				C210.1,173.9,209.7,174.1,209.1,174.1z"/>
			<path fill="#EA4458" d="M212,172.5c-0.5,0-1-0.2-1-0.5v4c0,0.5,0.5,1,1,1c0.6,0,1-0.4,1-1v-4C213,172.3,212.5,172.5,212,172.5z"
				/>
			<g>
				<path fill="#C4B5CA" d="M218.2,174.8l-3.9-2.2c0,0-0.5-1.4,0.9-1.7c1.3-0.2,2.4,0.1,2.7,0.3c0.3,0.2,0.5,0.3,0.5,1.1
					C218.3,173.3,218.2,174.8,218.2,174.8z"/>
				<path fill="#F2EDF4" d="M200.2,180.6l3.8,2.2c0,0,0-2.8,0.2-3.3c0.2-0.5,0.2-1,1.7-1.8c1.5-0.8,11.9-6.5,11.9-6.5L214,169
					c0,0-1.1,0.2-2.2,1c-1.2,0.8-9,5.1-9.7,5.4c-0.7,0.3-1.5,1.2-1.7,1.8C200.3,177.9,200.2,180.6,200.2,180.6z"/>
				<g>
					<path fill="#9480A0" d="M217.7,171.4c0.1,0,0.1,0,0.2,0.1c0.2,0.1,0.3,0.4,0.3,0.7v2.7l0.2-0.1v-2.6c0-0.4-0.2-0.8-0.4-0.9
						c-0.2-0.1-0.5-0.1-0.8,0.1l-12,6.7c-0.6,0.3-1.1,1.3-1.1,2.1v2.7l0.2-0.1V180c0-0.7,0.5-1.5,1-1.8l12-6.7
						C217.4,171.4,217.6,171.4,217.7,171.4z"/>
				</g>
			</g>
			<g>
				<path fill="#FFFFFF" d="M206.1,172.7c0.5,0,1,0.2,1,0.5V170c0-0.5-0.5-1-1-1c-0.6,0-1,0.4-1,1v3.2
					C205.1,172.9,205.5,172.7,206.1,172.7z"/>
				<g>
					<path fill="#F7515E" d="M206.1,173.8c0.5,0,1-0.2,1-0.5v-0.1c0-0.3-0.5-0.5-1-0.5s-1,0.2-1,0.5v0.1
						C205.1,173.5,205.5,173.8,206.1,173.8z"/>
					<path fill="#EA4458" d="M206.1,173.8c0.5,0,1-0.2,1-0.5v2v0.1c0,0.3-0.5,0.5-1,0.5s-1-0.2-1-0.5v-0.1v-2
						C205.1,173.5,205.5,173.8,206.1,173.8z"/>
				</g>
				<g>
					<ellipse fill="#C4B5CA" cx="206.1" cy="169.7" rx="1.5" ry="0.9"/>
					<rect x="204.6" y="169.2" fill="#C4B5CA" width="3" height="0.4"/>
					<ellipse fill="#F4F4F4" cx="206.1" cy="169.2" rx="1.5" ry="0.9"/>
					<ellipse fill="#C4B5CA" cx="206.1" cy="169.1" rx="1" ry="0.5"/>
				</g>
			</g>
			<g>
				<path fill="#FFFFFF" d="M209.1,171c0.5,0,1,0.2,1,0.5v-3.2c0-0.5-0.5-1-1-1c-0.6,0-1,0.4-1,1v3.2
					C208.1,171.2,208.6,171,209.1,171z"/>
				<g>
					<path fill="#F7515E" d="M209.1,172.1c0.5,0,1-0.2,1-0.5v-0.1c0-0.3-0.5-0.5-1-0.5s-1,0.2-1,0.5v0.1
						C208.1,171.8,208.6,172.1,209.1,172.1z"/>
					<path fill="#EA4458" d="M209.1,172.1c0.5,0,1-0.2,1-0.5v2v0.1c0,0.3-0.5,0.5-1,0.5c-0.5,0-1-0.2-1-0.5v-0.1v-2
						C208.1,171.8,208.6,172.1,209.1,172.1z"/>
				</g>
				<g>
					<ellipse fill="#C4B5CA" cx="209.1" cy="168" rx="1.5" ry="0.9"/>
					<rect x="207.6" y="167.5" fill="#C4B5CA" width="3" height="0.4"/>
					<ellipse fill="#F4F4F4" cx="209.1" cy="167.5" rx="1.5" ry="0.9"/>
					<ellipse fill="#C4B5CA" cx="209.1" cy="167.4" rx="1" ry="0.5"/>
				</g>
			</g>
			<g>
				<path fill="#FFFFFF" d="M212,169.4c0.5,0,1,0.2,1,0.5v-3.2c0-0.5-0.5-1-1-1c-0.6,0-1,0.4-1,1v3.2
					C211,169.6,211.4,169.4,212,169.4z"/>
				<g>
					<path fill="#F7515E" d="M212,170.4c0.5,0,1-0.2,1-0.5v-0.1c0-0.3-0.5-0.5-1-0.5c-0.5,0-1,0.2-1,0.5v0.1
						C211,170.2,211.4,170.4,212,170.4z"/>
					<path fill="#EA4458" d="M212,170.4c0.5,0,1-0.2,1-0.5v2v0.1c0,0.3-0.5,0.5-1,0.5c-0.5,0-1-0.2-1-0.5v-0.1v-2
						C211,170.2,211.4,170.4,212,170.4z"/>
				</g>
				<g>
					<ellipse fill="#C4B5CA" cx="212" cy="166.3" rx="1.5" ry="0.9"/>
					<rect x="210.5" y="165.9" fill="#C4B5CA" width="3" height="0.4"/>
					<ellipse fill="#F4F4F4" cx="212" cy="165.8" rx="1.5" ry="0.9"/>
					<ellipse fill="#C4B5CA" cx="212" cy="165.8" rx="1" ry="0.5"/>
				</g>
			</g>
		</g>
	</g>
</g>
</svg>
